<svg width="84" height="84" viewBox="0 0 84 84" fill="none" xmlns="http://www.w3.org/2000/svg">
<rect width="84" height="84" rx="40" fill="#FF9E00" fill-opacity="0.22"/>
<path d="M61.1547 22.4976V59.4143C61.1547 61.897 59.2519 63.912 56.9074 63.912H21.2473C18.8943 63.912 17 61.897 17 59.4143V22.4976C17 20.0149 18.8943 18 21.2473 18H56.9074C59.2519 18 61.1547 20.0149 61.1547 22.4976Z" fill="#E1D9E1"/>
<path d="M61.1547 26.8128V22.4977C61.1547 20.015 59.252 18 56.9074 18H21.2473C18.8943 18 17 20.015 17 22.4977V26.8128H61.1547Z" fill="#FF61DB"/>
<path d="M57.7607 32.322V57.61C57.7607 59.1053 56.6154 60.3099 55.2111 60.3099H22.9444C21.5323 60.3099 20.3948 59.1053 20.3948 57.61V32.322C20.3948 30.8267 21.5323 29.6221 22.9444 29.6221H55.2111C56.6154 29.6221 57.7607 30.8267 57.7607 32.322Z" fill="#F6F0F5"/>
<path d="M25.4338 22.4071C25.4338 23.3422 24.7163 24.1093 23.8263 24.1093C22.9432 24.1093 22.2257 23.3422 22.2257 22.4071C22.2257 21.4646 22.9432 20.7048 23.8263 20.7048C24.7163 20.7048 25.4338 21.4646 25.4338 22.4071Z" fill="white"/>
<path d="M30.6358 22.4071C30.6358 23.3422 29.9182 24.1093 29.0282 24.1093C28.1383 24.1093 27.4207 23.3422 27.4207 22.4071C27.4207 21.4646 28.1383 20.7048 29.0282 20.7048C29.9182 20.7048 30.6358 21.4646 30.6358 22.4071Z" fill="white"/>
<path d="M56.5905 22.4071C56.5905 23.3422 55.8729 24.1093 54.983 24.1093H40.9638C40.0808 24.1093 39.3632 23.3422 39.3632 22.4071C39.3632 21.4646 40.0808 20.7048 40.9638 20.7048H54.983C55.8729 20.7048 56.5905 21.4646 56.5905 22.4071Z" fill="white"/>
<path d="M35.8308 22.4071C35.8308 23.3422 35.1133 24.1093 34.2302 24.1093C33.3402 24.1093 32.6227 23.3422 32.6227 22.4071C32.6227 21.4646 33.3402 20.7048 34.2302 20.7048C35.1133 20.7048 35.8308 21.4646 35.8308 22.4071Z" fill="white"/>
<path d="M40.5287 42.9367V39.493C40.5287 39.3642 40.4429 39.2532 40.3236 39.2278L39.0262 38.952C38.9356 38.9327 38.8634 38.8622 38.8356 38.7689C38.7027 38.3222 38.5363 37.8914 38.3357 37.4819C38.2933 37.3952 38.2973 37.292 38.3484 37.2107L39.0795 36.0475C39.1469 35.9402 39.1336 35.7975 39.0475 35.7064L36.748 33.2713C36.662 33.1802 36.5272 33.166 36.4259 33.2374L35.3275 34.0116C35.2507 34.0658 35.1532 34.07 35.0713 34.0251C34.6846 33.8127 34.2778 33.6365 33.856 33.4957C33.7679 33.4663 33.7013 33.3899 33.6831 33.2939L33.4226 31.9201C33.3986 31.7938 33.2939 31.7029 33.1722 31.7029H29.9202C29.7985 31.7029 29.6937 31.7938 29.6698 31.9201L29.4093 33.2939C29.3911 33.3899 29.3245 33.4663 29.2364 33.4957C28.8145 33.6365 28.4078 33.8127 28.0211 34.0251C27.9391 34.07 27.8417 34.0658 27.7649 34.0116L26.6665 33.2374C26.5652 33.166 26.4304 33.1802 26.3444 33.2713L24.0449 35.7064C23.9588 35.7975 23.9454 35.9402 24.0128 36.0475L24.744 37.2107C24.7951 37.292 24.7991 37.3952 24.7567 37.4819C24.5561 37.8914 24.3897 38.3222 24.2568 38.7689C24.229 38.8622 24.1568 38.9327 24.0662 38.952L22.7688 39.2278C22.6495 39.2532 22.5637 39.3642 22.5637 39.493V42.9367C22.5637 43.0656 22.6495 43.1765 22.7688 43.2019L24.0662 43.4777C24.1568 43.497 24.229 43.5675 24.2568 43.6608C24.3897 44.1075 24.5561 44.5383 24.7567 44.9478C24.7991 45.0345 24.7951 45.1377 24.744 45.219L24.0128 46.3822C23.9454 46.4895 23.9588 46.6322 24.0449 46.7233L26.3444 49.1584C26.4304 49.2495 26.5652 49.2637 26.6665 49.1923L27.7649 48.4181C27.8417 48.3639 27.9391 48.3596 28.0211 48.4046C28.4078 48.617 28.8145 48.7932 29.2364 48.934C29.3245 48.9634 29.3911 49.0398 29.4093 49.1358L29.6698 50.5096C29.6937 50.6359 29.7985 50.7268 29.9202 50.7268H33.1722C33.2939 50.7268 33.3986 50.6359 33.4226 50.5096L33.6831 49.1358C33.7013 49.0398 33.7679 48.9634 33.856 48.934C34.2778 48.7932 34.6846 48.617 35.0713 48.4046C35.1532 48.3596 35.2507 48.3639 35.3275 48.4181L36.4259 49.1923C36.5272 49.2637 36.662 49.2495 36.748 49.1584L39.0475 46.7233C39.1336 46.6322 39.1469 46.4895 39.0795 46.3822L38.3484 45.219C38.2973 45.1377 38.2933 45.0345 38.3357 44.9478C38.5363 44.5383 38.7027 44.1075 38.8356 43.6608C38.8634 43.5675 38.9356 43.497 39.0262 43.4777L40.3236 43.2019C40.4429 43.1765 40.5287 43.0656 40.5287 42.9367Z" fill="#8553E0"/>
<path d="M31.5465 46.2894C34.1933 46.2894 36.339 44.0173 36.339 41.2144C36.339 38.4116 34.1933 36.1394 31.5465 36.1394C28.8997 36.1394 26.754 38.4116 26.754 41.2144C26.754 44.0173 28.8997 46.2894 31.5465 46.2894Z" fill="white"/>
<path d="M54.3067 35.319H43.7915C43.2976 35.319 42.8972 34.895 42.8972 34.3719V34.221C42.8972 33.6979 43.2976 33.2739 43.7915 33.2739H54.3067C54.8006 33.2739 55.201 33.6979 55.201 34.221V34.3719C55.201 34.895 54.8006 35.319 54.3067 35.319Z" fill="#E1D9E1"/>
<path d="M54.3067 39.3014H43.7915C43.2976 39.3014 42.8972 38.8774 42.8972 38.3544V38.2034C42.8972 37.6804 43.2976 37.2563 43.7915 37.2563H54.3067C54.8006 37.2563 55.201 37.6804 55.201 38.2034V38.3544C55.201 38.8774 54.8006 39.3014 54.3067 39.3014Z" fill="#E1D9E1"/>
<path d="M38.9517 56.5392H24.2413C23.7473 56.5392 23.3469 56.1152 23.3469 55.5921V55.4412C23.3469 54.9182 23.7473 54.4941 24.2413 54.4941H38.9517C39.4456 54.4941 39.846 54.9182 39.846 55.4412V55.5921C39.846 56.1152 39.4456 56.5392 38.9517 56.5392Z" fill="#E1D9E1"/>
<path d="M54.3067 43.2836H43.7915C43.2976 43.2836 42.8972 42.8596 42.8972 42.3365V42.1856C42.8972 41.6625 43.2976 41.2385 43.7915 41.2385H54.3067C54.8006 41.2385 55.201 41.6625 55.201 42.1856V42.3365C55.201 42.8596 54.8006 43.2836 54.3067 43.2836Z" fill="#E1D9E1"/>
<g opacity="0.1">
<path d="M57.7607 53.3981V57.61C57.7607 59.1053 56.6153 60.3099 55.211 60.3099H51.367L48.629 58.5654C48.5114 58.4906 48.3623 58.4491 48.2054 58.4491C48.0406 58.4491 47.8602 58.4906 47.6798 58.5736C46.5972 59.1136 45.3577 59.4044 44.1338 59.4044C43.1768 59.4044 42.2432 59.23 41.3488 58.881C38.0931 57.693 35.8024 54.586 35.5592 50.9806C35.5121 50.3908 35.7083 49.8009 36.077 49.3772C36.4457 48.9536 36.9713 48.7126 37.5126 48.7126C37.8656 48.7126 38.2187 48.8206 38.5247 49.0118L42.0549 51.2631L44.1495 50.2246L44.024 47.7656L40.5016 45.5226C39.8504 45.1072 39.4817 44.318 39.5602 43.5122C39.6386 42.7562 40.0858 42.1331 40.7448 41.859C41.8352 41.3605 42.9884 41.1113 44.173 41.1113C45.7342 41.1113 47.264 41.5599 48.6055 42.4156C51.0218 43.9525 52.5908 46.6524 52.7947 49.6431C52.8026 49.9006 52.8654 50.2745 53.2105 50.4988L57.7607 53.3981Z" fill="#103635"/>
</g>
<path d="M47.05 57.0522C47.8327 56.688 48.7115 56.6794 49.441 57.1438L62.6383 65.563C64.0002 66.4315 65.7692 65.9656 66.5883 64.5227C67.4065 63.0814 66.9672 61.2107 65.6068 60.3432L52.4055 51.9216C51.676 51.4572 51.2621 50.6469 51.2278 49.7626C51.0661 47.3881 49.8416 45.1363 47.7989 43.836C45.7709 42.545 43.3565 42.4594 41.3325 43.4005C41.058 43.4993 41.0489 43.9352 41.3115 44.1023L45.3677 46.6843C45.4991 46.768 45.5515 46.8855 45.5572 47.0154L45.7555 50.9697C45.7729 51.149 45.6852 51.3036 45.5275 51.3713L42.1279 53.0565C42.0169 53.112 41.903 53.1027 41.7717 53.0191L37.7155 50.4371C37.4383 50.2606 37.0937 50.4828 37.1196 50.857C37.3131 53.6303 39.0276 56.2784 41.8909 57.3227C43.5838 57.9797 45.4495 57.8422 47.05 57.0522Z" fill="#014140"/>
<path d="M64.2255 64.5025C65.0005 64.5025 65.6288 63.8372 65.6288 63.0165C65.6288 62.1958 65.0005 61.5305 64.2255 61.5305C63.4505 61.5305 62.8223 62.1958 62.8223 63.0165C62.8223 63.8372 63.4505 64.5025 64.2255 64.5025Z" fill="white"/>
</svg>
