<svg width="84" height="84" viewBox="0 0 84 84" fill="none" xmlns="http://www.w3.org/2000/svg">
<rect width="84" height="84" rx="40" fill="#FF9E00" fill-opacity="0.22"/>
<path fill-rule="evenodd" clip-rule="evenodd" d="M56.8881 53.5398C56.8064 53.5398 56.7365 53.5283 56.6548 53.4937L56.3049 53.3668C55.4885 53.0669 54.5554 52.7324 53.6807 52.7324C52.841 52.7324 51.9429 53.0669 51.1498 53.3668L50.8699 53.4706C50.66 53.5514 50.4384 53.5283 50.2517 53.4129C50.0768 53.2976 49.9485 53.1015 49.9368 52.8824C49.9252 52.7901 49.9252 52.6863 49.9252 52.5825V49.6183C49.9252 49.2376 50.2284 48.9377 50.6133 48.9377H56.8997C57.2846 48.9377 57.5879 49.2376 57.5879 49.6183V52.5825C57.5879 52.6978 57.5879 52.8016 57.5762 52.9054C57.5645 53.1246 57.4363 53.3091 57.2613 53.4245C57.1447 53.4937 57.0164 53.5398 56.8881 53.5398Z" fill="#FFB762"/>
<path fill-rule="evenodd" clip-rule="evenodd" d="M48.8055 31.7751C48.7938 31.7751 48.7938 31.7751 48.7822 31.7751C48.3506 31.7635 47.9424 31.5905 47.6625 31.2791L43.4871 26.7232C43.3005 26.5271 43.2538 26.2387 43.3705 25.985C43.4754 25.7428 43.7204 25.5813 44.0003 25.5813H53.8906C54.1589 25.5813 54.4155 25.7428 54.5205 25.9965C54.6371 26.2503 54.5788 26.5386 54.3922 26.7347L49.9602 31.2906C49.6569 31.6021 49.237 31.7751 48.8055 31.7751Z" fill="#71C138"/>
<path fill-rule="evenodd" clip-rule="evenodd" d="M42.2274 53.6321H20.4173C19.8575 53.6321 19.4026 53.1938 19.4026 52.6402V46.2158C19.4026 42.1212 22.7732 38.7878 26.9137 38.7878H28.2433C28.8031 38.7878 29.2463 39.2377 29.2463 39.7798V42.2019C29.2463 43.3322 30.1794 44.255 31.3223 44.255C32.4653 44.255 33.3867 43.3322 33.3867 42.2019V39.7798C33.3867 39.2377 33.8416 38.7878 34.3898 38.7878H35.7194C39.8714 38.7878 43.2304 42.1212 43.2304 46.2158V52.6402C43.2304 53.1938 42.7756 53.6321 42.2274 53.6321Z" fill="#8F46DA"/>
<path fill-rule="evenodd" clip-rule="evenodd" d="M31.3223 46.2388C29.0714 46.2388 27.2402 44.428 27.2402 42.2019V37.6921C27.2402 37.3461 27.4268 37.0116 27.7301 36.8271C28.0333 36.6541 28.4066 36.6425 28.7215 36.8155C30.3076 37.6691 32.3254 37.6691 33.9116 36.8155C34.2265 36.6425 34.5997 36.6541 34.9029 36.8271C35.2062 37.0116 35.3928 37.3346 35.3928 37.6921V42.2019C35.4045 44.428 33.5733 46.2388 31.3223 46.2388Z" fill="#FFB762"/>
<path fill-rule="evenodd" clip-rule="evenodd" d="M31.3224 39.4683C27.217 39.4683 23.8696 36.1581 23.8696 32.0981V28.5225C23.8696 27.9689 24.3245 27.5306 24.8727 27.5306H36.1043C36.4775 27.5306 36.8274 27.4037 37.1307 27.1846C37.4222 26.9654 37.8188 26.9193 38.1453 27.0577C38.4836 27.2077 38.7052 27.5191 38.7518 27.8766C38.7635 28.0958 38.7752 28.3034 38.7752 28.5225V32.0981C38.7635 36.1581 35.4278 39.4683 31.3224 39.4683Z" fill="#FFC06D"/>
<path fill-rule="evenodd" clip-rule="evenodd" d="M36.1043 29.5143H24.8727C24.3245 29.5143 23.8696 29.076 23.8696 28.5224V25.858C23.8696 23.828 25.5258 22.1902 27.5669 22.1902H38.7985C39.3583 22.1902 39.8015 22.64 39.8015 23.1821V25.858C39.8015 27.8765 38.1453 29.5143 36.1043 29.5143Z" fill="#453333"/>
<path fill-rule="evenodd" clip-rule="evenodd" d="M25.899 53.632C25.3391 53.632 24.8843 53.1937 24.8843 52.64V48.6262C24.8843 48.0726 25.3391 47.6343 25.899 47.6343C26.4471 47.6343 26.902 48.0726 26.902 48.6262V52.64C26.902 53.1937 26.4471 53.632 25.899 53.632Z" fill="#7439B0"/>
<path fill-rule="evenodd" clip-rule="evenodd" d="M36.7458 53.632C36.1859 53.632 35.7311 53.1937 35.7311 52.64V48.6262C35.7311 48.0726 36.1859 47.6343 36.7458 47.6343C37.2939 47.6343 37.7488 48.0726 37.7488 48.6262V52.64C37.7488 53.1937 37.2939 53.632 36.7458 53.632Z" fill="#7439B0"/>
<path d="M30.3959 36.9388C30.3959 37.4903 30.8114 37.9374 31.3239 37.9374C31.8365 37.9374 32.252 37.4903 32.252 36.9388C32.252 36.3873 31.8365 35.9402 31.3239 35.9402C30.8114 35.9402 30.3959 36.3873 30.3959 36.9388Z" fill="#C7553A"/>
<path d="M34.5764 33.6898C35.2141 33.6898 35.7311 33.2819 35.7311 32.7786C35.7311 32.2754 35.2141 31.8674 34.5764 31.8674C33.9387 31.8674 33.4218 32.2754 33.4218 32.7786C33.4218 33.2819 33.9387 33.6898 34.5764 33.6898Z" fill="#453333"/>
<path fill-rule="evenodd" clip-rule="evenodd" d="M34.5764 31.8674C35.2062 31.8674 35.7194 32.2827 35.7194 32.7786V32.8132C35.6844 32.8132 35.6494 32.8132 35.6028 32.8132C34.973 32.8132 34.4481 32.4095 34.4481 31.902C34.4481 31.8905 34.4481 31.879 34.4598 31.879C34.4948 31.8674 34.5298 31.8674 34.5764 31.8674Z" fill="white"/>
<path d="M32.9785 31.1292C32.8502 31.2214 32.8152 31.3945 32.9086 31.5213C33.0019 31.6482 33.1768 31.6828 33.3051 31.5905C33.3051 31.5905 34.3548 30.8293 35.8827 31.6136C36.0226 31.6828 36.1859 31.6251 36.2559 31.4867C36.3259 31.3483 36.2792 31.1868 36.1392 31.1061C34.2965 30.1718 32.9785 31.1292 32.9785 31.1292Z" fill="#453333"/>
<path d="M28.0683 33.6898C28.706 33.6898 29.223 33.2819 29.223 32.7786C29.223 32.2754 28.706 31.8674 28.0683 31.8674C27.4307 31.8674 26.9137 32.2754 26.9137 32.7786C26.9137 33.2819 27.4307 33.6898 28.0683 33.6898Z" fill="#453333"/>
<path fill-rule="evenodd" clip-rule="evenodd" d="M28.0683 31.8674C28.7098 31.8674 29.2229 32.2827 29.2229 32.7786V32.8132C29.188 32.8132 29.1413 32.8132 29.1063 32.8132C28.4648 32.8132 27.9517 32.4095 27.9517 31.902C27.9517 31.8905 27.9517 31.879 27.9517 31.879C27.9983 31.8674 28.0333 31.8674 28.0683 31.8674Z" fill="white"/>
<path d="M26.4705 31.1292C26.3538 31.2214 26.3189 31.3945 26.4122 31.5213C26.5055 31.6482 26.6804 31.6828 26.8087 31.5905C26.8087 31.5905 27.8467 30.8293 29.3746 31.6136C29.5146 31.6828 29.6895 31.6251 29.7595 31.4867C29.8295 31.3483 29.7828 31.1868 29.6429 31.1061C27.8001 30.1718 26.4821 31.1292 26.4705 31.1292Z" fill="#453333"/>
<path fill-rule="evenodd" clip-rule="evenodd" d="M43.3354 58.7416H18.8778C17.8397 58.7416 17 57.9111 17 56.8961V54.1164C17 53.1014 17.8397 52.271 18.8778 52.271H50.7882C51.1264 52.271 51.4063 52.5132 51.4647 52.8477C51.523 53.1707 51.3364 53.4936 51.0098 53.6089C50.6249 53.7358 50.1817 53.8742 49.7502 53.8742C47.0676 53.8742 44.7 55.662 44.0002 58.2341C43.9303 58.534 43.6503 58.7416 43.3354 58.7416Z" fill="#C06000"/>
<path fill-rule="evenodd" clip-rule="evenodd" d="M63.0345 26.9539H43.2538C42.8806 26.9539 42.5657 26.6424 42.5657 26.2618V20.9216C42.5657 18.7532 44.3501 17 46.5312 17H63.0345C65.2155 17 67 18.7532 67 20.9216V23.0323C67 25.1892 65.2155 26.9539 63.0345 26.9539Z" fill="#7DD63E"/>
<path fill-rule="evenodd" clip-rule="evenodd" d="M63.3028 21.0945H46.2512C45.8664 21.0945 45.5631 20.7831 45.5631 20.4024C45.5631 20.0218 45.8664 19.7219 46.2512 19.7219H63.3028C63.6877 19.7219 63.9909 20.0218 63.9909 20.4024C63.9909 20.7831 63.6877 21.0945 63.3028 21.0945Z" fill="#333333"/>
<path fill-rule="evenodd" clip-rule="evenodd" d="M63.3028 24.2319H46.2512C45.8664 24.2319 45.5631 23.9205 45.5631 23.5399C45.5631 23.1593 45.8664 22.8594 46.2512 22.8594H63.3028C63.6877 22.8594 63.9909 23.1593 63.9909 23.5399C63.9909 23.9205 63.6877 24.2319 63.3028 24.2319Z" fill="#333333"/>
<path fill-rule="evenodd" clip-rule="evenodd" d="M64.9006 66.9999H42.624C42.2391 66.9999 41.9242 66.6885 41.9242 66.3194V59.745C41.9242 55.7427 45.2132 52.5017 49.2603 52.5017C49.5752 52.5017 50.1001 52.2941 50.6716 52.0864C51.523 51.7635 52.5843 51.3713 53.6807 51.3713C54.8003 51.3713 55.8967 51.7635 56.7831 52.0864C57.3662 52.2941 57.9261 52.5017 58.2526 52.5017C62.2997 52.5017 65.5888 55.7427 65.5888 59.745V66.3194C65.5888 66.6885 65.2855 66.9999 64.9006 66.9999Z" fill="#E93459"/>
<path fill-rule="evenodd" clip-rule="evenodd" d="M59.9905 67.0001H58.6025V62.2135C58.6025 61.8328 58.9174 61.533 59.3023 61.533C59.6872 61.533 59.9905 61.8328 59.9905 62.2135V67.0001Z" fill="#BD2A48"/>
<path fill-rule="evenodd" clip-rule="evenodd" d="M48.9104 67.0001H47.5225V62.2135C47.5225 61.8328 47.8374 61.533 48.2223 61.533C48.6071 61.533 48.9104 61.8328 48.9104 62.2135V67.0001Z" fill="#BD2A48"/>
<path fill-rule="evenodd" clip-rule="evenodd" d="M60.5036 50.2987H47.0093C45.4465 50.2987 44.1752 49.0415 44.1752 47.4959C44.1752 46.2849 44.9916 45.2237 46.1113 44.8431V40.564C46.1113 36.5617 49.4003 33.3091 53.4474 33.3091H54.0772C58.1243 33.3091 61.4133 36.5617 61.4133 40.564V44.8431C62.5447 45.2237 63.3494 46.2849 63.3494 47.4959C63.3378 49.0415 62.0665 50.2987 60.5036 50.2987Z" fill="#453333"/>
</svg>
