<svg width="84" height="84" viewBox="0 0 84 84" fill="none" xmlns="http://www.w3.org/2000/svg">
<rect width="84" height="84" rx="40" fill="#FF9E00" fill-opacity="0.22"/>
<path d="M60.5735 23.7943V61.8458C60.5735 63.2428 59.4338 64.3752 58.0368 64.3752H26.9926C25.5956 64.3752 24.4632 63.2428 24.4632 61.8458V23.7943C24.4632 22.3972 25.5956 21.2649 26.9926 21.2649H58.0368C59.4338 21.2649 60.5735 22.3972 60.5735 23.7943Z" fill="#3C5056"/>
<path d="M62.772 26.0001V64.0443C62.772 65.4413 61.6397 66.581 60.2426 66.581H29.1985C27.8014 66.581 26.6617 65.4413 26.6617 64.0443V26.0001C26.6617 24.6031 27.8014 23.4634 29.1985 23.4634H60.2426C61.6397 23.4634 62.772 24.6031 62.772 26.0001Z" fill="#495E66"/>
<path d="M60.1544 27.6104V57.1693V63.9487H30.8088C29.9706 63.9487 29.2867 63.2648 29.2867 62.4266V27.6104C29.2867 26.7722 29.9706 26.0884 30.8088 26.0884H58.6323C59.4706 26.0884 60.1544 26.7722 60.1544 27.6104Z" fill="white"/>
<path d="M53.5147 24.8089V26.1177C53.5147 26.7648 52.9853 27.2942 52.3309 27.2942H37.1029C36.4485 27.2942 35.9265 26.7648 35.9265 26.1177V24.8089C35.9265 23.6765 36.8456 22.7501 37.9779 22.7501H41.8162V22.331C41.8162 20.728 43.1103 19.4192 44.7206 19.4192C45.522 19.4192 46.2573 19.7574 46.7794 20.2721C47.3015 20.7942 47.6323 21.5295 47.6323 22.331V22.7501H51.4559C52.5882 22.7501 53.5147 23.6765 53.5147 24.8089Z" fill="#FBE063"/>
<path d="M44.7206 21.3972C45.2647 21.3972 45.6985 21.8384 45.6985 22.3752C45.6985 22.9193 45.2573 23.3531 44.7206 23.3531C44.1691 23.3531 43.7279 22.9119 43.7279 22.3752C43.7353 21.8384 44.1691 21.3972 44.7206 21.3972Z" fill="white"/>
<path d="M71.3088 38.8162L61.4632 56.875L55.2353 53.478L65.0882 35.4265C65.5882 34.5147 66.7279 34.1765 67.6397 34.6692L70.5662 36.2647C71.4706 36.7647 71.8088 37.9118 71.3088 38.8162Z" fill="#8F90FB"/>
<path d="M61.4632 56.8751L56.5588 59.8383C56.0588 60.1398 55.4265 59.7942 55.4044 59.206L55.2426 53.478L61.4632 56.8751Z" fill="#FBE063"/>
<path d="M55.3456 57.3384L55.3971 59.2134C55.4191 59.7943 56.0515 60.1398 56.5515 59.8457L58.1544 58.8751L55.3456 57.3384Z" fill="#495E66"/>
<path d="M61.8456 49.1323C61.7868 49.1323 61.7279 49.1176 61.6691 49.0882C61.4927 48.9926 61.4265 48.7647 61.5221 48.5882L65.7647 40.8088C65.8603 40.6323 66.0882 40.5661 66.2647 40.6617C66.4412 40.7573 66.5074 40.9852 66.4118 41.1617L62.1691 48.9411C62.1029 49.0661 61.9779 49.1323 61.8456 49.1323Z" fill="#5B52C5"/>
<path d="M38.8971 44.4633V48.0662C38.8971 48.7133 38.375 49.2354 37.7279 49.2354H34.125C33.4853 49.2354 32.9632 48.7133 32.9632 48.0662V44.4633C32.9632 43.8162 33.4853 43.2942 34.125 43.2942H37.7279C38.375 43.2942 38.8971 43.8162 38.8971 44.4633Z" fill="#54E28E"/>
<path d="M56.478 43.9338H47.9044C47.6985 43.9338 47.5368 43.772 47.5368 43.5661C47.5368 43.3603 47.6985 43.1985 47.9044 43.1985H56.478C56.6838 43.1985 56.8456 43.3603 56.8456 43.5661C56.8456 43.772 56.6838 43.9338 56.478 43.9338Z" fill="#E2E2E0"/>
<path d="M46 43.9338H43.3676C43.1618 43.9338 43 43.772 43 43.5661C43 43.3603 43.1618 43.1985 43.3676 43.1985H46C46.2059 43.1985 46.3676 43.3603 46.3676 43.5661C46.3676 43.772 46.2059 43.9338 46 43.9338Z" fill="#E2E2E0"/>
<path d="M56.4779 46.6323H54.3676C54.1618 46.6323 54 46.4705 54 46.2646C54 46.0587 54.1618 45.897 54.3676 45.897H56.4779C56.6838 45.897 56.8456 46.0587 56.8456 46.2646C56.8456 46.4705 56.6838 46.6323 56.4779 46.6323Z" fill="#E2E2E0"/>
<path d="M52.4338 46.6323H43.3676C43.1618 46.6323 43 46.4705 43 46.2646C43 46.0587 43.1618 45.897 43.3676 45.897H52.4338C52.6397 45.897 52.8015 46.0587 52.8015 46.2646C52.8015 46.4705 52.6397 46.6323 52.4338 46.6323Z" fill="#E2E2E0"/>
<path d="M51.6397 49.3308H43.3676C43.1618 49.3308 43 49.169 43 48.9631C43 48.7572 43.1618 48.5955 43.3676 48.5955H51.6397C51.8456 48.5955 52.0074 48.7572 52.0074 48.9631C52.0074 49.169 51.8456 49.3308 51.6397 49.3308Z" fill="#E2E2E0"/>
<path d="M38.8971 53.1249V56.7279C38.8971 57.3749 38.375 57.897 37.7279 57.897H34.125C33.4853 57.897 32.9632 57.3749 32.9632 56.7279V53.1249C32.9632 52.4779 33.4853 51.9558 34.125 51.9558H37.7279C38.375 51.9558 38.8971 52.4779 38.8971 53.1249Z" fill="#54E28E"/>
<path d="M52.1912 52.603H47.9044C47.6985 52.603 47.5368 52.4412 47.5368 52.2353C47.5368 52.0294 47.6985 51.8677 47.9044 51.8677H52.1912C52.3971 51.8677 52.5588 52.0294 52.5588 52.2353C52.5588 52.4412 52.3897 52.603 52.1912 52.603Z" fill="#E2E2E0"/>
<path d="M46 52.603H43.3676C43.1618 52.603 43 52.4412 43 52.2353C43 52.0294 43.1618 51.8677 43.3676 51.8677H46C46.2059 51.8677 46.3676 52.0294 46.3676 52.2353C46.3676 52.4412 46.2059 52.603 46 52.603Z" fill="#E2E2E0"/>
<path d="M50.5956 55.2941H43.3676C43.1618 55.2941 43 55.1324 43 54.9265C43 54.7206 43.1618 54.5588 43.3676 54.5588H50.5956C50.8015 54.5588 50.9632 54.7206 50.9632 54.9265C50.9632 55.1324 50.8015 55.2941 50.5956 55.2941Z" fill="#E2E2E0"/>
<path d="M48.4853 57.9926H43.3676C43.1618 57.9926 43 57.8309 43 57.625C43 57.4191 43.1618 57.2573 43.3676 57.2573H48.4853C48.6912 57.2573 48.8529 57.4191 48.8529 57.625C48.8529 57.8309 48.6838 57.9926 48.4853 57.9926Z" fill="#E2E2E0"/>
<path d="M35.4779 47.3749C35.3823 47.3749 35.2867 47.3381 35.2206 47.2646L34.6176 46.6616C34.4706 46.5146 34.4706 46.2866 34.6176 46.1396C34.7647 45.9925 34.9926 45.9925 35.1397 46.1396L35.4853 46.4852L36.7059 45.2646C36.8529 45.1175 37.0809 45.1175 37.2279 45.2646C37.375 45.4116 37.375 45.6396 37.2279 45.7866L35.7426 47.2646C35.6691 47.3308 35.5735 47.3749 35.4779 47.3749Z" fill="white"/>
<path d="M38.2941 32.3088V33.1177H36.0147V39.0735H35.0882V33.1177H32.8088V32.3088H38.2941Z" fill="#5B52C5"/>
<path d="M39.2206 32.3088H44.1544V33.1397H40.1176V35.1912H43.8529V35.9706H40.1176V38.2647H44.2279V39.0735H39.2279V32.3088H39.2206Z" fill="#5B52C5"/>
<path d="M46.022 36.8897C46.0441 37.272 46.1323 37.5882 46.2941 37.8235C46.5956 38.272 47.1323 38.4926 47.9044 38.4926C48.25 38.4926 48.5588 38.4411 48.8456 38.3456C49.3897 38.1544 49.6617 37.8161 49.6617 37.3235C49.6617 36.9559 49.5441 36.6911 49.3161 36.5367C49.0809 36.3823 48.7206 36.25 48.2206 36.1397L47.3014 35.9338C46.7059 35.8014 46.2794 35.647 46.0294 35.4853C45.6029 35.2059 45.3823 34.7794 45.3823 34.2206C45.3823 33.6103 45.5956 33.1176 46.0147 32.7206C46.4338 32.3309 47.0294 32.1323 47.8014 32.1323C48.5073 32.1323 49.1103 32.3014 49.6103 32.647C50.1029 32.9926 50.3529 33.5367 50.3529 34.2867H49.4926C49.4485 33.9264 49.3456 33.647 49.1985 33.4559C48.9191 33.1029 48.4485 32.9264 47.7794 32.9264C47.2426 32.9264 46.8529 33.0367 46.6176 33.2647C46.3823 33.4926 46.2647 33.7573 46.2647 34.0588C46.2647 34.3897 46.4044 34.6323 46.6764 34.7867C46.8603 34.8823 47.2647 35.0073 47.9044 35.1544L48.8529 35.3676C49.3088 35.4706 49.6617 35.6176 49.9117 35.7941C50.3382 36.1103 50.5588 36.5661 50.5588 37.1691C50.5588 37.9191 50.2867 38.4559 49.7426 38.7794C49.1985 39.1029 48.5661 39.2647 47.8456 39.2647C47.0073 39.2647 46.3456 39.0514 45.8676 38.6176C45.3897 38.1911 45.1617 37.6103 45.1691 36.8823H46.022V36.8897Z" fill="#5B52C5"/>
<path d="M56.6323 32.3088V33.1177H54.3529V39.0735H53.4264V33.1177H51.147V32.3088H56.6323Z" fill="#5B52C5"/>
<path d="M62.9873 39.2861L63.8749 37.6593L70.0984 41.0545L69.2108 42.6814L62.9873 39.2861Z" fill="#EFEFED"/>
<path d="M70.0882 41.0589L71.3088 38.8236C71.8088 37.9119 71.4706 36.7648 70.5588 36.2722L67.6323 34.6766C66.7206 34.1766 65.5809 34.5222 65.0809 35.4339L63.8603 37.6692L70.0882 41.0589Z" fill="#54E28E"/>
</svg>
