<svg width="100" height="100" viewBox="0 0 100 100" fill="none" xmlns="http://www.w3.org/2000/svg">
<path fill-rule="evenodd" clip-rule="evenodd" d="M54.5122 6.09944L86.9926 24.7662C89.5462 26.2321 91 28.7451 91 31.6769V69.0008C91 71.9327 89.5367 74.4457 86.9926 75.9116L54.5122 94.5783C51.9586 96.0442 49.0414 96.0442 46.4878 94.5783L14.0074 75.9116C11.4538 74.4457 10 71.9327 10 69.0008V31.6769C10 28.7451 11.4633 26.2321 14.0074 24.7662L46.4878 6.09944C49.0414 4.63352 51.9586 4.63352 54.5122 6.09944Z" fill="#FF6D00"/>
<path fill-rule="evenodd" clip-rule="evenodd" d="M32.1317 58.178C32.4377 58.178 32.7342 58.2256 33.0116 58.3113C33.6715 57.2166 34.8671 56.4836 36.2443 56.4836C38.3006 56.4836 39.9648 58.1209 40.0031 60.158H40.137C41.1986 60.158 42.0594 61.0147 42.0594 62.0713C42.0594 63.1279 41.1986 63.9846 40.137 63.9846C39.4962 63.9846 38.9223 63.6705 38.5684 63.185C37.9276 63.6895 37.1242 63.9846 36.2443 63.9846C35.4218 63.9846 34.6566 63.7181 34.0445 63.2707C33.5376 63.7085 32.8681 63.9846 32.1317 63.9846C30.5249 63.9846 29.2241 62.69 29.2241 61.0908C29.2241 59.4916 30.5249 58.1971 32.1317 58.1971V58.178Z" fill="#ECF0F1"/>
<path fill-rule="evenodd" clip-rule="evenodd" d="M84.8311 42.957C84.4199 42.957 84.0277 43.0237 83.6547 43.1379C82.7844 41.6815 81.1776 40.7106 79.3508 40.7106C76.6154 40.7106 74.3965 42.8904 74.3391 45.6033C74.2817 45.6033 74.2243 45.5938 74.1574 45.5938C72.7418 45.5938 71.6037 46.7361 71.6037 48.1354C71.6037 49.5442 72.7514 50.6769 74.1574 50.6769C75.0182 50.6769 75.7737 50.2581 76.2424 49.6108C77.0936 50.2771 78.1744 50.6769 79.3412 50.6769C80.4411 50.6769 81.4549 50.3247 82.2774 49.7346C82.9565 50.3247 83.846 50.6769 84.8216 50.6769C86.964 50.6769 88.6951 48.954 88.6951 46.8218C88.6951 44.6895 86.964 42.9666 84.8216 42.9666L84.8311 42.957Z" fill="#ECF0F1"/>
<path fill-rule="evenodd" clip-rule="evenodd" d="M53.3644 14.324L56.9223 21.9201C56.4632 27.0794 50.7342 33.1049 43.781 35.8273C37.1529 38.426 29.3676 37.931 25.9627 34.7136L22.816 27.1365L39.4579 25.8229L53.3644 14.3335V14.324Z" fill="#596366"/>
<path fill-rule="evenodd" clip-rule="evenodd" d="M12.7162 28.3357L12.6301 28.1358L32.7247 9.34532L60.289 8.82178L60.3751 9.02168L40.5579 28.488L12.7162 28.3357Z" fill="#C6CBD6"/>
<path fill-rule="evenodd" clip-rule="evenodd" d="M23.9447 49.4683L22.5961 58.0735C22.577 58.2163 23.0457 58.4067 23.2752 58.1211C23.5717 58.4733 23.9638 58.3305 24.0882 58.083C24.2412 58.3305 24.5855 58.4638 24.8438 58.0925C25.0733 58.3686 25.5802 58.1782 25.542 57.9402L24.203 49.4493C24.1647 49.3256 23.9734 49.3446 23.9543 49.4588L23.9447 49.4683Z" fill="white"/>
<path fill-rule="evenodd" clip-rule="evenodd" d="M12.6301 28.1358L32.6099 9.05975L60.289 8.82178L40.3092 27.8883L12.6301 28.1358Z" fill="#6C7678"/>
<path fill-rule="evenodd" clip-rule="evenodd" d="M36.5889 18.3215C36.7132 18.2168 36.9045 18.2359 37.0002 18.3691C37.1054 18.4929 37.0862 18.6832 36.9523 18.7784L23.5049 29.5729L24.337 49.4676C24.3944 49.6199 24.3275 49.7913 24.1744 49.8484C24.0214 49.9055 23.8492 49.8388 23.7919 49.6865L22.8833 29.5825C22.8354 29.4682 22.8641 29.3255 22.9693 29.2398L36.5889 18.3025V18.3215Z" fill="white"/>
<path fill-rule="evenodd" clip-rule="evenodd" d="M24.059 48.1259C24.7954 48.1259 25.398 48.7255 25.398 49.4585C25.398 50.1915 24.7954 50.7912 24.059 50.7912C23.3225 50.7912 22.72 50.1915 22.72 49.4585C22.72 48.7255 23.3225 48.1259 24.059 48.1259Z" fill="#FFE356"/>
<path fill-rule="evenodd" clip-rule="evenodd" d="M25.1495 49.1157C25.1495 49.6773 24.7957 50.1437 24.2983 50.3246C24.1644 50.3722 24.0114 50.4007 23.8584 50.4007C23.8488 50.4007 23.8392 50.4007 23.8297 50.4007C23.3897 50.3912 23.0071 50.1628 22.7776 49.8201C22.9115 50.2865 23.2941 50.6482 23.7723 50.7529C23.8679 50.772 23.9636 50.7815 24.0592 50.7815C24.1644 50.7815 24.2601 50.772 24.3557 50.7434C24.9487 50.6102 25.3982 50.0771 25.3982 49.4488C25.3982 49.0681 25.2356 48.7254 24.9869 48.4874C25.0921 48.6683 25.1495 48.8872 25.1495 49.1157Z" fill="#FCD34E"/>
<path fill-rule="evenodd" clip-rule="evenodd" d="M46.3442 46.6504L53.1061 42.4525C54.053 42.4716 54.3304 44.0231 53.6322 44.8894L47.6545 48.7541L46.3442 46.6409V46.6504Z" fill="#F0B97D"/>
<path fill-rule="evenodd" clip-rule="evenodd" d="M48.525 39.7297L43.7716 47.0879C43.609 47.3449 43.5707 47.6305 43.6568 47.9161L46.8417 57.9776L48.6207 51.381L47.2147 47.0594L50.3518 41.4717C51.0022 40.0439 49.4432 38.5494 48.525 39.7297Z" fill="#FED198"/>
<path fill-rule="evenodd" clip-rule="evenodd" d="M59.8684 52.5619L59.3041 56.1601L59.0842 57.5689L53.3169 55.5414L60.1649 65.7076L61.8865 79.5863C62.1256 79.3959 61.7239 66.9166 61.9343 66.6215C62.709 65.4792 63.2542 63.5659 63.522 60.7483L63.4837 55.9317L63.4455 53.3711L64.0289 50.6296C62.5751 49.83 60.4519 50.6296 59.8876 52.5619H59.8684Z" fill="#F0B97D"/>
<path fill-rule="evenodd" clip-rule="evenodd" d="M46.6503 57.7972L48.6205 49.6109C48.697 49.2872 48.8979 49.0302 49.2135 48.8969L55.3442 46.4315C56.1476 46.8789 56.4441 47.3263 55.7937 48.6875L52.4462 50.42L53.307 55.5317C59.2177 58.7015 61.1115 62.4424 60.748 67.0877C60.9489 71.1618 61.6758 75.5025 61.8766 79.5766L51.9393 79.8336L54.1678 69.1723L46.8128 58.5587C46.6503 58.3302 46.5833 58.0637 46.6503 57.7877V57.7972Z" fill="#FED198"/>
<path fill-rule="evenodd" clip-rule="evenodd" d="M43.6951 38.6545L43.7716 47.0693L46.0096 43.5948L45.7418 39.2066C45.7418 39.2066 44.9958 37.4551 43.6855 38.6545H43.6951Z" fill="#FED198"/>
<path fill-rule="evenodd" clip-rule="evenodd" d="M48.6399 77.1777H66.1904L66.3625 87.7628L54.5124 94.5689C52.5612 95.6921 50.3997 95.9492 48.3434 95.359L48.6399 77.1682V77.1777Z" fill="#83CF8F"/>
<path fill-rule="evenodd" clip-rule="evenodd" d="M50.4377 77.1779H64.392V73.8273H50.4377V77.1779Z" fill="white"/>
<path fill-rule="evenodd" clip-rule="evenodd" d="M43.781 39.9953L43.7524 38.7019C43.7524 38.7019 44.3449 38.5592 44.3926 38.8635C44.4404 39.1584 44.4309 39.9953 44.4309 39.9953L43.781 40.0048V39.9953Z" fill="white"/>
<path fill-rule="evenodd" clip-rule="evenodd" d="M48.066 40.6144L48.8401 39.5682C48.8401 39.5682 49.3943 39.8155 49.251 40.0818C49.1076 40.3481 48.5916 41.0044 48.5916 41.0044L48.066 40.6144Z" fill="white"/>
<path fill-rule="evenodd" clip-rule="evenodd" d="M54.1487 47.1261L55.3241 46.5649C55.3241 46.5649 55.6968 47.05 55.4388 47.2117C55.1808 47.3829 54.4163 47.7062 54.4163 47.7062L54.1392 47.1166L54.1487 47.1261Z" fill="white"/>
<path fill-rule="evenodd" clip-rule="evenodd" d="M54.1775 35.3418L79.9724 19.0454C83.0617 18.0839 85.4432 24.2332 83.5208 25.2993L58.4241 41.7005C56.999 42.6334 54.914 40.4821 54.2253 38.0738C53.8619 36.7887 54.2253 36.7506 55.5739 35.8368L54.1775 35.3418Z" fill="white"/>
<path fill-rule="evenodd" clip-rule="evenodd" d="M71.1158 24.6519C73.2677 24.4806 75.8692 29.0783 75.1615 30.7631L71.6896 33.0286C71.8522 30.5632 69.4803 27.0507 67.2996 27.0602L71.1158 24.6519Z" fill="#FF6D00"/>
<path fill-rule="evenodd" clip-rule="evenodd" d="M80.087 33.1049L75.1614 30.7632L71.6895 33.0288L75.6874 35.9796L76.6534 33.4762L80.087 33.1049Z" fill="#F7635B"/>
<path fill-rule="evenodd" clip-rule="evenodd" d="M55.4114 35.9512L55.5739 35.837C56.7695 35.8085 59.7057 39.4447 57.7163 40.844C56.2913 41.8435 54.7992 38.6261 54.5984 37.4933C55.1627 36.8651 56.3487 38.7213 56.1191 38.8165L55.6792 39.0164C55.6792 39.0164 55.8896 39.8921 56.3582 39.854L58.0224 38.8736C58.0224 38.8736 57.286 36.3035 55.4018 35.9512H55.4114Z" fill="#DFE1E3"/>
</svg>
