<svg width="110" height="120" viewBox="0 0 110 120" fill="none" xmlns="http://www.w3.org/2000/svg">
<path fill-rule="evenodd" clip-rule="evenodd" d="M49.5861 0.484194C64.5994 0.371434 75.2589 13.537 85.9138 24.1296C96.628 34.7811 109.647 45.3939 109.964 60.5093C110.285 75.7957 98.4237 87.7959 87.4748 98.4522C76.7351 108.905 64.5591 118.958 49.5861 119.274C34.3699 119.596 19.806 111.798 10.0644 100.087C1.05585 89.2584 0.00268923 74.5864 0.699815 60.5093C1.35391 47.301 5.45276 34.9194 13.7992 24.6712C23.255 13.0608 34.6256 0.596558 49.5861 0.484194Z" fill="#DEC3F9"/>
<path d="M82.9975 61.6775C82.9975 57.4391 82.1031 53.4102 80.4957 49.7664L73.7352 41.585L65.3525 34.6305C61.7121 33.0267 57.6877 32.1344 53.4543 32.1344C47.3276 32.1344 41.6366 33.9996 36.9179 37.1928L36.4348 38.7189H34.8629C31.9614 41.0713 29.5152 43.9623 27.6755 47.2402L27.8993 49.2275L26.4761 49.6218C25.4808 51.8459 24.7533 54.2156 24.3325 56.69L25.3611 57.4724L23.9879 59.551C23.938 60.2534 23.9111 60.9624 23.9111 61.6775C23.9111 65.197 25.6569 71.7024 25.6569 71.7024L32.8976 80.2175L43.429 89.4747C46.5593 90.6039 49.9346 91.2207 53.4543 91.2207C58.0172 91.2207 62.3379 90.1856 66.1959 88.3385L66.6309 87.089H68.5276C71.7497 85.1736 74.5762 82.6633 76.856 79.7088L76.8705 77.6093H78.3377C79.9128 75.1542 81.133 72.4502 81.9296 69.5701L81.0506 68.1232L82.5895 66.584C82.8564 64.988 82.9975 63.3493 82.9975 61.6775Z" fill="#833FAF"/>
<path d="M65.1887 34.1509C64.4885 34.851 64.4885 35.9861 65.1887 36.6861L78.4347 49.9322C79.1348 50.6322 80.2698 50.6322 80.9699 49.9322C81.67 49.2321 81.67 48.0971 80.9699 47.397L67.7238 34.1509C67.0237 33.4508 65.8888 33.4508 65.1887 34.1509Z" fill="#5A189A"/>
<path d="M52.0568 47.2827C51.3567 47.9828 51.3567 49.1178 52.0568 49.8179L65.3029 63.064C66.003 63.764 67.1379 63.7641 67.838 63.064C68.5382 62.3639 68.5382 61.2289 67.838 60.5288L54.592 47.2827C53.892 46.5826 52.7569 46.5826 52.0568 47.2827Z" fill="#02C0FC"/>
<path d="M45.4748 53.865C44.7747 54.5651 44.7747 55.7002 45.4748 56.4002L58.7209 69.6463C59.421 70.3463 60.5559 70.3463 61.256 69.6463C61.9561 68.9462 61.9561 67.8113 61.256 67.1111L48.0099 53.865C47.3098 53.1649 46.1749 53.1649 45.4748 53.865Z" fill="#1D8DF2"/>
<path d="M32.5969 66.7431C31.8968 67.4432 31.8968 68.5783 32.5969 69.2783L45.8429 82.5244C46.5429 83.2244 47.678 83.2244 48.3781 82.5244C49.0782 81.8243 49.0782 80.6894 48.3781 79.9893L35.132 66.7431C34.4319 66.043 33.297 66.043 32.5969 66.7431Z" fill="#5A189A"/>
<path d="M29.0295 73.8052L26.8511 74.0827L28.7788 77.9252C30.9877 81.273 33.859 84.1443 37.2068 86.3532L40.985 88.2486L41.1701 85.9459L29.0295 73.8052Z" fill="#5A189A"/>
<path d="M44.2603 83.8563C42.2703 85.8463 39.8905 86.451 37.2065 86.3532C39.1349 87.6255 41.2204 88.6782 43.4289 89.4749C44.766 88.8902 46.047 88.0381 47.2445 86.8405C48.0687 86.0164 48.0687 84.6803 47.2445 83.8563C46.4204 83.0322 45.0844 83.0322 44.2603 83.8563Z" fill="#1D8DF2"/>
<path d="M45.7522 87.4586C45.2123 87.4586 44.6722 87.2525 44.2601 86.8405C43.4359 86.0164 43.4359 84.6803 44.2601 83.8563C48.1325 79.9837 46.7599 74.6347 45.1706 68.4413C43.5019 61.9382 41.6105 54.5676 47.185 48.9932C48.0091 48.1691 49.3451 48.1691 50.1692 48.9932C50.9934 49.8173 50.9934 51.1533 50.1692 51.9774C46.2968 55.85 47.6694 61.1989 49.2587 67.3924C50.9274 73.8954 52.8188 81.2661 47.2443 86.8405C46.8323 87.2525 46.2922 87.4586 45.7522 87.4586Z" fill="#02C0FC"/>
<path d="M65.5755 66.0188L63.1542 64.9622C59.2816 68.8346 53.9329 67.4622 47.7393 65.8728C41.2362 64.204 33.8655 62.3129 28.2912 67.8871C27.0936 69.0848 26.2413 70.3654 25.6567 71.7024C26.4534 73.911 27.5062 75.9967 28.7786 77.9252C28.6808 75.2413 29.2856 72.8613 31.2754 70.8713C35.148 66.999 40.4967 68.3714 46.6903 69.9608C53.1935 71.6297 60.5643 73.5209 66.1384 67.9465L65.5755 66.0188Z" fill="#FF6D00"/>
<path d="M68.2025 69.265C67.661 69.8065 67.661 70.6845 68.2025 71.226L76.7817 79.8052C77.3574 79.0656 77.8986 78.2979 78.4032 77.5044L70.1637 69.2649C69.622 68.7235 68.7441 68.7235 68.2025 69.265Z" fill="#BB81E3"/>
<path d="M67.4907 85.8821L69.8419 79.956C70.046 79.4417 69.9248 78.8552 69.5335 78.464L65.249 74.1795C64.7075 73.638 63.8294 73.638 63.288 74.1795C62.7465 74.7211 62.7465 75.599 63.288 76.1406L66.9277 79.7804L64.5764 85.7066C64.3724 86.2209 64.4936 86.8073 64.8849 87.1986L66.0793 88.393C66.9554 87.9782 67.8081 87.5218 68.6343 87.0259L67.4907 85.8821Z" fill="#9957BC"/>
<path d="M73.1166 64.3506C72.5751 64.8922 72.5751 65.7701 73.1166 66.3117L77.4011 70.5961C77.7923 70.9874 78.3787 71.1086 78.893 70.9046L81.8895 69.7156C82.1905 68.6489 82.4314 67.5572 82.6119 66.4452L78.7175 67.9904L75.0777 64.3506C74.5361 63.8091 73.6581 63.8091 73.1166 64.3506Z" fill="#BB81E3"/>
<path d="M37.0385 41.0654L34.6871 46.9915C34.4831 47.5058 34.6043 48.0922 34.9956 48.4835L39.28 52.768C39.8216 53.3095 40.6995 53.3095 41.2411 52.768C41.7826 52.2264 41.7826 51.3485 41.2411 50.8068L37.6013 47.1671L39.9526 41.2409C40.1567 40.7266 40.0355 40.1402 39.6442 39.7489L37.0198 37.1245C36.2422 37.646 35.4908 38.2037 34.7679 38.7948L37.0385 41.0654Z" fill="#BB81E3"/>
<path d="M29.4516 62.5968C29.9931 63.1384 30.8711 63.1384 31.4127 62.5968C31.9543 62.0553 31.9543 61.1772 31.4127 60.6357L27.1283 56.3513C26.737 55.96 26.1506 55.8388 25.6362 56.0429L24.3554 56.551C24.1757 57.578 24.0502 58.6235 23.9795 59.684L25.8118 58.957L29.4516 62.5968Z" fill="#9957BC"/>
<path d="M36.3267 57.6825C36.8683 57.1409 36.8683 56.2628 36.3267 55.7213L27.7363 47.1308C27.2573 47.9756 26.8192 48.8465 26.4238 49.7406L34.3657 57.6825C34.9071 58.224 35.7852 58.224 36.3267 57.6825Z" fill="#9957BC"/>
<path d="M68.1524 48.4985C67.407 45.5942 66.7094 42.8756 66.5779 40.4079L63.6312 39.5657L62.374 40.4205C62.5063 43.4758 63.3082 46.6008 64.0645 49.5476C65.654 55.7409 67.0267 61.0899 63.1543 64.9622C63.1137 65.0027 63.0727 65.0419 63.0318 65.0814L63.0337 65.0828C63.0337 65.0828 62.4243 68.6054 66.0143 68.0675C66.0557 68.0271 66.0973 67.9877 66.1385 67.9464C71.7128 62.3722 69.8212 55.0015 68.1524 48.4985Z" fill="#5A189A"/>
<path d="M75.5705 52.7765C72.2445 52.7765 68.8078 51.8946 65.5838 51.0671C59.3904 49.4776 54.0418 48.1051 50.1692 51.9773C49.3452 52.8014 48.0091 52.8014 47.185 51.9773C46.3608 51.1532 46.3608 49.8172 47.185 48.9931C52.7595 43.4186 60.13 45.3102 66.6328 46.9792C72.826 48.5687 78.1747 49.9412 82.0471 46.069C82.8712 45.245 84.2073 45.245 85.0313 46.069C85.8555 46.8931 85.8555 48.2292 85.0313 49.0533C82.2208 51.8639 78.953 52.7765 75.5705 52.7765Z" fill="#FF6D00"/>
<path d="M66.0782 30.1C62.995 33.1831 62.1964 36.8158 62.3803 40.5473C63.1387 41.2792 64.8532 42.4744 66.5846 40.5205C66.4141 37.6799 66.9785 35.1682 69.0624 33.0842C69.8866 32.2602 69.8866 30.9241 69.0624 30.1C68.2384 29.2759 66.9023 29.2759 66.0782 30.1Z" fill="#5A189A"/>
</svg>
