<svg width="111" height="120" viewBox="0 0 111 120" fill="none" xmlns="http://www.w3.org/2000/svg">
<path fill-rule="evenodd" clip-rule="evenodd" d="M49.9972 0.484194C65.0105 0.371434 75.67 13.537 86.325 24.1296C97.0391 34.7811 110.058 45.3939 110.376 60.5093C110.697 75.7957 98.8349 87.7959 87.886 98.4522C77.1462 108.905 64.9702 118.958 49.9972 119.274C34.7811 119.596 20.2172 111.798 10.4756 100.087C1.46698 89.2584 0.413822 74.5864 1.11095 60.5093C1.76504 47.301 5.86389 34.9194 14.2103 24.6712C23.6662 13.0608 35.0367 0.596558 49.9972 0.484194Z" fill="#DEC3F9"/>
<g clip-path="url(#clip0_751_277)">
<path d="M25.9626 61.9973C25.061 61.9973 24.3227 61.2696 24.3223 60.3678C24.3223 60.3623 24.3223 60.3567 24.3223 60.3513C24.3223 43.3026 38.1429 29.482 55.1916 29.482C72.2403 29.482 86.061 43.3026 86.061 60.3513V60.3678C86.0605 61.2694 85.3224 61.9973 84.4207 61.9973H25.9626Z" fill="#865CB2"/>
<path d="M86.061 60.3513C86.061 66.7024 84.143 72.6056 80.8545 77.5132H66.5332C59.0087 77.5132 52.9089 83.6131 52.9089 91.1376H57.4744C56.7207 91.1927 55.9594 91.2207 55.1916 91.2207C48.1834 91.2207 41.7208 88.8853 36.5393 84.9503V80.9151C36.5393 73.7476 31.708 67.4808 24.7765 65.657C24.4779 63.9332 24.3223 62.1604 24.3223 60.3513C24.3223 60.1095 24.325 59.8684 24.3306 59.6278H86.0526C86.0582 59.8684 86.061 60.1095 86.061 60.3513Z" fill="#754CA0"/>
<path d="M54.4675 67.4657V83.1416C54.4675 84.1405 53.6577 84.9503 52.6587 84.9503H36.5387C35.5437 84.1948 34.5961 83.3802 33.7009 82.5119C33.2587 82.083 33.5646 81.3328 34.1807 81.3328H50.2471C50.58 81.3328 50.85 81.0628 50.85 80.7299V69.8774C50.85 69.5445 50.58 69.2745 50.2471 69.2745H26.8375C26.1141 69.2745 25.4795 68.7868 25.2988 68.0864C25.0929 67.2886 24.9182 66.4784 24.7759 65.657H52.6587C53.6577 65.657 54.4675 66.4668 54.4675 67.4657Z" fill="#FDBCBC"/>
<path d="M52.0561 68.6716V81.9358C52.0561 82.2687 51.7861 82.5387 51.4532 82.5387H33.7288C29.7031 78.6437 26.7343 73.6631 25.2944 68.0687H51.4532C51.7861 68.0687 52.0561 68.3387 52.0561 68.6716Z" fill="#FFF5F5"/>
<path d="M44.821 72.2891C44.821 70.824 46.0088 69.6362 47.4739 69.6362C48.939 69.6362 50.1267 70.824 50.1267 72.2891C50.1267 73.7542 48.939 74.9419 47.4739 74.9419C46.0088 74.9419 44.821 73.7542 44.821 72.2891ZM47.4739 76.0272C46.0088 76.0272 44.821 77.2149 44.821 78.68C44.821 80.1451 46.0088 81.3328 47.4739 81.3328C48.939 81.3328 50.1267 80.1451 50.1267 78.68C50.1267 77.2149 48.939 76.0272 47.4739 76.0272ZM40.48 69.6362C39.0149 69.6362 37.8272 70.824 37.8272 72.2891C37.8272 73.7542 39.0149 74.9419 40.48 74.9419C41.9451 74.9419 43.1329 73.7542 43.1329 72.2891C43.1329 70.824 41.9451 69.6362 40.48 69.6362ZM40.48 76.0272C39.0149 76.0272 37.8272 77.2149 37.8272 78.68C37.8272 80.1451 39.0149 81.3328 40.48 81.3328C41.9451 81.3328 43.1329 80.1451 43.1329 78.68C43.1329 77.2149 41.9451 76.0272 40.48 76.0272ZM33.4862 69.6362C32.0211 69.6362 30.8334 70.824 30.8334 72.2891C30.8334 73.7542 32.0211 74.9419 33.4862 74.9419C34.9513 74.9419 36.139 73.7542 36.139 72.2891C36.139 70.824 34.9513 69.6362 33.4862 69.6362ZM33.4862 76.0272C32.0211 76.0272 30.8334 77.2149 30.8334 78.68C30.8334 78.9548 30.8751 79.2198 30.9527 79.4691C31.3798 80.0098 31.8246 80.5359 32.2863 81.0466C32.6466 81.2296 33.0543 81.3328 33.4862 81.3328C34.9513 81.3328 36.139 80.1451 36.139 78.68C36.139 77.2149 34.9513 76.0272 33.4862 76.0272ZM26.4924 69.6362C26.2434 69.6362 26.0024 69.6706 25.7739 69.7347C26.3122 71.4236 26.9919 73.0495 27.7991 74.5982C28.6028 74.1424 29.1452 73.2791 29.1452 72.2891C29.1452 70.824 27.9574 69.6362 26.4924 69.6362Z" fill="#FDBCBC"/>
<path d="M55.6739 59.6278C55.6739 60.1273 55.269 60.5322 54.7695 60.5322H54.1666V61.1351C54.1666 61.6346 53.7617 62.0395 53.2623 62.0395C52.7628 62.0395 52.3579 61.6346 52.3579 61.1351V60.5322H51.755C51.2555 60.5322 50.8506 60.1273 50.8506 59.6278C50.8506 59.1284 51.2555 58.7234 51.755 58.7234H52.3579V58.1205C52.3579 57.6211 52.7628 57.2162 53.2623 57.2162C53.7617 57.2162 54.1666 57.6211 54.1666 58.1205V58.7234H54.7695C55.269 58.7234 55.6739 59.1284 55.6739 59.6278Z" fill="#A6E0EC"/>
<path d="M42.62 44.3746C42.1649 42.4332 43.3699 40.4906 45.3112 40.0355L63.9735 35.6614L65.6213 42.6916L46.959 47.0658C45.0177 47.5209 43.0751 46.316 42.62 44.3746Z" fill="#A6E0EC"/>
<path d="M42.5264 43.6802C42.4639 41.9896 43.6021 40.4362 45.3111 40.0357L63.9735 35.6615L65.6212 42.6918L64.6163 42.9274L63.6332 38.7331L42.5264 43.6802Z" fill="#7CD2E3"/>
<path d="M24.4184 48.6408C23.9633 46.6995 25.1683 44.7569 27.1095 44.3018L46.955 39.6503L48.6028 46.6805L28.7573 51.332C26.816 51.7871 24.8733 50.5822 24.4184 48.6408Z" fill="#9BCF1B"/>
<path d="M30.302 46.5453L47.6193 42.4864L48.6024 46.6807L31.2852 50.7395C30.1269 51.0109 28.9679 50.2921 28.6965 49.1339C28.425 47.9756 29.1438 46.8167 30.302 46.5453Z" fill="#B9E746"/>
<path d="M58.1283 74.5982C57.3427 74.5982 56.884 73.7121 57.3377 73.0707L59.4729 70.0509C62.3524 65.9788 63.8985 61.1144 63.8985 56.1271V48.4184H71.1193V56.0802C71.1193 61.0674 72.6654 65.932 75.5448 70.004L77.6767 73.0191C78.1455 73.6822 77.6714 74.5982 76.8593 74.5982H58.1283Z" fill="#A6E0EC"/>
<path d="M61.4632 74.5982H58.1283C57.3427 74.5982 56.884 73.7121 57.3377 73.0707L59.4729 70.0509C62.3524 65.9788 63.8985 61.1144 63.8985 56.1271V48.4184H67.2333V56.1271C67.2333 61.1144 65.6872 65.9789 62.8078 70.0509L60.6725 73.0707C60.2189 73.7122 60.6776 74.5982 61.4632 74.5982Z" fill="#7CD2E3"/>
<path d="M64.1706 44.4082L61.9111 34.7681C61.7591 34.1197 62.1615 33.4708 62.8099 33.3189C63.4583 33.167 64.1071 33.5694 64.2591 34.2177L66.5186 43.8579C66.6705 44.5063 66.2681 45.1551 65.6197 45.3071C64.9714 45.459 64.3225 45.0566 64.1706 44.4082ZM73.6651 49.0165C73.6651 48.3505 73.1252 47.8106 72.4592 47.8106H62.5579C61.8919 47.8106 61.3521 48.3505 61.3521 49.0165C61.3521 49.6824 61.8919 50.2223 62.5579 50.2223H72.4592C73.1252 50.2223 73.6651 49.6824 73.6651 49.0165Z" fill="#C2EAF2"/>
<path d="M55.1918 91.2207C54.4241 91.2207 53.6628 91.1927 52.9091 91.1376C49.5706 90.5171 47.8069 86.5498 49.8837 83.6126L57.4645 72.892H77.5871L80.8547 77.5132C75.3159 85.7792 65.8894 91.2207 55.1918 91.2207Z" fill="#FFC14F"/>
<path d="M80.2739 51.187C80.2739 51.6864 79.8689 52.0913 79.3695 52.0913H78.7666V52.6943C78.7666 53.1937 78.3616 53.5986 77.8622 53.5986C77.3627 53.5986 76.9578 53.1937 76.9578 52.6943V52.0913H76.3549C75.8554 52.0913 75.4505 51.6864 75.4505 51.187C75.4505 50.6875 75.8554 50.2826 76.3549 50.2826H76.9578V49.6797C76.9578 49.1802 77.3627 48.7753 77.8622 48.7753C78.3616 48.7753 78.7666 49.1802 78.7666 49.6797V50.2826H79.3695C79.8689 50.2826 80.2739 50.6875 80.2739 51.187ZM49.7508 43.1987C49.5989 42.5503 50.0013 41.9014 50.6497 41.7495L58.18 39.9845C58.8283 39.8326 59.4772 40.235 59.6291 40.8834C59.7811 41.5317 59.3787 42.1806 58.7303 42.3325L51.2 44.0975C50.5516 44.2494 49.9028 43.8471 49.7508 43.1987ZM69.1971 65.657V55.0456C69.1971 54.3797 68.6572 53.8398 67.9912 53.8398C67.3253 53.8398 66.7854 54.3797 66.7854 55.0456V65.657C66.7854 66.323 67.3253 66.8628 67.9912 66.8628C68.6572 66.8628 69.1971 66.323 69.1971 65.657Z" fill="#FFF5F5"/>
<path d="M42.2889 78.68C42.2889 79.6789 41.4791 80.4887 40.4801 80.4887C39.4812 80.4887 38.6714 79.6789 38.6714 78.68C38.6714 77.6811 39.4812 76.8712 40.4801 76.8712C41.4791 76.8712 42.2889 77.6811 42.2889 78.68Z" fill="#D63030"/>
<path d="M49.2829 72.2891C49.2829 73.288 48.4731 74.0978 47.4742 74.0978C46.4752 74.0978 45.6654 73.288 45.6654 72.2891C45.6654 71.2902 46.4752 70.4803 47.4742 70.4803C48.4731 70.4803 49.2829 71.2902 49.2829 72.2891ZM33.4865 70.4803C32.4876 70.4803 31.6777 71.2902 31.6777 72.2891C31.6777 73.288 32.4876 74.0978 33.4865 74.0978C34.4854 74.0978 35.2952 73.288 35.2952 72.2891C35.2952 71.2902 34.4854 70.4803 33.4865 70.4803Z" fill="#FD9A9A"/>
<path d="M42.2891 72.2891C42.2891 73.288 41.4792 74.0978 40.4803 74.0978C39.4814 74.0978 38.6716 73.288 38.6716 72.2891C38.6716 71.2902 39.4814 70.4803 40.4803 70.4803C41.4792 70.4803 42.2891 71.2902 42.2891 72.2891ZM33.4865 76.8712C32.4876 76.8712 31.6777 77.6811 31.6777 78.68C31.6777 79.6789 32.4876 80.4887 33.4865 80.4887C34.4854 80.4887 35.2952 79.6789 35.2952 78.68C35.2952 77.6811 34.4854 76.8712 33.4865 76.8712Z" fill="#FB5858"/>
<path d="M49.2824 78.68C49.2824 79.6789 48.4725 80.4887 47.4736 80.4887C46.4747 80.4887 45.6649 79.6789 45.6649 78.68C45.6649 77.6811 46.4747 76.8712 47.4736 76.8712C48.4725 76.8712 49.2824 77.6811 49.2824 78.68ZM26.4921 70.4803C26.3366 70.4803 26.1856 70.5 26.0415 70.5369C26.4376 71.6705 26.898 72.7741 27.4182 73.8429C27.9468 73.5273 28.3009 72.9495 28.3009 72.2891C28.3009 71.2902 27.491 70.4803 26.4921 70.4803Z" fill="#FC7979"/>
<path d="M56.9479 91.1716C56.3667 91.2041 55.7812 91.2207 55.1918 91.2207C54.4241 91.2207 53.6628 91.1927 52.9091 91.1376C49.5706 90.5171 47.8069 86.5497 49.8837 83.6126L57.4645 72.892H60.9756L53.395 83.6126C51.3181 86.5497 53.0819 90.5171 56.4203 91.1376C56.5957 91.1504 56.7716 91.1617 56.9479 91.1716ZM70.8454 71.445C69.5134 71.445 68.4337 72.5247 68.4337 73.8567C68.4337 75.1886 69.5134 76.2683 70.8454 76.2683C72.1773 76.2683 73.257 75.1886 73.257 73.8567C73.257 72.5247 72.1772 71.445 70.8454 71.445ZM67.2279 69.6362C67.2279 70.6351 66.418 71.445 65.4191 71.445C64.4202 71.445 63.6104 70.6351 63.6104 69.6362C63.6104 68.6373 64.4202 67.8275 65.4191 67.8275C66.418 67.8275 67.2279 68.6373 67.2279 69.6362Z" fill="#FFA90B"/>
<path d="M73.538 75.786C73.538 76.452 72.9981 76.9918 72.3322 76.9918C71.6662 76.9918 71.1263 76.452 71.1263 75.786C71.1263 75.12 71.6662 74.5801 72.3322 74.5801C72.9981 74.5801 73.538 75.12 73.538 75.786ZM60.867 80.8505C60.201 80.8505 59.6611 81.3903 59.6611 82.0563C59.6611 82.7223 60.201 83.2621 60.867 83.2621C61.5329 83.2621 62.0728 82.7223 62.0728 82.0563C62.0728 81.3903 61.5329 80.8505 60.867 80.8505ZM64.9222 83.7445C64.2562 83.7445 63.7164 84.2843 63.7164 84.9503C63.7164 85.6163 64.2562 86.1561 64.9222 86.1561C65.5882 86.1561 66.128 85.6163 66.128 84.9503C66.128 84.2843 65.588 83.7445 64.9222 83.7445Z" fill="#FFD993"/>
<path d="M69.1968 40.553C69.1968 41.219 68.657 41.7588 67.991 41.7588C67.325 41.7588 66.7852 41.219 66.7852 40.553C66.7852 39.887 67.325 39.3471 67.991 39.3471C68.657 39.3471 69.1968 39.887 69.1968 40.553ZM72.4941 40.7941C71.8281 40.7941 71.2882 41.334 71.2882 42C71.2882 42.666 71.8281 43.2058 72.4941 43.2058C73.16 43.2058 73.6999 42.666 73.6999 42C73.6999 41.334 73.16 40.7941 72.4941 40.7941ZM70.4027 46.5004C69.7367 46.5004 69.1968 47.0402 69.1968 47.7062C69.1968 48.3722 69.7367 48.9121 70.4027 48.9121C71.0686 48.9121 71.6085 48.3722 71.6085 47.7062C71.6085 47.0402 71.0686 46.5004 70.4027 46.5004Z" fill="#9BCF1B"/>
<path d="M45.5448 44.886C45.5448 45.552 45.005 46.0918 44.339 46.0918C43.673 46.0918 43.1331 45.552 43.1331 44.886C43.1331 44.22 43.673 43.6802 44.339 43.6802C45.005 43.6802 45.5448 44.22 45.5448 44.886ZM34.0894 43.6802C33.4234 43.6802 32.8835 44.22 32.8835 44.886C32.8835 45.552 33.4234 46.0918 34.0894 46.0918C34.7554 46.0918 35.2952 45.552 35.2952 44.886C35.2952 44.22 34.7554 43.6802 34.0894 43.6802ZM30.1892 46.5004C29.5233 46.5004 28.9834 47.0402 28.9834 47.7062C28.9834 48.3722 29.5233 48.912 30.1892 48.912C30.8552 48.912 31.3951 48.3722 31.3951 47.7062C31.3951 47.0402 30.8552 46.5004 30.1892 46.5004Z" fill="#84B017"/>
</g>
<defs>
<clipPath id="clip0_751_277">
<rect width="61.7387" height="61.7387" fill="white" transform="translate(24.3223 29.482)"/>
</clipPath>
</defs>
</svg>
