<svg width="110" height="119" viewBox="0 0 110 119" fill="none" xmlns="http://www.w3.org/2000/svg">
<path fill-rule="evenodd" clip-rule="evenodd" d="M49.0612 0.000719387C64.0745 -0.11204 74.734 13.0535 85.3889 23.6461C96.1031 34.2976 109.122 44.9104 109.44 60.0258C109.761 75.3122 97.8988 87.3124 86.9499 97.9687C76.2102 108.421 64.0342 118.474 49.0612 118.791C33.845 119.112 19.2811 111.314 9.53953 99.6039C0.530946 88.775 -0.522213 74.1029 0.174913 60.0258C0.82901 46.8175 4.92786 34.4359 13.2743 24.1877C22.7301 12.5774 34.1006 0.113083 49.0612 0.000719387Z" fill="#DEC3F9"/>
<path d="M82.5456 82.3434L43.1452 32.0549C42.8534 31.6956 42.4861 31.4532 42.0882 31.3574C41.6903 31.2616 41.2793 31.3166 40.9055 31.5157C40.5317 31.7147 40.2115 32.0492 39.9841 32.478C39.7567 32.9068 39.632 33.4113 39.6254 33.9295V42.5825C40.7791 42.561 43.3262 42.598 44.4991 42.5825C44.7621 42.5883 45.0128 42.7261 45.1972 42.9662C45.3816 43.2064 45.4849 43.5297 45.4849 43.8664C45.4849 44.2032 45.3816 44.5265 45.1972 44.7666C45.0127 45.0068 44.762 45.1445 44.499 45.1503C43.323 45.1821 40.7844 45.1273 39.6254 45.1503V49.3484C40.4986 49.3682 42.2942 49.3342 43.1553 49.3484C43.4183 49.3543 43.6689 49.4921 43.8533 49.7322C44.0376 49.9724 44.1409 50.2956 44.1409 50.6323C44.1409 50.969 44.0376 51.2922 43.8532 51.5323C43.6689 51.7725 43.4182 51.9103 43.1553 51.9161H39.6254V56.1143C40.7792 56.1078 43.3262 56.119 44.4991 56.1143C44.7628 56.1188 45.0144 56.2561 45.1996 56.4964C45.3847 56.7367 45.4886 57.0606 45.4885 57.3982C45.4885 57.7357 45.3847 58.0597 45.1995 58.3C45.0143 58.5403 44.7627 58.6775 44.4991 58.682C43.3231 58.6882 40.7844 58.6775 39.6254 58.682V62.8801C40.4986 62.8787 42.2943 62.8812 43.1554 62.8801C43.4191 62.8846 43.6708 63.0218 43.8561 63.2621C44.0413 63.5024 44.1452 63.8264 44.1452 64.164C44.1452 64.5017 44.0413 64.8257 43.856 65.066C43.6708 65.3063 43.419 65.4435 43.1553 65.4478C42.2991 65.4504 40.491 65.446 39.6254 65.4478V69.6589C40.7792 69.6675 43.3262 69.6528 44.4992 69.6589C44.7629 69.6633 45.0146 69.8005 45.1998 70.0408C45.3851 70.2811 45.4889 70.6052 45.4889 70.9428C45.4889 71.2804 45.385 71.6044 45.1998 71.8447C45.0145 72.085 44.7628 72.2222 44.4991 72.2266H39.6254V76.4248H43.1554C43.419 76.4295 43.6705 76.5668 43.8556 76.807C44.0407 77.0473 44.1445 77.3712 44.1445 77.7087C44.1445 78.0461 44.0407 78.37 43.8556 78.6103C43.6705 78.8506 43.419 78.9879 43.1554 78.9925H39.6253V84.205C39.6249 84.5524 39.6781 84.8966 39.7818 85.2177C39.8855 85.5388 40.0376 85.8305 40.2295 86.0762C40.4214 86.3219 40.6493 86.5167 40.9001 86.6494C41.1509 86.7822 41.4197 86.8502 41.6911 86.8498H81.0815C81.4862 86.8412 81.8802 86.6815 82.2151 86.3904C82.55 86.0992 82.8112 85.6892 82.9666 85.2107C83.1221 84.7322 83.1651 84.206 83.0903 83.6966C83.0155 83.1873 82.8262 82.717 82.5456 82.3434ZM63.432 74.8714C63.3249 75.2076 63.1415 75.4949 62.9056 75.6963C62.6696 75.8977 62.3919 76.0039 62.1083 76.0012H49.5331C49.1543 75.9986 48.7918 75.8039 48.5249 75.4598C48.258 75.1157 48.1085 74.6502 48.1091 74.1653V58.1171C48.1082 57.7552 48.1913 57.401 48.3478 57.0996C48.5044 56.7982 48.7273 56.5631 48.9884 56.4242C49.2495 56.2852 49.5369 56.2487 49.8142 56.3193C50.0915 56.3898 50.3462 56.5643 50.546 56.8204L63.1212 72.8686C63.321 73.1263 63.4571 73.4538 63.5124 73.81C63.5677 74.1662 63.5398 74.5354 63.432 74.8714ZM50.1147 59.9016L60.7144 73.4335H50.1147V59.9016ZM37.1384 37.3829L36.8776 76.656C34.381 76.6225 29.4965 76.5679 27 76.5533L27.2708 37.2674C27.2759 36.4372 27.4087 35.6164 27.6618 34.8519C27.9148 34.0875 28.2831 33.3945 28.7455 32.8124C29.2079 32.2303 29.7554 31.7707 30.3567 31.4598C30.958 31.1488 31.6013 30.9927 32.2498 31.0003C32.8982 31.0079 33.5392 31.179 34.1359 31.504C34.7326 31.829 35.2735 32.3014 35.7275 32.8941C36.1816 33.4869 36.5399 34.1885 36.782 34.9587C37.0241 35.7289 37.1452 36.5527 37.1384 37.3829ZM36.4063 79.2108L32.716 86.5415C32.6237 86.7222 32.4976 86.8703 32.3491 86.9724C32.2006 87.0745 32.0345 87.1273 31.8659 87.1261C31.6973 87.1248 31.5317 87.0695 31.3842 86.9651C31.2366 86.8608 31.1118 86.7108 31.0212 86.5288L27.4311 79.121C27.4311 79.121 34.9439 79.1852 36.4063 79.2108Z" fill="url(#paint0_linear_755_790)"/>
<defs>
<linearGradient id="paint0_linear_755_790" x1="27" y1="59.0638" x2="83.1423" y2="59.0638" gradientUnits="userSpaceOnUse">
<stop stop-color="#FF6D00"/>
<stop offset="1" stop-color="#8F00FE"/>
</linearGradient>
</defs>
</svg>
