<svg width="110" height="120" viewBox="0 0 110 120" fill="none" xmlns="http://www.w3.org/2000/svg">
<path fill-rule="evenodd" clip-rule="evenodd" d="M49.4079 0.484194C64.4211 0.371434 75.0807 13.537 85.7356 24.1296C96.4498 34.7811 109.469 45.3939 109.786 60.5093C110.107 75.7957 98.2455 87.7959 87.2966 98.4522C76.5569 108.905 64.3808 118.958 49.4079 119.274C34.1917 119.596 19.6278 111.798 9.88621 100.087C0.877626 89.2584 -0.175533 74.5864 0.521593 60.5093C1.17569 47.301 5.27454 34.9194 13.621 24.6712C23.0768 13.0608 34.4473 0.596558 49.4079 0.484194Z" fill="#DEC3F9"/>
<path d="M53.4771 72.6998C61.3056 72.6998 67.6519 66.7524 67.6519 59.4159C67.6519 52.0794 61.3056 46.132 53.4771 46.132C45.6485 46.132 39.3022 52.0794 39.3022 59.4159C39.3022 66.7524 45.6485 72.6998 53.4771 72.6998Z" fill="#A54AF4"/>
<path d="M40.9218 59.9219C40.6238 59.9219 40.3818 59.6952 40.3818 59.4159C40.3818 54.2589 43.8637 49.6176 49.0466 47.8667C49.3274 47.7716 49.6368 47.9082 49.738 48.1711C49.839 48.434 49.6938 48.724 49.4132 48.8188C44.6572 50.4256 41.4618 54.6843 41.4618 59.4159C41.4618 59.6952 41.2202 59.9219 40.9218 59.9219Z" fill="#B171F4"/>
<path d="M51.3647 48.333C51.6573 48.333 51.8944 48.1108 51.8944 47.8366C51.8944 47.5624 51.6573 47.3401 51.3647 47.3401C51.0721 47.3401 50.835 47.5624 50.835 47.8366C50.835 48.1108 51.0721 48.333 51.3647 48.333Z" fill="#B171F4"/>
<path d="M53.8112 46.1398C55.7133 48.4008 56.8516 51.2527 56.8516 54.3553C56.8516 61.6919 50.5054 67.6393 42.6768 67.6393C42.5645 67.6393 42.4538 67.6337 42.3423 67.6314C44.938 70.7168 48.9591 72.6998 53.4767 72.6998C61.3052 72.6998 67.6515 66.7524 67.6515 59.4159C67.6515 52.1846 61.4848 46.307 53.8112 46.1398Z" fill="#893ADD"/>
<path d="M56.9608 46.5375C60.1862 48.9724 62.2516 52.702 62.2516 56.8856C62.2516 64.2221 55.9054 70.1695 48.0768 70.1695C46.8745 70.1695 45.7076 70.0281 44.5928 69.7639C47.0236 71.5991 50.1123 72.6998 53.4767 72.6998C61.3053 72.6998 67.6516 66.7524 67.6516 59.4159C67.6516 53.2061 63.1046 47.9927 56.9608 46.5375Z" fill="#6C2BC1"/>
<path d="M53.4765 90.2852C48.9597 90.2852 44.7445 87.0272 41.6072 81.1112C38.5297 75.3078 36.835 67.6028 36.835 59.4159C36.835 51.2289 38.5297 43.524 41.6074 37.7205C44.7445 31.8045 48.96 28.5465 53.4765 28.5465C57.993 28.5465 62.2085 31.8045 65.3458 37.7205C68.4232 43.5242 70.1183 51.2289 70.1183 59.4159C70.1183 67.6028 68.4235 75.3078 65.3458 81.1112C62.2085 87.0272 57.9933 90.2852 53.4765 90.2852ZM53.4765 29.5586C44.8957 29.5586 37.9147 42.9526 37.9147 59.4159C37.9147 75.8791 44.8954 89.2731 53.4765 89.2731C62.0575 89.2731 69.0383 75.8791 69.0383 59.4159C69.0383 42.9526 62.0575 29.5586 53.4765 29.5586Z" fill="#6C2BC1"/>
<path d="M69.5256 79.9544C68.8982 79.9544 68.2534 79.9351 67.5914 79.8964C60.6894 79.4923 52.7218 77.0157 45.1563 72.9222C37.5907 68.8287 31.3178 63.6007 27.4936 58.2013C23.5951 52.697 22.6923 47.6471 24.9505 43.9812C27.2088 40.3156 32.3257 38.5226 39.3629 38.9353C46.2649 39.3394 54.2322 41.816 61.7981 45.9095C69.3636 50.003 75.6362 55.2311 79.4604 60.6304C83.3586 66.1345 84.2621 71.1847 82.0038 74.8505C79.9578 78.1713 75.5646 79.9544 69.5256 79.9544ZM37.4195 39.889C31.789 39.889 27.7296 41.4944 25.886 44.4873C23.8435 47.8029 24.7337 52.4743 28.3935 57.6414C32.1273 62.9132 38.2721 68.0287 45.6962 72.0457C53.1201 76.0625 60.92 78.4919 67.6586 78.8863C74.2652 79.2725 79.026 77.6599 81.0683 74.3445C85.3588 67.3804 76.4718 55.0178 61.2581 46.786C53.834 42.7692 46.0343 40.3399 39.2957 39.9454C38.6526 39.9077 38.0267 39.889 37.4195 39.889Z" fill="#6C2BC1"/>
<path d="M82.0037 43.9812C79.7455 40.3156 74.6253 38.5247 67.5913 38.9353C60.6894 39.3394 52.7218 41.8161 45.1562 45.9095C37.5903 50.003 31.3178 55.2311 27.4935 60.6304C23.5953 66.1345 22.6922 71.1847 24.9504 74.8506C26.9965 78.1716 31.3891 79.9546 37.4286 79.9544C38.0555 79.9544 38.7011 79.9352 39.3629 79.8964C46.2648 79.4924 54.2321 77.0157 61.798 72.9223C69.3636 68.8288 75.6361 63.6007 79.4604 58.2014C83.3586 52.697 84.262 47.6471 82.0037 43.9812ZM61.258 72.0458C53.8339 76.0626 46.0342 78.4919 39.2956 78.8864C32.6861 79.2725 27.928 77.6599 25.886 74.3445C23.8435 71.0288 24.7336 66.3575 28.3934 61.1904C32.1272 55.9185 38.2721 50.8031 45.6962 46.786C53.12 42.7692 60.92 40.3399 67.6585 39.9454C68.3019 39.9077 68.927 39.889 69.5347 39.889C75.1647 39.889 79.2249 41.4947 81.0682 44.4873C85.3584 51.4513 76.4715 63.814 61.258 72.0458Z" fill="url(#paint0_linear_751_650)"/>
<path d="M32.6403 43.8603C34.877 43.8603 36.6902 42.161 36.6902 40.0649C36.6902 37.9687 34.877 36.2694 32.6403 36.2694C30.4036 36.2694 28.5903 37.9687 28.5903 40.0649C28.5903 42.161 30.4036 43.8603 32.6403 43.8603Z" fill="#FFC91D"/>
<path d="M34.7454 36.8268C35.1204 37.4022 35.3402 38.076 35.3402 38.7997C35.3402 40.8958 33.5269 42.5951 31.2902 42.5951C30.518 42.5951 29.7993 42.3889 29.1851 42.0377C29.8962 43.1293 31.1755 43.8602 32.6402 43.8602C34.8769 43.8602 36.6902 42.1609 36.6902 40.0648C36.6902 38.6922 35.9101 37.4936 34.7454 36.8268Z" fill="#FFA91A"/>
<path d="M81.421 57.1629C83.6578 57.1629 85.471 55.4636 85.471 53.3675C85.471 51.2713 83.6578 49.5721 81.421 49.5721C79.1843 49.5721 77.3711 51.2713 77.3711 53.3675C77.3711 55.4636 79.1843 57.1629 81.421 57.1629Z" fill="#FFC91D"/>
<path d="M83.5261 50.1298C83.9012 50.7051 84.1209 51.379 84.1209 52.1026C84.1209 54.1987 82.3076 55.898 80.071 55.898C79.2988 55.898 78.5801 55.6918 77.9658 55.3406C78.677 56.4322 79.9562 57.1632 81.421 57.1632C83.6576 57.1632 85.4709 55.4638 85.4709 53.3678C85.4709 51.9951 84.6909 50.7962 83.5261 50.1298Z" fill="#FFA91A"/>
<path d="M61.4416 89.0221C63.6783 89.0221 65.4915 87.3228 65.4915 85.2267C65.4915 83.1305 63.6783 81.4313 61.4416 81.4313C59.2048 81.4313 57.3916 83.1305 57.3916 85.2267C57.3916 87.3228 59.2048 89.0221 61.4416 89.0221Z" fill="#FFC91D"/>
<path d="M63.5471 81.9887C63.9222 82.5641 64.1419 83.2379 64.1419 83.9616C64.1419 86.0577 62.3286 87.757 60.092 87.757C59.3198 87.757 58.6011 87.5508 57.9868 87.1996C58.698 88.2911 59.9772 89.0221 61.442 89.0221C63.6786 89.0221 65.4919 87.3228 65.4919 85.2267C65.4919 83.8541 64.7119 82.6552 63.5471 81.9887Z" fill="#FFA91A"/>
<defs>
<linearGradient id="paint0_linear_751_650" x1="53.477" y1="38.8776" x2="53.477" y2="79.9544" gradientUnits="userSpaceOnUse">
<stop stop-color="#5A189A"/>
<stop offset="1" stop-color="#FF6D00"/>
</linearGradient>
</defs>
</svg>
