<svg width="111" height="100" viewBox="0 0 111 100" fill="none" xmlns="http://www.w3.org/2000/svg">
<g id="bord " clip-path="url(#clip0_696_2414)">
<g id="Group">
<g id="OBJECTS">
<g id="Vector" style="mix-blend-mode:multiply">
<path d="M56.5497 100.031C80.4631 100.031 99.8488 87.9205 99.8488 72.981C99.8488 58.0415 80.4631 45.9306 56.5497 45.9306C32.6362 45.9306 13.2505 58.0415 13.2505 72.981C13.2505 87.9205 32.6362 100.031 56.5497 100.031Z" fill="#F3EDE7"/>
</g>
<g id="Vector_2" style="mix-blend-mode:multiply">
<path d="M56.5494 97.5142C78.2355 97.5142 95.8155 86.5303 95.8155 72.981C95.8155 59.4317 78.2355 48.4478 56.5494 48.4478C34.8633 48.4478 17.2832 59.4317 17.2832 72.981C17.2832 86.5303 34.8633 97.5142 56.5494 97.5142Z" fill="#F3EDE7"/>
</g>
<g id="Group_2">
<path id="Vector_3" d="M31.7737 14.5016H31.7615C31.7211 14.4699 31.6795 14.4413 31.6369 14.416H31.6145L31.5736 14.3961C31.5537 14.3839 31.5332 14.3734 31.5124 14.3647L31.445 14.3448H31.4041H31.3817C31.3351 14.3328 31.288 14.3252 31.2408 14.322H31.1958C31.1611 14.322 31.1244 14.322 31.0856 14.322H31.0468H30.9774H30.912C30.8925 14.3293 30.8728 14.335 30.8528 14.3391L30.7568 14.3704H30.7058C30.6874 14.3704 30.669 14.3875 30.6506 14.3961L30.4934 14.473L30.4342 14.4987L30.3729 14.5386L30.3157 14.5757C30.2463 14.6213 30.1748 14.6726 30.1013 14.7296C30.0135 14.8009 29.9277 14.8807 29.842 14.9662L29.7746 15.0346C29.7031 15.1088 29.6317 15.1886 29.5704 15.2712L29.5336 15.314C29.4662 15.3967 29.3989 15.4822 29.3294 15.5706L29.2988 15.6133C29.2539 15.676 29.211 15.7445 29.1681 15.81C29.1252 15.8756 29.1028 15.9041 29.0721 15.9526L29.019 16.0381L31.8983 18.3728C31.9453 18.293 31.9963 18.2189 32.0474 18.1448C32.0984 18.0706 32.1331 18.0108 32.1781 17.9481C32.223 17.8853 32.3271 17.7428 32.4068 17.663L32.4435 17.6202C32.513 17.5376 32.5844 17.4577 32.6579 17.3836L32.7253 17.3152C32.8086 17.2307 32.8952 17.1526 32.9847 17.0814C33.054 17.0236 33.1256 16.9713 33.1991 16.9247L33.2563 16.8876L33.3747 16.822C33.4278 16.7935 33.4809 16.7679 33.534 16.7451L33.6381 16.7052L33.7361 16.6766L33.8587 16.6481H33.9301C33.9798 16.6439 34.0295 16.6439 34.0792 16.6481H34.1139C34.1715 16.6517 34.2288 16.6612 34.2854 16.6766H34.3283C34.3705 16.6918 34.4134 16.709 34.457 16.728L34.4958 16.7479C34.5487 16.7763 34.5999 16.8106 34.6489 16.8505L31.7717 14.5158L31.7737 14.5016Z" fill="url(#paint0_linear_696_2414)"/>
<path id="Vector_4" d="M28.2388 14.7182H28.2204L28.198 14.704C28.1571 14.6726 28.1163 14.6441 28.0714 14.6156L28.0489 14.6014H28.0285C27.9774 14.5729 27.9264 14.5472 27.8733 14.5244C27.8168 14.5023 27.7596 14.4842 27.7018 14.4702H27.6813H27.6527C27.6037 14.4588 27.5527 14.4503 27.4996 14.4446H27.4649C27.4016 14.4446 27.3342 14.4446 27.2607 14.4446H27.2158C27.1385 14.4495 27.0615 14.46 26.985 14.4759C26.8893 14.4968 26.7945 14.5254 26.7012 14.5615H26.6848H26.6726C26.6134 14.5843 26.55 14.6128 26.4888 14.6413L26.4582 14.6584C26.4051 14.684 26.354 14.7097 26.3009 14.7411H26.2825L26.2458 14.7639C26.1907 14.7981 26.1355 14.8323 26.0783 14.8722L26.0171 14.9121C25.9436 14.9634 25.8721 15.0176 25.7986 15.0774C25.7251 15.1373 25.6087 15.2342 25.5168 15.3226C25.2315 15.5926 24.9637 15.8969 24.7163 16.232L27.5956 18.5667C27.843 18.2318 28.1108 17.9275 28.396 17.6573C28.4879 17.5718 28.5819 17.4891 28.6758 17.4122C28.7697 17.3352 28.8228 17.301 28.8943 17.2497L28.9576 17.2069C29.0127 17.1699 29.0679 17.1328 29.123 17.1014L29.1802 17.0672C29.2312 17.0359 29.2843 17.0102 29.3354 16.9846L29.368 16.9675L29.5518 16.8876H29.5804C29.6764 16.8534 29.7703 16.8221 29.8622 16.8021C29.9398 16.8021 30.0154 16.7765 30.0909 16.7708H30.1359C30.2032 16.7708 30.2686 16.7708 30.3401 16.7708H30.3748C30.4265 16.7708 30.4776 16.7793 30.5279 16.7964H30.5749C30.6328 16.8098 30.6901 16.8279 30.7464 16.8506C30.7991 16.871 30.851 16.8958 30.9016 16.9247L30.9445 16.9504C30.9874 16.9789 31.0303 17.0074 31.0711 17.0387C31.0853 17.0465 31.099 17.056 31.1119 17.0672L28.2388 14.7182Z" fill="url(#paint1_linear_696_2414)"/>
<path id="Vector_5" d="M23.1829 12.8054L23.1543 12.7826L23.1175 12.757C23.0501 12.7056 22.9807 12.66 22.9133 12.6173L22.8745 12.5888H22.8418C22.7594 12.5398 22.6748 12.4979 22.5886 12.4633C22.4967 12.4263 22.4028 12.3978 22.3089 12.3721H22.2762C22.2612 12.3707 22.2462 12.3707 22.2313 12.3721C22.1476 12.355 22.0638 12.3407 21.9781 12.3293H21.9372H21.9229C21.8167 12.3293 21.7187 12.3293 21.5982 12.3293H21.5676C21.5309 12.3293 21.4941 12.3293 21.4573 12.3293H21.3859C21.3083 12.3293 21.2307 12.3522 21.151 12.3693H21.1184C21.0449 12.3864 20.9713 12.4035 20.8958 12.4263L20.8059 12.4576L20.6528 12.5089H20.6385C20.5405 12.546 20.4343 12.5888 20.3404 12.6372L20.2852 12.6657C20.2015 12.7056 20.1178 12.7513 20.0341 12.7997H20.0055L19.9483 12.8368C19.8564 12.8909 19.7625 12.9508 19.6685 13.0135L19.5685 13.0819C19.448 13.1675 19.3275 13.2558 19.207 13.367L22.0863 15.7017C22.2068 15.6048 22.3273 15.5164 22.4457 15.4309L22.5478 15.3625C22.6417 15.2998 22.7336 15.2399 22.8255 15.1858L22.9133 15.1344C22.997 15.086 23.0808 15.0432 23.1645 15.0005L23.2176 14.972L23.5157 14.8437L23.6832 14.7867L23.775 14.7553C23.8506 14.7325 23.9241 14.7154 23.9976 14.6983H24.0303C24.1099 14.6812 24.1875 14.6698 24.2672 14.6584H24.3386H24.4775C24.5878 14.6584 24.696 14.6584 24.8022 14.6584H24.8594C24.9431 14.6584 25.0289 14.6812 25.1105 14.6983L25.1881 14.7154C25.2841 14.741 25.378 14.7696 25.4699 14.8066H25.4822C25.5679 14.8437 25.6517 14.8836 25.7354 14.932L25.8069 14.9748C25.8783 15.0176 25.9478 15.066 26.0111 15.1173L26.0764 15.1658L23.1829 12.8054Z" fill="url(#paint2_linear_696_2414)"/>
<path id="Vector_6" d="M13.5957 27.2272L13.4793 27.2471L13.4078 27.2671L13.2975 27.3013L13.2424 27.3184C13.1913 27.3355 13.1403 27.3583 13.0892 27.3811C13.0361 27.4068 12.9831 27.4324 12.93 27.4638L12.8564 27.5094L12.7911 27.5522C12.7094 27.6063 12.6277 27.6633 12.5461 27.7317C12.3013 27.9315 12.0702 28.1625 11.8559 28.4216C11.7783 28.5157 11.7007 28.6155 11.621 28.7209L11.5822 28.7751L11.5455 28.8293C11.476 28.9262 11.4086 29.0288 11.3413 29.1314L11.3025 29.1885L11.2718 29.2398L11.1554 29.4393L11.1003 29.5305L11.0799 29.5705L10.9941 29.7329C10.9737 29.7729 10.9512 29.8099 10.9308 29.8527L10.9104 29.8954C10.8859 29.941 10.8655 29.9895 10.843 30.0351L10.7817 30.1605C10.7736 30.1811 10.7648 30.2011 10.7552 30.2204L10.698 30.3544L10.649 30.4656L10.6143 30.5511L10.5612 30.6851C10.5612 30.7136 10.5387 30.7421 10.5265 30.7706L10.4836 30.8875L10.4366 31.0215C10.4279 31.0415 10.4204 31.0625 10.4142 31.0842C10.3958 31.1326 10.3815 31.184 10.3652 31.2324C10.3488 31.2809 10.3345 31.3208 10.3223 31.3635C10.31 31.4063 10.3121 31.3921 10.308 31.4035C10.2896 31.4633 10.2733 31.5232 10.2569 31.5831C10.2406 31.6429 10.2284 31.6714 10.2161 31.717V31.7427C10.1998 31.7997 10.1855 31.8596 10.1712 31.9194L10.1283 32.0791C10.1292 32.0857 10.1292 32.0924 10.1283 32.099C10.1181 32.1418 10.1099 32.1874 10.0997 32.2302C10.0895 32.2729 10.065 32.3812 10.0487 32.4582V32.4867C10.0487 32.5152 10.0487 32.5466 10.0323 32.578C10.0139 32.6749 9.9976 32.7747 9.98127 32.863C9.97883 32.8833 9.97542 32.9033 9.97106 32.9229C9.97106 32.9428 9.97106 32.9656 9.97106 32.9885C9.95064 33.131 9.93226 33.2735 9.92001 33.4104C9.92001 33.4303 9.92001 33.4474 9.92001 33.4645V33.4873C9.92001 33.57 9.90776 33.6527 9.90163 33.7325C9.8955 33.8123 9.90163 33.8123 9.90163 33.8522C9.90163 33.9748 9.90163 34.0945 9.90163 34.2114C9.88793 34.2901 9.889 34.3723 9.90474 34.4502C9.92048 34.5281 9.95036 34.599 9.99148 34.6561L12.8687 36.9908C12.8203 36.9434 12.7819 36.8787 12.7574 36.8035C12.733 36.7283 12.7235 36.6453 12.7298 36.5632C12.7298 36.4464 12.7298 36.3266 12.7298 36.2069C12.7298 36.167 12.7298 36.1242 12.7298 36.0843C12.7298 36.0444 12.7401 35.9218 12.7462 35.8392C12.7462 35.8135 12.7462 35.7878 12.7462 35.765C12.7605 35.6254 12.7788 35.48 12.7993 35.3403C12.7993 35.3004 12.8095 35.2576 12.8176 35.2149C12.8319 35.1179 12.8503 35.021 12.8687 34.9298C12.8687 34.8899 12.883 34.85 12.8912 34.8101C12.8993 34.7701 12.9238 34.659 12.9422 34.582C12.9606 34.505 12.9626 34.4822 12.9749 34.4309C12.9871 34.3796 13.0014 34.3226 13.0157 34.2684C13.03 34.2143 13.0504 34.1373 13.0688 34.0689C13.0872 34.0005 13.0954 33.9805 13.1076 33.9349C13.1199 33.8893 13.1505 33.7895 13.173 33.7182L13.2158 33.5843L13.2873 33.3733L13.3363 33.2393C13.3608 33.1709 13.3874 33.1053 13.4139 33.0369C13.4405 32.9685 13.4486 32.9485 13.467 32.9029C13.4854 32.8573 13.5201 32.7718 13.5487 32.7062C13.5773 32.6407 13.5875 32.6179 13.6079 32.5722L13.6937 32.387L13.7611 32.2473L13.8468 32.0848L13.9306 31.9223L14.0061 31.7912C14.0449 31.7227 14.0837 31.6572 14.1245 31.5916L14.1919 31.4833C14.2593 31.3807 14.3267 31.278 14.3961 31.1811L14.4717 31.0756C14.5493 30.9702 14.6289 30.8704 14.7065 30.7906C14.9193 30.5291 15.1498 30.2971 15.3947 30.0978C15.4784 30.0294 15.5601 29.9724 15.6418 29.9182L15.7071 29.8755C15.7847 29.8299 15.8623 29.7843 15.9379 29.7472C16.0049 29.7149 16.073 29.6873 16.1421 29.6645L16.2544 29.6303C16.3177 29.6161 16.3789 29.599 16.4402 29.5904L13.5957 27.2272Z" fill="url(#paint3_linear_696_2414)"/>
<path id="Vector_7" d="M22.0681 15.6875C24.8044 13.481 27.0894 14.7867 27.5979 18.5382C27.9239 18.099 28.2866 17.7162 28.6781 17.3979C30.1504 16.212 31.4083 16.6881 31.9005 18.3843C32.2057 17.8646 32.5733 17.4228 32.9868 17.0786C34.114 16.1693 35.0595 16.6881 35.2821 18.2189C35.2979 18.478 35.2628 18.7382 35.1803 18.9713C35.0979 19.2044 34.9714 19.4017 34.8144 19.5417L13.2118 36.9367C12.9484 37.1505 12.7319 36.9766 12.7319 36.5547C12.7319 34.7359 13.4242 32.501 14.4983 31.0585C14.7756 30.6762 15.0856 30.343 15.4213 30.0665C15.7417 29.7938 16.1003 29.6208 16.4729 29.559V29.2227C16.4566 24.251 18.9642 18.1876 22.0681 15.6875Z" fill="url(#paint4_linear_696_2414)"/>
<path id="Vector_8" d="M19.1808 13.3527C19.0338 13.4725 18.8868 13.6007 18.7418 13.7347L18.6662 13.806C18.5274 13.94 18.3906 14.0911 18.2578 14.2222L18.1782 14.3077C18.0414 14.4588 17.9046 14.6156 17.7698 14.7809L17.7453 14.8094C17.6166 14.9691 17.488 15.1373 17.3614 15.3112L17.3185 15.3653L17.2899 15.4052C17.2041 15.525 17.1184 15.6447 17.0347 15.7701L17.002 15.8157C16.908 15.9583 16.8141 16.1008 16.7222 16.2462C16.7165 16.258 16.7097 16.2685 16.7018 16.2775L16.6753 16.326C16.5303 16.5569 16.3894 16.7964 16.2526 17.0415L16.2423 17.0586C16.2347 17.076 16.2258 17.0922 16.2158 17.1071C16.1076 17.3067 16.0116 17.5062 15.8972 17.7115L15.8646 17.7713L15.8503 17.8027C15.7523 17.9965 15.6583 18.1961 15.5644 18.3956L15.5378 18.4526L15.5011 18.5382C15.4255 18.7035 15.352 18.8717 15.2806 19.0399L15.2479 19.1169L15.2356 19.1482C15.1539 19.3421 15.0763 19.5359 15.0028 19.7326L14.9824 19.7782C14.9702 19.8124 14.96 19.8438 14.9477 19.8751C14.8885 20.0319 14.8313 20.1916 14.7762 20.3484L14.7415 20.4453C14.7415 20.4652 14.7292 20.4852 14.721 20.5051C14.6537 20.7047 14.5863 20.9071 14.5168 21.1095V21.1266L14.4985 21.1922C14.4433 21.3746 14.3882 21.5571 14.3371 21.7424L14.3126 21.8307C14.3049 21.8549 14.2981 21.8797 14.2922 21.9048C14.233 22.1215 14.1779 22.3382 14.1248 22.5577V22.5719C14.1257 22.5842 14.1257 22.5967 14.1248 22.609C14.0717 22.8351 14.0227 23.0603 13.9777 23.2846L13.9594 23.3701C13.9582 23.3853 13.9582 23.4006 13.9594 23.4157C13.9083 23.678 13.8613 23.9374 13.8205 24.1997C13.8174 24.2228 13.8133 24.2456 13.8082 24.2681L13.796 24.3707C13.7797 24.4733 13.7654 24.576 13.7531 24.6786C13.7531 24.7499 13.7347 24.8211 13.7266 24.8895C13.7184 24.958 13.7021 25.1005 13.6919 25.206C13.6919 25.2573 13.6796 25.3057 13.6755 25.3571C13.6745 25.3694 13.6745 25.3818 13.6755 25.3941C13.6551 25.6193 13.6388 25.8445 13.6286 26.0669C13.6286 26.1153 13.6286 26.161 13.6286 26.2094C13.6286 26.4375 13.6143 26.6655 13.6143 26.8907C13.6143 27.0048 13.6143 27.1159 13.6143 27.2271L16.4915 29.5618V29.2255C16.4915 29.0003 16.4915 28.7722 16.5078 28.5441V28.4016C16.5201 28.1793 16.5344 27.9569 16.5548 27.7288L16.5732 27.5435C16.5854 27.4381 16.5956 27.3326 16.6079 27.2243C16.6201 27.1159 16.6262 27.0846 16.6344 27.0133L16.6773 26.7054C16.6773 26.6484 16.6957 26.5914 16.7038 26.5344C16.7447 26.275 16.7896 26.0127 16.8407 25.7504C16.8509 25.7077 16.859 25.6649 16.8672 25.6193C16.9142 25.3941 16.9632 25.1689 17.0163 24.9466L17.0285 24.8924C17.0796 24.6757 17.1368 24.4562 17.196 24.2396C17.2103 24.1854 17.2246 24.1312 17.2409 24.0771C17.292 23.8918 17.345 23.7093 17.4022 23.5269L17.4267 23.4442C17.49 23.2418 17.5554 23.0394 17.6309 22.8399L17.6861 22.6831C17.7419 22.5253 17.7991 22.3686 17.8576 22.2127C17.8739 22.1643 17.8923 22.1158 17.9107 22.0673C17.9862 21.8706 18.0638 21.6768 18.1435 21.4972C18.1598 21.4601 18.1761 21.4259 18.1904 21.3889C18.2619 21.2207 18.3354 21.0525 18.4089 20.89C18.4314 20.8415 18.4518 20.7931 18.4743 20.7475C18.5662 20.5451 18.6622 20.3455 18.7602 20.1517L18.8051 20.0604C18.9092 19.858 19.0093 19.6556 19.1237 19.4589L19.1624 19.3905C19.2972 19.1454 19.4402 18.9059 19.5831 18.675L19.6321 18.5952C19.724 18.4498 19.8159 18.3101 19.9119 18.1676L19.9445 18.1191C20.0283 17.9937 20.114 17.8739 20.1998 17.7542L20.2692 17.6601C20.3958 17.4862 20.5245 17.3209 20.6552 17.1584L20.6797 17.1299C20.8124 16.9646 20.9492 16.8078 21.0881 16.6567L21.1677 16.5712C21.3025 16.4258 21.4393 16.2861 21.5761 16.1578L21.6537 16.0866C21.7987 15.9497 21.9437 15.8214 22.0928 15.7017L19.1808 13.3527Z" fill="url(#paint5_linear_696_2414)"/>
</g>
<g id="Vector_9" style="mix-blend-mode:multiply">
<path d="M86.6062 74.3151C84.942 74.3151 83.3819 73.7991 82.2159 72.8584C81.1377 71.9889 80.5435 70.88 80.5435 69.7369C80.5435 68.5938 81.1254 67.5048 82.1771 66.6467C83.3349 65.7088 84.8889 65.19 86.5531 65.19C88.2174 65.19 89.7816 65.7088 90.9496 66.6496C92.0258 67.5048 92.618 68.6251 92.62 69.7682C92.6221 70.9114 92.038 72.0004 90.9864 72.8584C89.8347 73.7991 88.2725 74.3151 86.6062 74.3151Z" fill="#D6C9C1"/>
</g>
<path id="Vector_10" d="M92.4079 53.7045L92.3772 68.6165C92.3772 69.8138 91.8116 71.0111 90.6864 71.9233C88.4198 73.7621 84.7319 73.7621 82.4509 71.9233C81.3013 70.9969 80.7275 69.7825 80.7295 68.5681L80.7601 53.656C80.7601 54.8676 81.3319 56.0848 82.4816 57.0113C84.7625 58.85 88.4504 58.85 90.7171 57.0113C91.8422 56.0962 92.4058 54.8961 92.4079 53.7045Z" fill="url(#paint6_linear_696_2414)"/>
<path id="Vector_11" d="M90.6904 50.352C92.9713 52.1908 92.9836 55.1726 90.7169 57.0113C88.4503 58.85 84.7623 58.85 82.4814 57.0113C80.2005 55.1726 80.1862 52.1879 82.4528 50.3492C84.7195 48.5105 88.4053 48.5105 90.6904 50.352Z" fill="url(#paint7_linear_696_2414)"/>
<path id="Vector_12" d="M86.6044 57.7126C85.1321 57.7126 83.7558 57.2536 82.7245 56.4241C81.7729 55.6572 81.2481 54.6766 81.2461 53.6646C81.2441 52.6526 81.7607 51.6948 82.6959 50.9365C83.717 50.1041 85.0912 49.6479 86.5635 49.6479C88.0358 49.6479 89.4224 50.1069 90.4434 50.9393C91.395 51.7062 91.9177 52.684 91.9198 53.6931C91.9218 54.7023 91.4052 55.6658 90.4679 56.4241C89.4489 57.2536 88.0767 57.7126 86.6044 57.7126Z" fill="url(#paint8_linear_696_2414)"/>
<path id="Vector_13" d="M90.4474 53.4708C89.4141 52.6383 88.0358 52.1794 86.5676 52.1794C85.0993 52.1794 83.7189 52.6469 82.6877 53.4708C82.2237 53.8221 81.8261 54.3224 81.5278 54.9303C81.8335 55.5513 82.241 56.0614 82.7163 56.4184C83.7475 57.2479 85.1238 57.7069 86.5961 57.7069C88.0685 57.7069 89.4407 57.2479 90.4638 56.4184C90.9282 56.0681 91.3264 55.5688 91.6257 54.9617C91.3235 54.3409 90.9196 53.8297 90.4474 53.4708Z" fill="url(#paint9_linear_696_2414)"/>
<path id="Vector_14" d="M92.3731 69.1981L91.4685 69.9279C91.0744 70.2472 90.5271 70.2129 89.9268 69.7198L90.8273 68.99C91.4317 69.4746 91.979 69.5174 92.3731 69.1981Z" fill="url(#paint10_linear_696_2414)"/>
<path id="Vector_15" d="M90.8556 57.4617L89.9551 58.1915C91.652 59.557 93.0181 62.8781 93.0181 65.6034V68.7078C93.0181 70.0619 92.673 71.0112 92.1196 71.4587L93.0202 70.7289C93.5715 70.2814 93.9146 69.3292 93.9187 67.978V64.8736C93.9187 62.1597 92.5505 58.8386 90.8556 57.4617Z" fill="url(#paint11_linear_696_2414)"/>
<path id="Vector_16" d="M89.953 58.2029C91.65 59.5684 93.0161 62.8895 93.0161 65.6148V68.7192C93.0161 71.4416 91.6275 72.542 89.9326 71.1737V69.7198C91.1272 70.6805 92.1053 69.9051 92.1094 67.9866V64.8821C92.1094 62.9665 91.1415 60.6061 89.9469 59.654L89.953 58.2029Z" fill="url(#paint12_linear_696_2414)"/>
<g id="Vector_17" style="mix-blend-mode:multiply">
<path d="M82.0158 75.7319L81.8463 77.0775L63.468 91.9012C62.9461 92.3215 62.3542 92.5427 61.7517 92.5427C61.1492 92.5427 60.5573 92.3215 60.0354 91.9012L32.0044 69.2523C31.7933 69.0818 31.618 68.8368 31.4961 68.5418C31.3742 68.2468 31.3101 67.9123 31.3101 67.5718C31.3101 67.2313 31.3742 66.8967 31.4961 66.6018C31.618 66.3068 31.7933 66.0618 32.0044 65.8913L50.0151 51.3755L81.0968 76.4617L82.0158 75.7319Z" fill="#D6C9C1"/>
</g>
<path id="Vector_18" d="M81.5339 75.8716L62.9862 90.815C61.5282 91.9895 60.3315 91.0288 60.3315 88.6798C60.3315 86.3309 61.5241 83.4459 62.9862 82.2714L81.5339 67.3223V68.5082L80.5701 69.2865V75.6749L81.5339 74.9138V75.8716Z" fill="url(#paint13_linear_696_2414)"/>
<path id="Vector_19" d="M80.5698 75.7063L63.1207 89.7603C62.0282 90.6411 61.1338 89.9228 61.1338 88.161C61.1338 86.3993 62.0282 84.2356 63.1207 83.3547L80.5698 69.2922V75.7063Z" fill="url(#paint14_linear_696_2414)"/>
<g id="Clip path group">
<mask id="mask0_696_2414" style="mask-type:luminance" maskUnits="userSpaceOnUse" x="61" y="69" width="20" height="22">
<g id="clip-path">
<path id="Vector_20" d="M80.5698 75.7063L63.1207 89.7603C62.0282 90.6411 61.1338 89.9228 61.1338 88.161C61.1338 86.3993 62.0282 84.2356 63.1207 83.3547L80.5698 69.2922V75.7063Z" fill="white"/>
</g>
</mask>
<g mask="url(#mask0_696_2414)">
<g id="Group_3">
<g id="Vector_21" style="mix-blend-mode:multiply">
<path d="M80.7107 71.0397L64.1846 84.3667" stroke="#E5DBD3" stroke-miterlimit="10"/>
</g>
<g id="Vector_22" style="mix-blend-mode:multiply">
<path d="M80.7108 72.4308L63.2637 86.4934" stroke="#E5DBD3" stroke-miterlimit="10"/>
</g>
<g id="Vector_23" style="mix-blend-mode:multiply">
<path d="M80.7107 73.822L64.1846 87.149" stroke="#E5DBD3" stroke-miterlimit="10"/>
</g>
</g>
</g>
</g>
<path id="Vector_24" d="M51.4179 43.0543L81.5337 67.328L62.986 82.2772L32.8701 58.0062L51.4179 43.0543Z" fill="url(#paint15_linear_696_2414)"/>
<path id="Vector_25" d="M42.8005 63.1232C42.3165 62.7298 42.3165 62.0884 42.8005 61.6979L53.7886 52.8407C54.0628 52.6475 54.3657 52.5469 54.6728 52.5469C54.98 52.5469 55.2828 52.6475 55.557 52.8407L55.6122 52.8863C56.0982 53.2797 56.0982 53.924 55.6122 54.3117L44.624 63.1631C44.3502 63.3563 44.0476 63.4569 43.7408 63.4569C43.434 63.4569 43.1315 63.3563 42.8576 63.1631L42.8005 63.1232Z" fill="#591F03"/>
<path id="Vector_26" d="M81.5337 74.9195L80.5679 75.6977V74.0728L81.5337 74.8511" fill="url(#paint16_linear_696_2414)"/>
<path id="Vector_27" d="M62.9838 82.2771C62.213 82.9808 61.5712 83.9273 61.1102 85.0403C60.6491 86.1533 60.3816 87.4019 60.3292 88.6855C60.3292 89.8258 60.6048 90.624 61.0561 91.0288L31.0383 66.8434C30.5258 66.4785 30.2031 65.6319 30.2031 64.4118C30.256 63.1287 30.5237 61.8807 30.9848 60.7683C31.4458 59.6558 32.0873 58.7098 32.8578 58.0062L38.1568 62.2823L62.9838 82.2771Z" fill="url(#paint17_linear_696_2414)"/>
<path id="Vector_28" d="M82.8795 62.9949L65.5876 76.9292C64.2296 78.0267 63.1167 77.1288 63.1167 74.9337C63.1167 72.7444 64.2296 70.0561 65.5876 68.9615L82.8795 55.0244V56.1276L81.9789 56.8545V62.8096L82.8795 62.1027V62.9949Z" fill="url(#paint18_linear_696_2414)"/>
<path id="Vector_29" d="M81.9792 62.8325L65.7144 75.9457C64.6934 76.7667 63.8623 76.094 63.8623 74.4519C63.8623 72.8099 64.6955 70.7945 65.7144 69.9735L81.9792 56.8602V62.8325Z" fill="url(#paint19_linear_696_2414)"/>
<g id="Clip path group_2">
<mask id="mask1_696_2414" style="mask-type:luminance" maskUnits="userSpaceOnUse" x="63" y="56" width="19" height="21">
<g id="clip-path-2">
<path id="Vector_30" d="M81.9792 62.8325L65.7144 75.9457C64.6934 76.7667 63.8623 76.094 63.8623 74.4519C63.8623 72.8099 64.6955 70.7945 65.7144 69.9735L81.9792 56.8602V62.8325Z" fill="white"/>
</g>
</mask>
<g mask="url(#mask1_696_2414)">
<g id="Group_4">
<g id="Vector_31" style="mix-blend-mode:multiply">
<path d="M82.1117 58.488L66.7046 70.9142" stroke="#E5DBD3" stroke-miterlimit="10"/>
</g>
<g id="Vector_32" style="mix-blend-mode:multiply">
<path d="M82.1119 59.785L65.8472 72.8954" stroke="#E5DBD3" stroke-miterlimit="10"/>
</g>
<g id="Vector_33" style="mix-blend-mode:multiply">
<path d="M82.1117 61.0822L66.7046 73.5084" stroke="#E5DBD3" stroke-miterlimit="10"/>
</g>
</g>
</g>
</g>
<path id="Vector_34" d="M54.8036 32.4012L82.8795 55.0301L65.5876 68.9672L37.5117 46.3383L54.8036 32.4012Z" fill="url(#paint20_linear_696_2414)"/>
<path id="Vector_35" d="M46.7256 49.1234L58.6184 39.5393L60.3173 40.9162L48.4246 50.5003L46.7256 49.1234Z" fill="url(#paint21_linear_696_2414)"/>
<path id="Vector_36" d="M82.8795 62.1084L81.979 62.8325V61.3187L82.8795 62.0428" fill="url(#paint22_linear_696_2414)"/>
<path id="Vector_37" d="M65.5877 68.9672C64.8695 69.6228 64.2717 70.5049 63.8425 71.5423C63.4133 72.5797 63.1648 73.7433 63.1169 74.9394C63.1169 75.9942 63.3742 76.7468 63.7948 77.1231L35.819 54.5797C35.3392 54.2376 35.041 53.4394 35.041 52.2991C35.0876 51.1009 35.3353 49.9349 35.7642 48.895C36.193 47.8551 36.791 46.9705 37.5098 46.3126L42.4597 50.335L65.5877 68.9672Z" fill="url(#paint23_linear_696_2414)"/>
<path id="Vector_38" d="M77.9784 56.0592L62.1119 68.8446C60.8662 69.8509 59.8452 69.0299 59.8452 67.0202C59.8452 65.0247 60.8662 62.5446 62.1119 61.5383L77.9784 48.75V49.7649L77.1616 50.4291V55.8967L77.9784 55.2439V56.0592Z" fill="url(#paint24_linear_696_2414)"/>
<path id="Vector_39" d="M77.1535 55.9109L62.2283 67.9409C61.293 68.6935 60.5293 68.0778 60.5293 66.5697C60.5293 65.0617 61.293 63.2116 62.2283 62.459L77.1535 50.429V55.9109Z" fill="url(#paint25_linear_696_2414)"/>
<g id="Clip path group_3">
<mask id="mask2_696_2414" style="mask-type:luminance" maskUnits="userSpaceOnUse" x="60" y="50" width="18" height="19">
<g id="clip-path-3">
<path id="Vector_40" d="M77.1535 55.9109L62.2283 67.9409C61.293 68.6935 60.5293 68.0778 60.5293 66.5697C60.5293 65.0617 61.293 63.2116 62.2283 62.459L77.1535 50.429V55.9109Z" fill="white"/>
</g>
</mask>
<g mask="url(#mask2_696_2414)">
<g id="Group_5">
<g id="Vector_41" style="mix-blend-mode:multiply">
<path d="M77.2659 51.9627L63.1289 63.3627" stroke="#E5DBD3" stroke-miterlimit="10"/>
</g>
<g id="Vector_42" style="mix-blend-mode:multiply">
<path d="M77.266 53.1543L62.3408 65.1843" stroke="#E5DBD3" stroke-miterlimit="10"/>
</g>
<g id="Vector_43" style="mix-blend-mode:multiply">
<path d="M77.2659 54.3431L63.1289 65.7431" stroke="#E5DBD3" stroke-miterlimit="10"/>
</g>
</g>
</g>
</g>
<path id="Vector_44" d="M52.2186 27.9883L77.9788 48.75L62.1122 61.5383L36.3521 40.7766L52.2186 27.9883Z" fill="url(#paint26_linear_696_2414)"/>
<path id="Vector_45" d="M77.9789 55.2439L77.1519 55.911V54.5198L77.9789 55.1869" fill="url(#paint27_linear_696_2414)"/>
<path id="Vector_46" d="M62.1122 61.5382C61.4532 62.1403 60.9048 62.95 60.5111 63.9022C60.1174 64.8544 59.8894 65.9224 59.8456 67.0201C59.8456 67.9865 60.0824 68.6764 60.4684 69.0156L34.8021 48.3394C34.361 48.0287 34.0874 47.3018 34.0874 46.2584C34.1316 45.1612 34.3597 44.0938 34.7534 43.1421C35.1471 42.1904 35.6953 41.3811 36.3541 40.7794L40.8853 44.434L62.1122 61.5382Z" fill="url(#paint28_linear_696_2414)"/>
<path id="Vector_47" d="M64.1746 59.2634C64.0828 59.1835 64.0072 59.0721 63.955 58.9399C63.9028 58.8077 63.8758 58.6589 63.8765 58.508V53.0688C63.8765 52.245 64.2645 51.4239 65.1732 51.3783C66.0819 51.3327 66.4351 52.2906 66.4351 53.217V58.7189C66.4351 58.7189 66.3963 59.7395 65.1017 59.634C64.7751 59.6225 64.456 59.4949 64.1746 59.2634Z" fill="url(#paint29_linear_696_2414)"/>
<path id="Vector_48" style="mix-blend-mode:multiply" opacity="0.3" d="M66.4353 25.4796V43.6187C66.4203 45.0044 66.097 46.3493 65.5102 47.4671C64.7739 48.8615 63.8281 50.0145 62.7392 50.8452C57.8057 54.8362 49.7376 54.8362 44.8061 50.8452C42.3373 48.8497 41.106 46.2385 41.106 43.6187V25.3571C41.106 27.974 42.3312 30.5938 44.8061 32.5836C49.7376 36.5746 57.8057 36.5746 62.7392 32.5836C65.1631 30.6223 66.3985 28.0567 66.4353 25.4796Z" fill="url(#paint30_linear_696_2414)"/>
<path id="Vector_49" d="M66.4353 24.7783V42.9231C66.4205 44.3089 66.0972 45.6539 65.5102 46.7716C64.7739 48.1659 63.8281 49.3189 62.7392 50.1496C57.8057 54.1264 49.7376 54.1264 44.8061 50.1496C42.3373 48.1541 41.106 45.5429 41.106 42.9231V24.6558C41.106 27.2727 42.3312 29.8925 44.8061 31.8823C49.7376 35.859 57.8057 35.859 62.7392 31.8823C65.1631 29.9239 66.3985 27.3554 66.4353 24.7783Z" fill="url(#paint31_linear_696_2414)"/>
<path id="Vector_50" d="M66.4353 24.6558V24.7783C66.3985 27.344 65.1631 29.9239 62.7392 31.8823C57.8057 35.859 49.7376 35.859 44.8061 31.8823C42.3373 29.8868 41.106 27.2727 41.106 24.6558C41.106 22.0388 42.3312 19.419 44.8061 17.4292C49.7376 13.4525 57.8057 13.4525 62.7392 17.4292C65.2039 19.4247 66.4332 22.036 66.4332 24.6558H66.4353Z" fill="white" stroke="#3154A9" stroke-width="1.5" stroke-linecap="round" stroke-linejoin="round"/>
<path id="Vector_51" d="M53.7703 6.71344L31.3101 24.8154L53.7703 42.9174L76.2286 24.8154L53.7703 6.71344Z" fill="url(#paint32_linear_696_2414)"/>
<path id="Vector_52" d="M76.2287 24.8154V27.2414L53.7705 45.3434V42.9174L76.2287 24.8154Z" fill="url(#paint33_linear_696_2414)"/>
<path id="Vector_53" d="M31.3101 24.8154V27.2414L53.7703 45.3434V42.9174L31.3101 24.8154Z" fill="url(#paint34_linear_696_2414)"/>
<path id="Vector_54" d="M66.0245 50.677C66.0249 50.9299 65.9715 51.1772 65.8712 51.3876C65.7708 51.5981 65.6279 51.7622 65.4607 51.8592C65.2934 51.9563 65.1093 51.9818 64.9317 51.9326C64.754 51.8834 64.5908 51.7617 64.4628 51.5829C64.3347 51.4042 64.2475 51.1763 64.2123 50.9283C64.1771 50.6803 64.1954 50.4233 64.2649 50.1898C64.3343 49.9564 64.4519 49.7569 64.6027 49.6168C64.7534 49.4767 64.9306 49.4022 65.1117 49.4028C65.3538 49.4028 65.5859 49.537 65.7571 49.776C65.9283 50.015 66.0245 50.3391 66.0245 50.677Z" fill="url(#paint35_radial_696_2414)"/>
<g id="Group_6" opacity="0.3">
<path id="Vector_55" d="M65.7183 52.2021C66.1022 52.473 66.2104 53.1714 66.2083 53.7216C66.2063 54.2718 66.2288 54.8619 66.2308 55.432C66.2308 56.5723 66.2104 57.6955 66.1287 58.83C66.0491 57.6898 66.0307 56.5637 66.0266 55.432C66.0266 54.8619 66.0266 54.2917 66.0511 53.7216C66.0756 53.1514 66.0511 52.5813 65.7183 52.2021Z" fill="#5E0804"/>
<path id="Vector_56" d="M65.3647 52.2021C65.6894 53.2883 65.6139 54.5027 65.6343 55.6572C65.6547 56.8117 65.6139 57.9748 65.5322 59.1322C65.4525 57.9748 65.4342 56.8146 65.4301 55.6572C65.426 54.4998 65.5322 53.3481 65.3647 52.2021Z" fill="#5E0804"/>
<path id="Vector_57" d="M64.9217 52.3048C64.9013 54.5369 65.032 56.7662 64.8503 58.9926C64.7706 57.8779 64.7523 56.7633 64.7482 55.6487C64.7441 54.5341 64.7196 53.3966 64.9217 52.3048Z" fill="#5E0804"/>
<path id="Vector_58" d="M64.5133 51.9513C64.3091 52.4473 64.3561 53.0374 64.3663 53.5933C64.4163 55.2939 64.3898 56.9973 64.2867 58.6932C64.205 57.5529 64.1866 56.4127 64.1846 55.2895C64.1846 54.7193 64.1846 54.1492 64.207 53.5791C64.2295 53.0089 64.2315 52.3704 64.5133 51.9427V51.9513Z" fill="#5E0804"/>
</g>
<path id="Vector_59" d="M72.939 15.5791C72.939 15.5791 61.3566 3.84276 56.9785 0C56.9785 0 67.7666 7.71117 72.3325 9.47576C72.3325 9.47576 72.7552 12.8481 72.939 15.5791Z" fill="url(#paint36_linear_696_2414)"/>
<path id="Vector_60" d="M56.9785 0C61.3566 3.84276 72.939 15.5791 72.939 15.5791C72.939 15.5791 70.5805 12.1583 69.927 11.0978C69.927 11.0978 59.041 1.30277 56.9785 0Z" fill="url(#paint37_linear_696_2414)"/>
<path id="Vector_61" d="M72.3325 9.47576C74.2725 8.14447 78.5362 5.45055 80.7804 3.97674C80.7804 3.97674 64.628 0.878018 56.9785 0C56.9785 0 67.7666 7.71117 72.3325 9.47576Z" fill="url(#paint38_linear_696_2414)"/>
<path id="Vector_62" d="M69.927 11.0978C69.927 11.0978 59.041 1.30277 56.9785 0L59.4943 19.0285C59.4943 19.0285 64.0358 15.1686 69.927 11.0978Z" fill="url(#paint39_linear_696_2414)"/>
<g id="Group_7">
<path id="Vector_63" d="M83.735 26.8651L83.6472 26.7482L83.6084 26.6969L83.5839 26.6627L83.445 26.4945L83.3797 26.4175L83.3511 26.3862L83.3164 26.3463L83.1939 26.2151L83.106 26.1268L83.0958 26.1039L83.0815 26.0868L82.9651 25.9814L82.8528 25.8844L82.8263 25.8645C82.7982 25.8389 82.7688 25.8161 82.7385 25.7961C82.7017 25.7676 82.665 25.7391 82.6262 25.7134H82.6078L82.5853 25.6991L82.5139 25.6507L82.3975 25.5823H82.3791H82.3546L82.279 25.5338L82.1585 25.4768H82.1422H82.1197L82.034 25.4426L81.9033 25.4027L81.7971 25.377H81.7767H81.7338H81.6827H81.5255H81.4643H81.4377H81.405H81.3213H81.2927H81.2743C81.221 25.3919 81.1685 25.4119 81.1171 25.4369H81.1049C81.0346 25.4735 80.9663 25.5173 80.9007 25.568L78.0234 27.9027C78.0887 27.8509 78.157 27.8071 78.2276 27.7716H78.2378C78.2889 27.7488 78.342 27.7288 78.3951 27.7117H78.4441C78.4716 27.7031 78.4996 27.6973 78.5278 27.6946H78.585H78.7708H78.8545H78.8974L79.024 27.7231C79.0996 27.7431 79.1731 27.7688 79.2446 27.7973H79.267C79.3385 27.8258 79.4079 27.86 79.4712 27.897H79.4937C79.5631 27.9341 79.6326 27.9769 79.6979 28.0225L79.7183 28.0367C79.7918 28.0852 79.8653 28.1394 79.9368 28.1992C80.0083 28.2591 80.1186 28.3532 80.2084 28.4387L80.2227 28.4529C80.3064 28.5356 80.3881 28.6211 80.4677 28.7123L80.4984 28.7466C80.576 28.8349 80.6515 28.9261 80.7271 29.0316L80.7638 29.0829C80.8394 29.1827 80.9149 29.2882 80.9885 29.3937L83.8657 27.0589L83.735 26.8651Z" fill="url(#paint40_linear_696_2414)"/>
<path id="Vector_64" d="M89.5018 22.2327L89.3241 22.093L89.2567 22.0445L89.1648 21.979L89.0933 21.9276C89.0545 21.8991 89.0178 21.8763 88.981 21.8535L88.8994 21.7994L88.8646 21.7766L88.6461 21.6454C88.5726 21.6027 88.4971 21.5628 88.4236 21.5285H88.395L88.3133 21.4915C88.2765 21.4744 88.2377 21.4544 88.1989 21.4402L88.1418 21.4174L88.0437 21.3803L87.9661 21.3489L87.8885 21.3261L87.7885 21.2948L87.7374 21.2777L87.6456 21.2577L87.5312 21.2321H87.4904H87.3985C87.3576 21.2321 87.3168 21.2321 87.2759 21.215H87.2412H87.1596C87.1126 21.215 87.0636 21.215 87.0166 21.215H86.9165H86.7389H86.6858H86.647C86.5572 21.2292 86.4693 21.2463 86.3836 21.2691H86.355L86.3039 21.2862L86.1447 21.3404L86.0691 21.3746L85.969 21.4174H85.9445C85.8935 21.443 85.8445 21.4715 85.7955 21.5029L85.724 21.5456C85.6525 21.5913 85.5831 21.6426 85.5198 21.6967L82.6426 24.0315C82.71 23.9773 82.7814 23.926 82.8468 23.8804L82.9183 23.8376C82.9673 23.8091 83.0163 23.7778 83.0673 23.7521L83.1898 23.6951L83.2654 23.6609L83.4247 23.6067L83.4778 23.5896H83.5043C83.5921 23.5668 83.6799 23.5497 83.7677 23.5354H83.8617H84.0373H84.1394H84.2823H84.3987L84.5192 23.5525L84.6519 23.5754C84.6907 23.5754 84.7275 23.5925 84.7663 23.601L84.9113 23.6381L85.0093 23.6694L85.1645 23.7236L85.2645 23.7606L85.4361 23.8348L85.5157 23.8718C85.5994 23.9117 85.6832 23.9545 85.7689 24.003L86.0221 24.1569L86.1038 24.2111L86.2876 24.3365L86.3795 24.4021C86.4612 24.461 86.5429 24.5237 86.6245 24.5902L89.5018 22.2555V22.2327Z" fill="url(#paint41_linear_696_2414)"/>
<path id="Vector_65" d="M94.9909 33.8778C94.9909 33.8151 94.9766 33.7524 94.9684 33.6897C94.9603 33.627 94.9541 33.5699 94.946 33.5101C94.9448 33.4968 94.9448 33.4834 94.946 33.4702C94.946 33.4074 94.9255 33.3447 94.9174 33.282C94.9092 33.2193 94.899 33.1509 94.8888 33.0853V33.0511C94.8888 32.9884 94.8684 32.9285 94.8581 32.8687C94.8479 32.8088 94.8357 32.7233 94.8214 32.652C94.8214 32.652 94.8214 32.6292 94.8214 32.6178C94.8214 32.6064 94.801 32.5209 94.7928 32.4724C94.7765 32.3812 94.7581 32.29 94.7397 32.1873C94.7397 32.1873 94.7397 32.156 94.7397 32.1389C94.7397 32.1218 94.7213 32.0534 94.7111 32.0106C94.6907 31.9137 94.6703 31.8168 94.6478 31.7255C94.6478 31.6999 94.6376 31.6771 94.6335 31.6514L94.607 31.5488C94.5825 31.4405 94.5559 31.3321 94.5294 31.2238L94.5049 31.1212L94.4865 31.0585C94.4436 30.8874 94.3987 30.7164 94.3497 30.5482C94.3497 30.5482 94.3497 30.5482 94.3497 30.5311C94.2905 30.3201 94.2272 30.1149 94.1618 29.9068C94.1559 29.8825 94.1491 29.8588 94.1414 29.8355L94.1271 29.7956C94.0352 29.5105 93.9372 29.2255 93.8331 28.9404L93.8208 28.9033C93.8204 28.8967 93.8204 28.89 93.8208 28.8834C93.7146 28.5983 93.6023 28.3132 93.4859 28.0282C93.3675 27.7431 93.2449 27.458 93.1163 27.1929C93.11 27.1766 93.1025 27.1613 93.0938 27.1473C92.9734 26.8879 92.8468 26.6342 92.7181 26.3862C92.7059 26.3605 92.6916 26.3377 92.6793 26.3149C92.5527 26.0754 92.4241 25.8388 92.2893 25.6108L92.2689 25.5737L92.2423 25.5309C92.1096 25.3057 91.9728 25.0862 91.8339 24.8696L91.8074 24.8297L91.7767 24.7841C91.6726 24.6273 91.5725 24.4762 91.4623 24.3279L91.448 24.3051C91.4313 24.2857 91.4156 24.2648 91.401 24.2424L91.1764 23.9574L91.1314 23.8975L91.0865 23.8405L90.913 23.6267L90.8496 23.5497L90.8211 23.5155C90.7659 23.4499 90.7108 23.3901 90.6557 23.3273L90.5821 23.2418L90.5638 23.2219C90.5127 23.1649 90.4596 23.1107 90.4065 23.0565L90.3228 22.9653H90.3106C90.2738 22.9254 90.235 22.8883 90.1962 22.8513L90.0778 22.7315H90.0635L89.9593 22.6346L89.8368 22.5206L89.8164 22.5035L89.7163 22.418C89.6775 22.3838 89.6387 22.3496 89.5979 22.3182L89.5428 22.2726L86.6655 24.6073L86.8371 24.7527L86.9371 24.8382L87.0821 24.9694L87.1863 25.0663L87.319 25.1974L87.4333 25.3114L87.5293 25.4141L87.6845 25.5794L87.7784 25.6849L87.9418 25.873L88.0357 25.9871L88.2073 26.198L88.2992 26.3149C88.3747 26.4118 88.4482 26.5116 88.5217 26.6142L88.583 26.6969C88.6892 26.8451 88.7872 26.9962 88.8975 27.153C88.9176 27.1811 88.9367 27.2106 88.9546 27.2414C89.0955 27.4552 89.2324 27.6747 89.3631 27.8999C89.3776 27.9277 89.3933 27.9544 89.41 27.9797C89.5427 28.2106 89.6734 28.4444 89.8 28.6838L89.8368 28.7551C89.9675 29.0031 90.0921 29.2568 90.2146 29.5162L90.235 29.5618C90.3636 29.8469 90.4882 30.1149 90.6046 30.3971C90.721 30.6822 90.8333 30.9672 90.9395 31.2523L90.9579 31.3093C91.062 31.5944 91.1621 31.8795 91.2519 32.1645L91.2887 32.2757C91.354 32.4838 91.4173 32.6919 91.4765 32.9V32.92C91.5235 33.091 91.5684 33.2592 91.6134 33.4274C91.6277 33.4844 91.6419 33.5386 91.6542 33.5956C91.6828 33.7039 91.7073 33.8123 91.7338 33.9206L91.7747 34.0973L91.838 34.3824L91.8747 34.5563C91.8931 34.6475 91.9095 34.7387 91.9258 34.8414C91.9421 34.944 91.9503 34.9611 91.9605 35.021L91.9973 35.2376C92.0095 35.3089 92.0218 35.383 92.032 35.4543C92.0422 35.5255 92.0524 35.5854 92.0606 35.651C92.0687 35.7165 92.083 35.8049 92.0932 35.879C92.1035 35.9531 92.1096 36.0016 92.1157 36.0615C92.1218 36.1213 92.1402 36.2525 92.1504 36.3465L95.0297 34.0118L94.9909 33.8778Z" fill="url(#paint42_linear_696_2414)"/>
<path id="Vector_66" d="M99.2708 40.6425C99.2504 40.5428 99.2279 40.443 99.2055 40.3575C99.2055 40.3432 99.2055 40.3318 99.2055 40.3204C99.2055 40.309 99.1912 40.2634 99.185 40.2349L99.136 40.0296L99.1034 39.9099C99.0891 39.8614 99.0768 39.813 99.0646 39.7645C99.0545 39.7319 99.0456 39.6986 99.038 39.6647L98.989 39.5051L98.9298 39.3084C98.9298 39.2827 98.9155 39.2599 98.9073 39.2371C98.8992 39.2143 98.8808 39.163 98.8685 39.1231C98.8297 39.0062 98.7889 38.8865 98.7481 38.7696C98.7359 38.7381 98.725 38.7058 98.7154 38.6727L98.6827 38.59C98.6398 38.476 98.5949 38.362 98.5479 38.2508C98.5275 38.1966 98.5071 38.1425 98.4846 38.0911C98.4193 37.9372 98.3519 37.7861 98.2804 37.635L98.2702 37.6094C98.1967 37.4526 98.1191 37.2986 98.0395 37.1447L97.966 37.0079C97.9088 36.9015 97.8516 36.7988 97.7944 36.7C97.7801 36.6772 97.7679 36.6515 97.7556 36.6287L97.7025 36.5432C97.6474 36.452 97.5902 36.3608 97.5331 36.2581L97.4759 36.1641L97.4289 36.0985L97.3288 35.9531C97.3043 35.9189 97.2819 35.8818 97.2553 35.8476C97.2288 35.8134 97.2104 35.7849 97.1859 35.7536L97.1124 35.6538L97.0634 35.5911C97.0103 35.5208 96.9552 35.4523 96.898 35.3858C96.8449 35.3203 96.7898 35.2575 96.7326 35.1948L96.6672 35.1236L96.6223 35.0751L96.5774 35.0295L96.4283 34.8812L96.3916 34.847L96.3528 34.81L96.2792 34.7444L96.1343 34.619L96.1016 34.5933L95.9934 34.5078L95.8565 34.408L95.83 34.3909L95.8034 34.3738L95.7197 34.3197L95.5829 34.237H95.5564L95.5278 34.2199L95.4461 34.1771L95.3072 34.1144H95.2868H95.2603L95.1663 34.0774L95.0214 34.0317L92.1421 36.3665C92.2235 36.3876 92.3039 36.4152 92.383 36.4491H92.4116C92.4913 36.4833 92.5709 36.5204 92.6526 36.5632L92.6812 36.5803C92.7629 36.623 92.8446 36.6743 92.9283 36.7285L92.9548 36.7485C93.0426 36.8083 93.1345 36.8739 93.2244 36.948C93.3142 37.0221 93.3939 37.0906 93.4755 37.1647L93.5143 37.2017C93.5919 37.273 93.6695 37.35 93.7451 37.4326L93.79 37.4782C93.8696 37.5638 93.9472 37.6521 94.0248 37.7434C94.0963 37.8289 94.1678 37.9173 94.229 38.0113L94.3026 38.1083C94.3495 38.1738 94.3985 38.2394 94.4455 38.3078L94.5456 38.4532L94.6497 38.6128C94.7069 38.7012 94.762 38.7924 94.8172 38.8979L94.909 39.0547C94.9676 39.1554 95.0248 39.258 95.0806 39.3626C95.1051 39.4082 95.1316 39.4538 95.1561 39.5022C95.2337 39.6533 95.3113 39.8073 95.3848 39.9641L95.3971 39.9897C95.4665 40.1408 95.5339 40.2919 95.6013 40.4458C95.6237 40.4971 95.6442 40.5513 95.6666 40.6055C95.7116 40.7166 95.7565 40.8307 95.7994 40.9447C95.8218 41.0046 95.8443 41.0644 95.8647 41.1272C95.9083 41.2431 95.9491 41.36 95.9872 41.4778C96.0056 41.5405 96.0281 41.6004 96.0464 41.6631C96.0648 41.7258 96.0873 41.7942 96.1057 41.8598L96.1812 42.1192C96.1955 42.1677 96.2078 42.2161 96.22 42.2646C96.2486 42.3729 96.2772 42.4812 96.3017 42.5896C96.3017 42.6181 96.316 42.6466 96.3221 42.6751C96.3568 42.8233 96.3875 42.9602 96.4161 43.1169L99.2953 40.7822C99.2851 40.6967 99.2769 40.6625 99.2708 40.6425Z" fill="url(#paint43_linear_696_2414)"/>
<path id="Vector_67" d="M102.675 46.153C102.676 46.1426 102.676 46.132 102.675 46.1216C102.676 46.1103 102.676 46.0988 102.675 46.0874C102.675 46.0874 102.675 46.0646 102.675 46.0504C102.675 46.0361 102.675 46.0276 102.675 46.0162L102.657 45.8679C102.657 45.8081 102.64 45.7482 102.63 45.6883C102.63 45.6817 102.63 45.675 102.63 45.6684C102.631 45.6599 102.631 45.6512 102.63 45.6427C102.63 45.5971 102.616 45.5515 102.608 45.5059L102.571 45.3149V45.2949C102.559 45.2322 102.544 45.1723 102.53 45.1096C102.516 45.0469 102.512 45.027 102.501 44.9871C102.496 44.9675 102.491 44.9475 102.487 44.9272C102.487 44.9272 102.487 44.9015 102.477 44.8901C102.457 44.8075 102.434 44.7248 102.41 44.6393V44.6136C102.399 44.5822 102.389 44.5509 102.381 44.5195C102.373 44.4882 102.346 44.4055 102.328 44.3513C102.323 44.3337 102.318 44.3166 102.312 44.3L102.236 44.0777C102.222 44.0406 102.211 44.0036 102.197 43.9665L102.185 43.9351C102.156 43.861 102.128 43.7869 102.097 43.7128C102.066 43.6387 102.064 43.6244 102.046 43.5816C102.007 43.4904 101.968 43.4021 101.928 43.3137C101.916 43.29 101.905 43.2653 101.895 43.2396C101.842 43.1284 101.787 43.0172 101.732 42.9117L101.685 42.8234C101.642 42.7464 101.601 42.6694 101.558 42.5953L101.546 42.5753L101.491 42.487C101.452 42.4214 101.413 42.3587 101.372 42.296L101.352 42.2646C101.313 42.2048 101.274 42.1477 101.233 42.0907L101.207 42.0537L101.076 41.8798L101.039 41.837L101.005 41.7914L100.958 41.7344L100.845 41.6061L100.831 41.5919L100.813 41.5719L100.737 41.4921C100.704 41.455 100.67 41.4237 100.635 41.3895H100.625H100.613L100.535 41.3153C100.502 41.2868 100.47 41.2583 100.435 41.2327C100.428 41.2244 100.421 41.2176 100.412 41.2127L100.339 41.1557L100.282 41.1158L100.257 41.0958H100.243L100.149 41.0331H100.133L100.104 41.0189L100.055 40.9904L99.9979 40.959H99.9734L99.8795 40.9162H99.8631H99.8325C99.8164 40.9092 99.8001 40.9035 99.7835 40.8991L99.7386 40.8849H99.7059H99.6855L99.5875 40.8621L99.4833 40.845H99.3363L96.457 43.1797H96.5918L96.7102 43.1968L96.8287 43.2253H96.8634L96.9573 43.2567H96.9859L97.1084 43.3137H97.1309C97.1656 43.3308 97.2024 43.3507 97.2371 43.3735L97.2657 43.3907C97.3065 43.4163 97.3494 43.442 97.3923 43.4733L97.4168 43.4904L97.5454 43.5874C97.6128 43.6415 97.6802 43.7014 97.7496 43.7641H97.7639C97.8272 43.824 97.8885 43.8895 97.9498 43.9551L97.9702 43.975C98.0274 44.0406 98.0866 44.1062 98.1417 44.1774L98.1785 44.2202C98.2356 44.2943 98.2928 44.3684 98.348 44.4454L98.3765 44.4853C98.4215 44.5509 98.4684 44.6165 98.5134 44.6877L98.6338 44.8787C98.6543 44.9158 98.6788 44.95 98.6992 44.9871C98.7196 45.0241 98.785 45.1381 98.8258 45.218L98.8728 45.3035C98.9299 45.4118 98.9851 45.5201 99.0361 45.6313L99.0688 45.7054C99.1096 45.7938 99.1505 45.885 99.1872 45.9734L99.2403 46.1045C99.2689 46.1786 99.2995 46.2528 99.3261 46.3269C99.3526 46.401 99.3608 46.421 99.3771 46.4694C99.3935 46.5179 99.4302 46.6177 99.4547 46.6946L99.5221 46.9141L99.5507 47.0054C99.5813 47.1108 99.6079 47.2163 99.6344 47.3189C99.6344 47.3389 99.6344 47.3588 99.6487 47.3788C99.6732 47.4814 99.6977 47.584 99.7182 47.6867C99.7413 47.7988 99.7617 47.91 99.7794 48.0202C99.7786 48.0297 99.7786 48.0392 99.7794 48.0487C99.7978 48.1627 99.8141 48.2796 99.8264 48.3936C99.8323 48.4637 99.8323 48.5345 99.8264 48.6046C99.8252 48.6636 99.8184 48.7221 99.806 48.7785C99.7951 48.823 99.78 48.8652 99.761 48.9039L99.7508 48.921C99.7327 48.9537 99.7106 48.9817 99.6855 49.0037L102.532 46.6291C102.558 46.6078 102.58 46.5797 102.597 46.5464V46.5293C102.605 46.5144 102.611 46.4981 102.616 46.4808C102.622 46.4689 102.626 46.4553 102.628 46.4409V46.4181C102.629 46.4058 102.629 46.3933 102.628 46.381C102.628 46.381 102.628 46.3611 102.628 46.3497C102.628 46.3383 102.628 46.3269 102.628 46.3155C102.628 46.3041 102.628 46.2955 102.628 46.2841C102.627 46.2737 102.627 46.2632 102.628 46.2528V46.1872L102.675 46.153Z" fill="url(#paint44_linear_696_2414)"/>
<path id="Vector_68" d="M86.6247 24.5674C89.361 26.7739 91.6338 31.7512 92.1239 36.3123C92.5057 36.4233 92.8715 36.6228 93.2061 36.9024C94.6784 38.0883 95.9302 40.5856 96.4142 43.0685C96.7987 43.0746 97.1745 43.2285 97.5005 43.5132C98.6298 44.4226 99.5691 46.4637 99.7856 48.3594C99.8489 48.8982 99.6222 49.1747 99.3138 48.9296L77.7112 31.5003C77.5722 31.3739 77.4565 31.2034 77.3734 31.0028C77.2904 30.8022 77.2424 30.5771 77.2334 30.3458C77.2334 28.5214 77.9399 27.4181 79.0161 27.7089C79.3423 27.8015 79.655 27.9701 79.9411 28.2078C80.3313 28.5291 80.6857 28.9287 80.9928 29.3937C80.9928 29.2796 80.9928 29.1656 80.9928 29.0487C80.9969 24.0743 83.5208 22.0674 86.6247 24.5674Z" fill="url(#paint45_linear_696_2414)"/>
</g>
<g id="Vector_69" style="mix-blend-mode:multiply">
<path d="M31.1286 88.1696L41.2346 79.817C41.289 79.7723 41.3344 79.7091 41.3667 79.6334C41.399 79.5577 41.4171 79.4718 41.4193 79.3837C41.4215 79.2957 41.4079 79.2082 41.3795 79.1295C41.3511 79.0508 41.309 78.9833 41.2571 78.9333L36.299 74.1327L24.441 82.8616C24.4061 82.8884 24.3769 82.9278 24.3567 82.9757C24.3364 83.0236 24.3257 83.0782 24.3257 83.1338C24.3257 83.1894 24.3364 83.244 24.3567 83.2919C24.3769 83.3398 24.4061 83.3792 24.441 83.406L30.5834 88.1781C30.6669 88.2431 30.7612 88.2765 30.8568 88.275C30.9524 88.2735 31.0461 88.2371 31.1286 88.1696Z" fill="#D6C9C1"/>
</g>
<path id="Vector_70" d="M35.3739 58.716C35.2642 58.6449 35.1429 58.6161 35.0226 58.6326C34.9023 58.6491 34.7874 58.7104 34.6898 58.8101L25.8825 65.9084C25.6034 66.1608 25.3712 66.5018 25.2047 66.9037C25.0382 67.3055 24.9423 67.7567 24.9248 68.2203L24.9534 82.3484C24.9426 82.5129 24.963 82.6785 25.0124 82.8286C25.0619 82.9786 25.1387 83.108 25.2352 83.2036L30.4852 87.4626C30.3886 87.3671 30.3117 87.2378 30.2622 87.0877C30.2127 86.9376 30.1925 86.7719 30.2034 86.6073L30.1749 72.4764C30.1924 72.0128 30.2883 71.5617 30.4548 71.1598C30.6212 70.758 30.8535 70.4169 31.1326 70.1645L39.9398 63.0662C40.0377 62.9663 40.153 62.9049 40.2737 62.8883C40.3944 62.8718 40.516 62.9007 40.626 62.9721L35.3739 58.716Z" fill="url(#paint46_linear_696_2414)"/>
<path id="Vector_71" d="M39.9398 63.069C40.4707 62.6386 40.9036 62.9835 40.9057 63.833L40.9343 77.9611C40.9162 78.4256 40.8198 78.8776 40.6531 79.2803C40.4863 79.683 40.2538 80.0251 39.9745 80.2788L31.1672 87.3941C30.6363 87.8189 30.2054 87.4768 30.2034 86.6244L30.1748 72.4935C30.1923 72.0299 30.2882 71.5787 30.4547 71.1769C30.6212 70.775 30.8534 70.4339 31.1325 70.1815L39.9398 63.069Z" fill="url(#paint47_linear_696_2414)"/>
<path id="Vector_72" d="M33.6893 83.2236C32.0802 83.2236 31.0347 81.4048 31.0347 78.5883C31.0347 74.7256 32.9848 70.0134 35.3801 68.0806C35.995 67.5496 36.6994 67.2545 37.4221 67.2254C39.0312 67.2254 40.0768 69.0442 40.0768 71.8607C40.0768 75.7234 38.1287 80.4356 35.7313 82.3684C35.1169 82.9008 34.4122 83.1959 33.6893 83.2236Z" fill="url(#paint48_linear_696_2414)"/>
<path id="Vector_73" d="M38.5049 77.6035C40.1357 73.6603 40.1354 69.3981 38.5044 68.0834C36.8733 66.7688 34.2291 68.8997 32.5983 72.8428C30.9675 76.786 30.9677 81.0483 32.5988 82.3629C34.2299 83.6775 36.8741 81.5467 38.5049 77.6035Z" fill="url(#paint49_linear_696_2414)"/>
<path id="Vector_74" d="M37.7627 75.6492L35.4062 75.481V69.7768L35.7003 69.5402V74.9651L37.9037 75.119L37.7627 75.6492Z" fill="url(#paint50_linear_696_2414)"/>
<path id="Vector_75" d="M35.9927 74.871C35.9844 75.0831 35.9403 75.2894 35.864 75.4732C35.7877 75.657 35.6814 75.813 35.5537 75.9286C35.3127 76.1224 35.1167 75.9656 35.1167 75.5751C35.1251 75.3634 35.1691 75.1573 35.245 74.9736C35.3209 74.7899 35.4266 74.6337 35.5537 74.5175C35.7967 74.3236 35.9927 74.4804 35.9927 74.871Z" fill="url(#paint51_linear_696_2414)"/>
<path id="Vector_76" d="M8.67236 67.7243C8.67236 67.7243 21.7536 51.8316 26.6769 46.5264C26.6769 46.5264 14.6065 57.5216 9.5484 60.4037C9.5484 60.4151 8.9705 64.4773 8.67236 67.7243Z" fill="#D6C9C1"/>
<path id="Vector_77" d="M26.6769 46.5378C21.7536 51.843 8.67236 67.7243 8.67236 67.7243C8.67236 67.7243 11.3719 63.2572 12.1234 61.9032C12.1234 61.9146 24.3756 48.4421 26.6769 46.5378Z" fill="url(#paint52_linear_696_2414)"/>
<path id="Vector_78" d="M9.54823 60.415C7.47557 59.1778 2.90347 56.7376 0.5 55.3864C0.5 55.3864 18.2779 48.9096 26.6768 46.5492C26.6768 46.5492 14.6063 57.5444 9.54823 60.4264V60.415Z" fill="url(#paint53_linear_696_2414)"/>
<path id="Vector_79" d="M12.123 61.9146C12.123 61.9146 24.3752 48.4421 26.6766 46.5378L23.2644 69.4746C23.2644 69.4746 18.4309 65.7032 12.1292 61.9146H12.123Z" fill="url(#paint54_linear_696_2414)"/>
<path id="Vector_80" d="M94.2538 21.4573C95.535 21.4573 96.5736 20.0074 96.5736 18.2189C96.5736 16.4304 95.535 14.9805 94.2538 14.9805C92.9727 14.9805 91.9341 16.4304 91.9341 18.2189C91.9341 20.0074 92.9727 21.4573 94.2538 21.4573Z" fill="url(#paint55_radial_696_2414)"/>
<path id="Vector_81" d="M60.1947 79.5319C61.4759 79.5319 62.5145 78.082 62.5145 76.2935C62.5145 74.5049 61.4759 73.0551 60.1947 73.0551C58.9136 73.0551 57.875 74.5049 57.875 76.2935C57.875 78.082 58.9136 79.5319 60.1947 79.5319Z" fill="url(#paint56_radial_696_2414)"/>
<path id="Vector_82" d="M26.0619 39.9954C27.3431 39.9954 28.3817 38.5455 28.3817 36.757C28.3817 34.9685 27.3431 33.5186 26.0619 33.5186C24.7808 33.5186 23.7422 34.9685 23.7422 36.757C23.7422 38.5455 24.7808 39.9954 26.0619 39.9954Z" fill="url(#paint57_radial_696_2414)"/>
<path id="Vector_83" d="M74.9199 42.7749C75.6879 42.7749 76.3105 41.9057 76.3105 40.8335C76.3105 39.7614 75.6879 38.8922 74.9199 38.8922C74.1519 38.8922 73.5293 39.7614 73.5293 40.8335C73.5293 41.9057 74.1519 42.7749 74.9199 42.7749Z" fill="url(#paint58_radial_696_2414)"/>
<path id="Vector_84" d="M42.5391 86.5874C43.3071 86.5874 43.9297 85.7182 43.9297 84.646C43.9297 83.5739 43.3071 82.7047 42.5391 82.7047C41.771 82.7047 41.1484 83.5739 41.1484 84.646C41.1484 85.7182 41.771 86.5874 42.5391 86.5874Z" fill="url(#paint59_radial_696_2414)"/>
<path id="Vector_85" d="M11.9106 81.6557C12.6787 81.6557 13.3013 80.7865 13.3013 79.7143C13.3013 78.6422 12.6787 77.773 11.9106 77.773C11.1426 77.773 10.52 78.6422 10.52 79.7143C10.52 80.7865 11.1426 81.6557 11.9106 81.6557Z" fill="url(#paint60_radial_696_2414)"/>
<path id="Vector_86" d="M37.5117 10.5961C38.2797 10.5961 38.9023 9.72694 38.9023 8.65477C38.9023 7.5826 38.2797 6.71344 37.5117 6.71344C36.7437 6.71344 36.1211 7.5826 36.1211 8.65477C36.1211 9.72694 36.7437 10.5961 37.5117 10.5961Z" fill="url(#paint61_radial_696_2414)"/>
<path id="Vector_87" d="M105.268 67.5248C105.268 67.5248 97.5373 59.6939 94.6172 57.1282C94.6172 57.1282 101.815 62.2595 104.864 63.4511C104.864 63.4483 105.15 65.7032 105.268 67.5248Z" fill="url(#paint62_linear_696_2414)"/>
<path id="Vector_88" d="M94.6172 57.1282C97.5373 59.6939 105.268 67.5248 105.268 67.5248C105.268 67.5248 103.694 65.2442 103.257 64.5344C103.257 64.5344 95.9935 58.0034 94.6172 57.1282Z" fill="url(#paint63_linear_696_2414)"/>
<path id="Vector_89" d="M104.864 63.4482C106.157 62.5588 109.003 60.7629 110.5 59.7794C110.5 59.7794 99.7223 57.7097 94.6172 57.1225C94.6172 57.1225 101.815 62.2538 104.864 63.4454V63.4482Z" fill="url(#paint64_linear_696_2414)"/>
<path id="Vector_90" d="M103.257 64.5343C103.257 64.5343 95.9935 58.0034 94.6172 57.1225L96.2957 69.8224C96.2957 69.8224 99.3261 67.2568 103.257 64.5286V64.5343Z" fill="url(#paint65_linear_696_2414)"/>
</g>
</g>
</g>
<defs>
<linearGradient id="paint0_linear_696_2414" x1="31.3551" y1="17.1385" x2="33.0353" y2="15.87" gradientUnits="userSpaceOnUse">
<stop stop-color="#F3EDE7"/>
<stop offset="0.56" stop-color="#D6C9C1"/>
<stop offset="1" stop-color="#BBA597"/>
</linearGradient>
<linearGradient id="paint1_linear_696_2414" x1="27.0361" y1="17.9738" x2="29.9871" y2="15.669" gradientUnits="userSpaceOnUse">
<stop stop-color="#F3EDE7"/>
<stop offset="0.56" stop-color="#D6C9C1"/>
<stop offset="1" stop-color="#BBA597"/>
</linearGradient>
<linearGradient id="paint2_linear_696_2414" x1="19.9503" y1="15.8215" x2="25.8974" y2="13.9844" gradientUnits="userSpaceOnUse">
<stop stop-color="#F3EDE7"/>
<stop offset="0.56" stop-color="#D6C9C1"/>
<stop offset="1" stop-color="#BBA597"/>
</linearGradient>
<linearGradient id="paint3_linear_696_2414" x1="14.245" y1="28.1337" x2="10.6568" y2="33.16" gradientUnits="userSpaceOnUse">
<stop stop-color="#F3EDE7"/>
<stop offset="0.56" stop-color="#D6C9C1"/>
<stop offset="1" stop-color="#BBA597"/>
</linearGradient>
<linearGradient id="paint4_linear_696_2414" x1="18.4435" y1="11.4912" x2="27.7892" y2="25.1694" gradientUnits="userSpaceOnUse">
<stop stop-color="#F3EDE7"/>
<stop offset="0.56" stop-color="#D6C9C1"/>
<stop offset="1" stop-color="#BBA597"/>
</linearGradient>
<linearGradient id="paint5_linear_696_2414" x1="22.3296" y1="16.0466" x2="12.1067" y2="22.2181" gradientUnits="userSpaceOnUse">
<stop stop-color="#F3EDE7"/>
<stop offset="0.56" stop-color="#D6C9C1"/>
<stop offset="1" stop-color="#BBA597"/>
</linearGradient>
<linearGradient id="paint6_linear_696_2414" x1="92.0668" y1="63.4795" x2="81.7689" y2="63.4795" gradientUnits="userSpaceOnUse">
<stop stop-color="#F3EDE7"/>
<stop offset="0.56" stop-color="#D6C9C1"/>
<stop offset="1" stop-color="#BBA597"/>
</linearGradient>
<linearGradient id="paint7_linear_696_2414" x1="91.1457" y1="48.5903" x2="82.3464" y2="53.6296" gradientUnits="userSpaceOnUse">
<stop stop-color="#F3EDE7"/>
<stop offset="0.56" stop-color="#D6C9C1"/>
<stop offset="1" stop-color="#BBA597"/>
</linearGradient>
<linearGradient id="paint8_linear_696_2414" x1="81.2461" y1="53.6789" x2="91.9239" y2="53.6789" gradientUnits="userSpaceOnUse">
<stop stop-color="#F3EDE7"/>
<stop offset="0.56" stop-color="#D6C9C1"/>
<stop offset="1" stop-color="#BBA597"/>
</linearGradient>
<linearGradient id="paint9_linear_696_2414" x1="81.536" y1="54.9503" x2="91.6338" y2="54.9503" gradientUnits="userSpaceOnUse">
<stop stop-color="#662E1F"/>
<stop offset="0.61" stop-color="#3A1909"/>
<stop offset="1" stop-color="#1F0900"/>
</linearGradient>
<linearGradient id="paint10_linear_696_2414" x1="89.9308" y1="69.5601" x2="92.3731" y2="69.5601" gradientUnits="userSpaceOnUse">
<stop stop-color="#F3EDE7"/>
<stop offset="0.56" stop-color="#D6C9C1"/>
<stop offset="1" stop-color="#BBA597"/>
</linearGradient>
<linearGradient id="paint11_linear_696_2414" x1="92.1278" y1="58.5849" x2="90.93" y2="72.9668" gradientUnits="userSpaceOnUse">
<stop stop-color="#F3EDE7"/>
<stop offset="0.56" stop-color="#D6C9C1"/>
<stop offset="1" stop-color="#BBA597"/>
</linearGradient>
<linearGradient id="paint12_linear_696_2414" x1="95.2725" y1="53.2855" x2="85.1854" y2="67.8834" gradientUnits="userSpaceOnUse">
<stop stop-color="#F3EDE7"/>
<stop offset="0.56" stop-color="#D6C9C1"/>
<stop offset="1" stop-color="#BBA597"/>
</linearGradient>
<linearGradient id="paint13_linear_696_2414" x1="69.3982" y1="91.9981" x2="63.5758" y2="111.459" gradientUnits="userSpaceOnUse">
<stop stop-color="#662E1F"/>
<stop offset="0.61" stop-color="#3A1909"/>
<stop offset="1" stop-color="#1F0900"/>
</linearGradient>
<linearGradient id="paint14_linear_696_2414" x1="72.3711" y1="82.6363" x2="69.0437" y2="78.6752" gradientUnits="userSpaceOnUse">
<stop stop-color="#F3EDE7"/>
<stop offset="0.56" stop-color="#D6C9C1"/>
<stop offset="1" stop-color="#BBA597"/>
</linearGradient>
<linearGradient id="paint15_linear_696_2414" x1="64.3112" y1="44.1717" x2="42.7096" y2="73.0004" gradientUnits="userSpaceOnUse">
<stop stop-color="#662E1F"/>
<stop offset="0.61" stop-color="#3A1909"/>
<stop offset="1" stop-color="#1F0900"/>
</linearGradient>
<linearGradient id="paint16_linear_696_2414" x1="76.0325" y1="75.3043" x2="81.7501" y2="75.0331" gradientUnits="userSpaceOnUse">
<stop stop-color="#662E1F"/>
<stop offset="0.61" stop-color="#3A1909"/>
<stop offset="1" stop-color="#1F0900"/>
</linearGradient>
<linearGradient id="paint17_linear_696_2414" x1="48.2016" y1="70.3982" x2="44.1377" y2="75.6787" gradientUnits="userSpaceOnUse">
<stop stop-color="#662E1F"/>
<stop offset="0.61" stop-color="#3A1909"/>
<stop offset="1" stop-color="#1F0900"/>
</linearGradient>
<linearGradient id="paint18_linear_696_2414" x1="71.5646" y1="78.0267" x2="66.1393" y2="96.1688" gradientUnits="userSpaceOnUse">
<stop stop-color="#FFA72F"/>
<stop offset="1" stop-color="#DF4B2D"/>
</linearGradient>
<linearGradient id="paint19_linear_696_2414" x1="74.393" y1="69.8338" x2="71.1126" y2="65.4354" gradientUnits="userSpaceOnUse">
<stop stop-color="#F3EDE7"/>
<stop offset="0.56" stop-color="#D6C9C1"/>
<stop offset="1" stop-color="#BBA597"/>
</linearGradient>
<linearGradient id="paint20_linear_696_2414" x1="66.825" y1="33.4417" x2="46.6848" y2="60.3179" gradientUnits="userSpaceOnUse">
<stop stop-color="#FFA72F"/>
<stop offset="1" stop-color="#DF4B2D"/>
</linearGradient>
<linearGradient id="paint21_linear_696_2414" x1="58.9104" y1="41.4721" x2="4.08234" y2="59.9908" gradientUnits="userSpaceOnUse">
<stop stop-color="#E2E6E8"/>
<stop offset="0.6" stop-color="#CEDAE0"/>
<stop offset="0.98" stop-color="#C7D3D7"/>
</linearGradient>
<linearGradient id="paint22_linear_696_2414" x1="77.752" y1="62.4647" x2="83.0807" y2="62.2126" gradientUnits="userSpaceOnUse">
<stop stop-color="#FFA72F"/>
<stop offset="1" stop-color="#DF4B2D"/>
</linearGradient>
<linearGradient id="paint23_linear_696_2414" x1="51.804" y1="57.8893" x2="48.0161" y2="62.8164" gradientUnits="userSpaceOnUse">
<stop stop-color="#FFA72F"/>
<stop offset="1" stop-color="#DF4B2D"/>
</linearGradient>
<linearGradient id="paint24_linear_696_2414" x1="67.5968" y1="69.8509" x2="62.6185" y2="86.4988" gradientUnits="userSpaceOnUse">
<stop stop-color="#A9CF74"/>
<stop offset="1" stop-color="#7E9A2D"/>
</linearGradient>
<linearGradient id="paint25_linear_696_2414" x1="70.3535" y1="62.6415" x2="66.9678" y2="58.2438" gradientUnits="userSpaceOnUse">
<stop stop-color="#F3EDE7"/>
<stop offset="0.56" stop-color="#D6C9C1"/>
<stop offset="1" stop-color="#BBA597"/>
</linearGradient>
<linearGradient id="paint26_linear_696_2414" x1="63.2476" y1="28.9433" x2="44.771" y2="53.6029" gradientUnits="userSpaceOnUse">
<stop stop-color="#A9CF74"/>
<stop offset="1" stop-color="#7E9A2D"/>
</linearGradient>
<linearGradient id="paint27_linear_696_2414" x1="73.274" y1="55.5746" x2="78.1628" y2="55.343" gradientUnits="userSpaceOnUse">
<stop stop-color="#A9CF74"/>
<stop offset="1" stop-color="#7E9A2D"/>
</linearGradient>
<linearGradient id="paint28_linear_696_2414" x1="49.4659" y1="51.3754" x2="45.9908" y2="55.8964" gradientUnits="userSpaceOnUse">
<stop stop-color="#A9CF74"/>
<stop offset="1" stop-color="#7E9A2D"/>
</linearGradient>
<linearGradient id="paint29_linear_696_2414" x1="63.8765" y1="55.509" x2="66.4351" y2="55.509" gradientUnits="userSpaceOnUse">
<stop stop-color="#FFA72F"/>
<stop offset="1" stop-color="#DF4B2D"/>
</linearGradient>
<linearGradient id="paint30_linear_696_2414" x1="41.1652" y1="39.5906" x2="66.5313" y2="39.5906" gradientUnits="userSpaceOnUse">
<stop stop-color="#203852"/>
<stop offset="0.35" stop-color="#162436"/>
<stop offset="0.59" stop-color="#203852"/>
<stop offset="1" stop-color="#203852"/>
</linearGradient>
<linearGradient id="paint31_linear_696_2414" x1="41.1652" y1="38.8922" x2="66.5313" y2="38.8922" gradientUnits="userSpaceOnUse">
<stop stop-color="#3A1909"/>
<stop offset="0.72" stop-color="#662E1F"/>
<stop offset="1" stop-color="#3A1909"/>
</linearGradient>
<linearGradient id="paint32_linear_696_2414" x1="87.86" y1="25.0834" x2="17.8969" y2="24.8011" gradientUnits="userSpaceOnUse">
<stop stop-color="#662E1F"/>
<stop offset="0.61" stop-color="#3A1909"/>
<stop offset="1" stop-color="#1F0900"/>
</linearGradient>
<linearGradient id="paint33_linear_696_2414" x1="53.7685" y1="35.0808" x2="76.2287" y2="35.0808" gradientUnits="userSpaceOnUse">
<stop stop-color="#662E1F"/>
<stop offset="0.61" stop-color="#3A1909"/>
<stop offset="1" stop-color="#1F0900"/>
</linearGradient>
<linearGradient id="paint34_linear_696_2414" x1="31.3101" y1="35.0808" x2="53.7683" y2="35.0808" gradientUnits="userSpaceOnUse">
<stop stop-color="#662E1F"/>
<stop offset="0.61" stop-color="#3A1909"/>
<stop offset="1" stop-color="#1F0900"/>
</linearGradient>
<radialGradient id="paint35_radial_696_2414" cx="0" cy="0" r="1" gradientUnits="userSpaceOnUse" gradientTransform="translate(65.6692 50.3834) scale(1.41717 1.97839)">
<stop stop-color="#FFA72F"/>
<stop offset="1" stop-color="#DF4B2D"/>
</radialGradient>
<linearGradient id="paint36_linear_696_2414" x1="67.7441" y1="2.15799" x2="64.4116" y2="5.61434" gradientUnits="userSpaceOnUse">
<stop stop-color="#FF8261"/>
<stop offset="0.58" stop-color="#DF5E5A"/>
<stop offset="1" stop-color="#CB445A"/>
</linearGradient>
<linearGradient id="paint37_linear_696_2414" x1="65.4122" y1="4.72973" x2="64.2602" y2="20.9974" gradientUnits="userSpaceOnUse">
<stop stop-color="#FF8261"/>
<stop offset="0.58" stop-color="#DF5E5A"/>
<stop offset="1" stop-color="#CB445A"/>
</linearGradient>
<linearGradient id="paint38_linear_696_2414" x1="73.1085" y1="2.71958" x2="45.0217" y2="6.16078" gradientUnits="userSpaceOnUse">
<stop stop-color="#FF8261"/>
<stop offset="0.58" stop-color="#DF5E5A"/>
<stop offset="1" stop-color="#CB445A"/>
</linearGradient>
<linearGradient id="paint39_linear_696_2414" x1="68.1362" y1="4.12498" x2="51.326" y2="8.8209" gradientUnits="userSpaceOnUse">
<stop stop-color="#FF8261"/>
<stop offset="0.58" stop-color="#DF5E5A"/>
<stop offset="1" stop-color="#CB445A"/>
</linearGradient>
<linearGradient id="paint40_linear_696_2414" x1="79.3773" y1="25.3799" x2="82.3772" y2="27.4372" gradientUnits="userSpaceOnUse">
<stop stop-color="#F3EDE7"/>
<stop offset="0.56" stop-color="#D6C9C1"/>
<stop offset="1" stop-color="#BBA597"/>
</linearGradient>
<linearGradient id="paint41_linear_696_2414" x1="87.2126" y1="24.613" x2="84.3274" y2="22.6973" gradientUnits="userSpaceOnUse">
<stop stop-color="#F3EDE7"/>
<stop offset="0.56" stop-color="#D6C9C1"/>
<stop offset="1" stop-color="#BBA597"/>
</linearGradient>
<linearGradient id="paint42_linear_696_2414" x1="89.2732" y1="22.6802" x2="94.567" y2="33.6474" gradientUnits="userSpaceOnUse">
<stop stop-color="#F3EDE7"/>
<stop offset="0.56" stop-color="#D6C9C1"/>
<stop offset="1" stop-color="#BBA597"/>
</linearGradient>
<linearGradient id="paint43_linear_696_2414" x1="94.2413" y1="35.1236" x2="99.4372" y2="40.1889" gradientUnits="userSpaceOnUse">
<stop stop-color="#F3EDE7"/>
<stop offset="0.56" stop-color="#D6C9C1"/>
<stop offset="1" stop-color="#BBA597"/>
</linearGradient>
<linearGradient id="paint44_linear_696_2414" x1="99.1198" y1="42.8832" x2="101.497" y2="47.0968" gradientUnits="userSpaceOnUse">
<stop stop-color="#F3EDE7"/>
<stop offset="0.56" stop-color="#D6C9C1"/>
<stop offset="1" stop-color="#BBA597"/>
</linearGradient>
<linearGradient id="paint45_linear_696_2414" x1="91.2274" y1="25.4141" x2="84.7356" y2="42.3314" gradientUnits="userSpaceOnUse">
<stop stop-color="#F3EDE7"/>
<stop offset="0.56" stop-color="#D6C9C1"/>
<stop offset="1" stop-color="#BBA597"/>
</linearGradient>
<linearGradient id="paint46_linear_696_2414" x1="33.8342" y1="61.0821" x2="19.9488" y2="90.2495" gradientUnits="userSpaceOnUse">
<stop stop-color="#833A2C"/>
<stop offset="0.61" stop-color="#3A1909"/>
<stop offset="1" stop-color="#1F0900"/>
</linearGradient>
<linearGradient id="paint47_linear_696_2414" x1="37.859" y1="64.902" x2="26.6847" y2="90.5692" gradientUnits="userSpaceOnUse">
<stop stop-color="#B44112"/>
<stop offset="0.54" stop-color="#853200"/>
<stop offset="1" stop-color="#591F03"/>
</linearGradient>
<linearGradient id="paint48_linear_696_2414" x1="35.5537" y1="67.2226" x2="35.5537" y2="83.2236" gradientUnits="userSpaceOnUse">
<stop stop-color="#662E1F"/>
<stop offset="0.61" stop-color="#3A1909"/>
<stop offset="1" stop-color="#1F0900"/>
</linearGradient>
<linearGradient id="paint49_linear_696_2414" x1="35.1492" y1="77.5323" x2="39.4419" y2="64.9104" gradientUnits="userSpaceOnUse">
<stop stop-color="#F3EDE7"/>
<stop offset="0.56" stop-color="#D6C9C1"/>
<stop offset="1" stop-color="#BBA597"/>
</linearGradient>
<linearGradient id="paint50_linear_696_2414" x1="36.656" y1="69.5402" x2="36.656" y2="75.6492" gradientUnits="userSpaceOnUse">
<stop stop-color="#662E1F"/>
<stop offset="0.61" stop-color="#3A1909"/>
<stop offset="1" stop-color="#1F0900"/>
</linearGradient>
<linearGradient id="paint51_linear_696_2414" x1="35.5537" y1="74.4348" x2="35.5537" y2="76.0113" gradientUnits="userSpaceOnUse">
<stop stop-color="#662E1F"/>
<stop offset="0.61" stop-color="#3A1909"/>
<stop offset="1" stop-color="#1F0900"/>
</linearGradient>
<linearGradient id="paint52_linear_696_2414" x1="2.44479" y1="56.9124" x2="6.66001" y2="75.0626" gradientUnits="userSpaceOnUse">
<stop stop-color="#F3EDE7"/>
<stop offset="0.56" stop-color="#D6C9C1"/>
<stop offset="1" stop-color="#BBA597"/>
</linearGradient>
<linearGradient id="paint53_linear_696_2414" x1="0.648047" y1="57.0465" x2="-17.5273" y2="43.588" gradientUnits="userSpaceOnUse">
<stop stop-color="#F3EDE7"/>
<stop offset="0.56" stop-color="#D6C9C1"/>
<stop offset="1" stop-color="#BBA597"/>
</linearGradient>
<linearGradient id="paint54_linear_696_2414" x1="3.52917" y1="57.747" x2="28.819" y2="70.8125" gradientUnits="userSpaceOnUse">
<stop stop-color="#F3EDE7"/>
<stop offset="0.56" stop-color="#D6C9C1"/>
<stop offset="1" stop-color="#BBA597"/>
</linearGradient>
<radialGradient id="paint55_radial_696_2414" cx="0" cy="0" r="1" gradientUnits="userSpaceOnUse" gradientTransform="translate(93.4799 17.013) scale(3.0365 4.239)">
<stop stop-color="#E9BD40"/>
<stop offset="1" stop-color="#FF7A1D"/>
</radialGradient>
<radialGradient id="paint56_radial_696_2414" cx="0" cy="0" r="1" gradientUnits="userSpaceOnUse" gradientTransform="translate(59.4208 75.0848) scale(3.0365 4.239)">
<stop stop-color="#E9BD40"/>
<stop offset="1" stop-color="#FF7A1D"/>
</radialGradient>
<radialGradient id="paint57_radial_696_2414" cx="0" cy="0" r="1" gradientUnits="userSpaceOnUse" gradientTransform="translate(25.288 35.5512) scale(3.0365 4.239)">
<stop stop-color="#E9BD40"/>
<stop offset="1" stop-color="#FF7A1D"/>
</radialGradient>
<radialGradient id="paint58_radial_696_2414" cx="0" cy="0" r="1" gradientUnits="userSpaceOnUse" gradientTransform="translate(74.4543 40.1095) scale(1.82149 2.54283)">
<stop stop-color="#E9BD40"/>
<stop offset="1" stop-color="#FF7A1D"/>
</radialGradient>
<radialGradient id="paint59_radial_696_2414" cx="0" cy="0" r="1" gradientUnits="userSpaceOnUse" gradientTransform="translate(42.0755 83.922) scale(1.82149 2.54283)">
<stop stop-color="#E9BD40"/>
<stop offset="1" stop-color="#FF7A1D"/>
</radialGradient>
<radialGradient id="paint60_radial_696_2414" cx="0" cy="0" r="1" gradientUnits="userSpaceOnUse" gradientTransform="translate(11.4451 78.9903) scale(1.82149 2.54283)">
<stop stop-color="#E9BD40"/>
<stop offset="1" stop-color="#FF7A1D"/>
</radialGradient>
<radialGradient id="paint61_radial_696_2414" cx="0" cy="0" r="1" gradientUnits="userSpaceOnUse" gradientTransform="translate(37.0482 7.93069) scale(1.82149 2.54283)">
<stop stop-color="#E9BD40"/>
<stop offset="1" stop-color="#FF7A1D"/>
</radialGradient>
<linearGradient id="paint62_linear_696_2414" x1="101.376" y1="56.9657" x2="98.8268" y2="61.857" gradientUnits="userSpaceOnUse">
<stop stop-color="#A9CF74"/>
<stop offset="1" stop-color="#7E9A2D"/>
</linearGradient>
<linearGradient id="paint63_linear_696_2414" x1="100.373" y1="60.6872" x2="99.6051" y2="71.5443" gradientUnits="userSpaceOnUse">
<stop stop-color="#A9CF74"/>
<stop offset="1" stop-color="#7E9A2D"/>
</linearGradient>
<linearGradient id="paint64_linear_696_2414" x1="101.477" y1="60.6041" x2="112.579" y2="50.9385" gradientUnits="userSpaceOnUse">
<stop stop-color="#A9CF74"/>
<stop offset="1" stop-color="#7E9A2D"/>
</linearGradient>
<linearGradient id="paint65_linear_696_2414" x1="99.689" y1="61.2576" x2="83.6143" y2="70.4829" gradientUnits="userSpaceOnUse">
<stop stop-color="#A9CF74"/>
<stop offset="1" stop-color="#7E9A2D"/>
</linearGradient>
<clipPath id="clip0_696_2414">
<rect width="110" height="100" fill="white" transform="translate(0.5)"/>
</clipPath>
</defs>
</svg>
