<svg width="20" height="20" viewBox="0 0 20 20" fill="none" xmlns="http://www.w3.org/2000/svg">
<path d="M9.74983 2.33774C9.90937 2.26803 10.0908 2.26803 10.2503 2.33774C13.3493 3.69176 16.2864 5.34697 19.0246 7.2663C19.2228 7.4052 19.3229 7.646 19.2818 7.88446C19.2406 8.12292 19.0654 8.31618 18.8322 8.38056C18.2614 8.53811 17.6956 8.70779 17.1348 8.88862C14.859 9.62262 12.6681 10.5461 10.581 11.6407L10.5782 11.6421C10.4836 11.6917 10.3892 11.7417 10.295 11.792C10.1109 11.8904 9.88995 11.8904 9.7059 11.792C9.6108 11.7412 9.51547 11.6908 9.41993 11.6407C8.38788 11.0995 7.33048 10.6001 6.25 10.1447V9.95829C6.25 9.84883 6.30618 9.75171 6.39311 9.69904C7.64738 8.93917 8.94115 8.23804 10.2706 7.59947C10.5818 7.45001 10.7128 7.07663 10.5634 6.76548C10.4139 6.45433 10.0405 6.32325 9.72939 6.47271C8.36335 7.12886 7.03405 7.84924 5.74541 8.62994C5.36759 8.85883 5.1136 9.23345 5.03006 9.65315C4.31762 9.3791 3.59582 9.12383 2.86524 8.88823C2.30455 8.70741 1.7387 8.53809 1.16795 8.38055C0.934687 8.31617 0.75955 8.12291 0.718367 7.88445C0.677183 7.64599 0.777353 7.40519 0.975511 7.26629C3.71371 5.34697 6.65081 3.69176 9.74983 2.33774Z" fill="#787878"/>
<path d="M10.8841 12.8945C12.9164 11.8086 15.0517 10.8906 17.2715 10.1588C17.3834 11.3378 17.4548 12.5286 17.4844 13.7296C17.4907 13.9873 17.3382 14.2224 17.1004 14.3217C14.7244 15.3137 12.4645 16.5284 10.3466 17.9397C10.1367 18.0796 9.86332 18.0796 9.65342 17.9397C7.53556 16.5284 5.27561 15.3137 2.89966 14.3217C2.6618 14.2224 2.5093 13.9873 2.51565 13.7296C2.54524 12.5285 2.61668 11.3377 2.72856 10.1586C3.49606 10.4115 4.25346 10.6868 5 10.9836V12.0422C4.62637 12.2584 4.375 12.6623 4.375 13.125C4.375 13.5378 4.57507 13.9038 4.88352 14.1314C4.80892 14.4486 4.69852 14.759 4.55231 15.0562C4.92955 15.2343 5.30357 15.4181 5.67425 15.6075C5.88536 15.1781 6.03843 14.7274 6.13345 14.2673C6.57041 14.0725 6.875 13.6343 6.875 13.125C6.875 12.6623 6.62363 12.2584 6.25 12.0422V11.5049C7.22617 11.9314 8.18237 12.3952 9.11683 12.8945C9.66897 13.1895 10.3319 13.1895 10.8841 12.8945Z" fill="#787878"/>
<path d="M3.71852 16.2186C4.0678 15.8693 4.34585 15.4759 4.55231 15.0562C4.92955 15.2343 5.30357 15.4181 5.67425 15.6075C5.40879 16.1473 5.05137 16.6535 4.6024 17.1025C4.35833 17.3465 3.9626 17.3465 3.71852 17.1025C3.47444 16.8584 3.47444 16.4627 3.71852 16.2186Z" fill="#787878"/>
</svg>
