<svg width="60" height="60" viewBox="0 0 60 60" fill="none" xmlns="http://www.w3.org/2000/svg">
<path d="M45.9375 5.625C43.3487 5.625 41.25 7.72367 41.25 10.3125V49.6875C41.25 52.2763 43.3487 54.375 45.9375 54.375H47.8125C50.4013 54.375 52.5 52.2763 52.5 49.6875V10.3125C52.5 7.72367 50.4013 5.625 47.8125 5.625H45.9375Z" fill="white"/>
<path d="M24.375 21.5625C24.375 18.9737 26.4737 16.875 29.0625 16.875H30.9375C33.5263 16.875 35.625 18.9737 35.625 21.5625V49.6875C35.625 52.2763 33.5263 54.375 30.9375 54.375H29.0625C26.4737 54.375 24.375 52.2763 24.375 49.6875V21.5625Z" fill="white"/>
<path d="M7.5 32.8125C7.5 30.2237 9.59867 28.125 12.1875 28.125H14.0625C16.6513 28.125 18.75 30.2237 18.75 32.8125V49.6875C18.75 52.2763 16.6513 54.375 14.0625 54.375H12.1875C9.59867 54.375 7.5 52.2763 7.5 49.6875V32.8125Z" fill="white"/>
</svg>
