<svg width="14" height="17" viewBox="0 0 14 17" fill="none" xmlns="http://www.w3.org/2000/svg">
<path fill-rule="evenodd" clip-rule="evenodd" d="M0.875 3.69606C0.875 2.58514 1.6585 1.68457 2.625 1.68457H3.42512C3.927 1.68457 4.36448 2.07718 4.48621 2.63684L5.13126 5.60256C5.23799 6.09328 5.07846 6.60973 4.72641 6.91322L3.9718 7.56374C3.89344 7.63129 3.87641 7.73021 3.89842 7.79928C4.5608 9.87768 5.99697 11.5284 7.80518 12.2898C7.86527 12.3151 7.95133 12.2955 8.0101 12.2054L8.57606 11.3381C8.8401 10.9334 9.28941 10.7501 9.71633 10.8727L12.2965 11.6142C12.7834 11.7541 13.125 12.2569 13.125 12.8338V13.7535C13.125 14.8644 12.3415 15.765 11.375 15.765H10.0625C4.98838 15.765 0.875 11.037 0.875 5.20467V3.69606Z" fill="#01327B"/>
</svg>
