<svg width="100" height="100" viewBox="0 0 100 100" fill="none" xmlns="http://www.w3.org/2000/svg">
<path fill-rule="evenodd" clip-rule="evenodd" d="M30.75 34.4827C30.75 30.9913 33.2124 28.1609 36.25 28.1609H38.7646C40.342 28.1609 41.7169 29.3948 42.0995 31.1537L44.1268 40.4746C44.4622 42.0168 43.9609 43.64 42.8544 44.5938L40.4828 46.6383C40.2365 46.8506 40.183 47.1615 40.2522 47.3785C42.3339 53.9107 46.8476 59.0988 52.5306 61.4916C52.7194 61.5711 52.9899 61.5096 53.1746 61.2265L54.9533 58.5005C55.7832 57.2287 57.1953 56.6525 58.537 57.038L66.6462 59.3682C68.1765 59.808 69.25 61.3883 69.25 63.2014V66.0918C69.25 69.5832 66.7876 72.4136 63.75 72.4136H59.625C43.6778 72.4136 30.75 57.5541 30.75 39.2241V34.4827Z" fill="white"/>
</svg>
