<svg width="60" height="60" viewBox="0 0 60 60" fill="none" xmlns="http://www.w3.org/2000/svg">
<path fill-rule="evenodd" clip-rule="evenodd" d="M20.625 16.875C20.625 11.6973 24.8223 7.5 30 7.5C35.1777 7.5 39.375 11.6973 39.375 16.875C39.375 22.0527 35.1777 26.25 30 26.25C24.8223 26.25 20.625 22.0527 20.625 16.875Z" fill="white"/>
<path fill-rule="evenodd" clip-rule="evenodd" d="M39.375 24.375C39.375 20.2329 42.7329 16.875 46.875 16.875C51.0171 16.875 54.375 20.2329 54.375 24.375C54.375 28.5171 51.0171 31.875 46.875 31.875C42.7329 31.875 39.375 28.5171 39.375 24.375Z" fill="white"/>
<path fill-rule="evenodd" clip-rule="evenodd" d="M5.625 24.375C5.625 20.2329 8.98286 16.875 13.125 16.875C17.2671 16.875 20.625 20.2329 20.625 24.375C20.625 28.5171 17.2671 31.875 13.125 31.875C8.98286 31.875 5.625 28.5171 5.625 24.375Z" fill="white"/>
<path fill-rule="evenodd" clip-rule="evenodd" d="M15.7747 37.7938C18.7696 33.111 24.0209 30 30 30C35.9799 30 41.2317 33.1118 44.2265 37.7955C46.2969 41.0336 47.1926 44.938 46.7724 48.7448C46.7068 49.3397 46.361 49.8675 45.8419 50.1654C41.1735 52.8441 35.7627 54.375 30 54.375C24.2373 54.375 18.8265 52.8441 14.1581 50.1654C13.639 49.8675 13.2932 49.3397 13.2276 48.7448C12.8073 44.9373 13.7035 41.0322 15.7747 37.7938Z" fill="white"/>
<path d="M12.7057 35.6342C12.6756 35.6805 12.6457 35.7268 12.6159 35.7733C10.2023 39.5473 9.0977 44.0417 9.43678 48.4725C7.91667 48.2416 6.44174 47.8702 5.02607 47.3717L4.73867 47.2705C4.2144 47.0858 3.84807 46.6097 3.80398 46.0556L3.77981 45.7519C3.76004 45.5035 3.75 45.2527 3.75 45C3.75 39.9628 7.72261 35.8535 12.7057 35.6342Z" fill="white"/>
<path d="M50.5641 48.4724C50.9031 44.0425 49.799 39.5489 47.3863 35.7754C47.3561 35.7282 47.3258 35.6812 47.2952 35.6343C52.2779 35.854 56.25 39.9631 56.25 45C56.25 45.2527 56.24 45.5035 56.2202 45.7519L56.196 46.0556C56.1519 46.6097 55.7856 47.0858 55.2613 47.2705L54.9739 47.3717C53.5585 47.8701 52.0839 48.2415 50.5641 48.4724Z" fill="white"/>
</svg>
