<svg width="105" height="122" viewBox="0 0 105 122" fill="none" xmlns="http://www.w3.org/2000/svg">
<g clip-path="url(#clip0_685_1180)">
<path fill-rule="evenodd" clip-rule="evenodd" d="M21.2233 95.5372C22.5241 95.2148 22.0405 95.8367 23.1308 95.0855C23.2916 94.9301 23.4156 94.7408 23.4937 94.5313C24.0706 93.6244 24.5959 92.6858 25.0673 91.7199C25.4287 90.7336 25.7849 89.7614 26.1463 88.7752C30.0044 77.7061 34.8269 66.9972 40.5583 56.7717C46.1987 46.5939 53.0548 37.139 60.976 28.6151C68.1248 21.0842 76.2298 14.5227 85.0839 9.09812C91.0308 5.35045 97.292 2.12645 103.797 -0.537523C103.826 -0.550581 103.853 -0.569423 103.875 -0.592935C103.897 -0.616446 103.914 -0.644141 103.925 -0.674375C103.936 -0.704609 103.941 -0.736764 103.939 -0.768925C103.938 -0.801084 103.93 -0.832596 103.916 -0.86158C103.884 -0.920206 103.833 -0.965254 103.77 -0.988113C103.708 -1.01097 103.639 -1.01004 103.578 -0.985487C94.8335 0.949179 86.3801 4.01943 78.4325 8.14712C66.4546 14.7 55.8668 23.522 47.2602 34.1209C42.0455 40.4152 37.4717 47.214 33.6066 54.4162C27.9149 65.1778 23.3856 76.5149 20.0952 88.2359C19.924 88.7454 19.7819 89.2642 19.6696 89.7899C19.422 91.0529 19.3204 92.3401 19.3666 93.6263C19.3559 93.7725 19.3725 93.9195 19.4155 94.0597C20.0126 95.2214 19.849 94.4902 20.7762 95.4053C20.7659 95.4387 20.7626 95.4739 20.7664 95.5086C20.7703 95.5434 20.7812 95.5769 20.7986 95.6073C20.8159 95.6376 20.8393 95.6641 20.8673 95.685C20.8953 95.7059 20.9273 95.7208 20.9613 95.7289C21.0205 95.7323 21.079 95.7151 21.1268 95.6801C21.1746 95.6451 21.2087 95.5946 21.2233 95.5372Z" fill="#5A189A"/>
<path fill-rule="evenodd" clip-rule="evenodd" d="M21.8308 95.2322C21.8105 88.3528 22.2571 81.4208 22.6652 74.5066C23.0733 67.5923 23.4372 60.4062 24.266 53.3905C24.227 53.1045 24.2969 52.8265 24.1808 52.5762C23.4733 50.9745 23.2156 51.5033 22.0483 50.1966C22.0611 50.1191 22.0431 50.0396 21.9979 49.9752C21.9527 49.9109 21.8841 49.8668 21.8068 49.8525C21.7293 49.8396 21.6498 49.8577 21.5854 49.9029C21.521 49.948 21.477 50.0166 21.4627 50.0939C19.9197 50.9029 19.8007 50.268 18.6476 51.5395C18.4512 51.7807 18.3014 52.0564 18.2059 52.3525C17.3988 55.7325 16.597 59.0984 15.959 62.5403C15.0053 67.6724 14.2541 72.8628 13.7823 78.0756C13.25 83.8895 13.1253 89.725 13.1162 95.5069C13.1212 97.1068 12.0295 99.9989 12.3017 101.393C12.7031 103.394 13.5798 105.058 15.2009 105.3C16.066 105.425 16.9129 106.167 17.998 105.43C18.4647 104.898 18.9747 104.989 19.9418 103.745C20.2501 103.468 20.5902 103.227 20.9551 103.03C23.7771 100.868 29.07 95.8872 34.7812 90.2451C39.2163 85.8612 44.0096 81.2411 47.8479 77.134C51.6861 73.0269 54.7426 69.3525 56.0243 67.9044C56.0868 67.8466 56.1372 67.7769 56.1726 67.6995C56.208 67.6221 56.2278 67.5385 56.2307 67.4534C56.2337 67.3683 56.2197 67.2835 56.1898 67.2038C56.1598 67.1241 56.1143 67.0512 56.056 66.9891C55.9373 66.8616 55.773 66.7862 55.599 66.7793C55.4249 66.7723 55.2551 66.8345 55.1267 66.9522C53.6288 68.1613 49.9425 70.9817 45.5359 74.7207C38.7578 80.4833 30.2669 88.3032 23.8915 93.4463C23.1783 94.1279 22.4975 94.6775 21.8308 95.2322ZM20.5002 99.2993C20.2473 99.9897 20.3023 100.537 20.8508 100.61C21.3994 100.684 20.9564 99.93 20.4951 99.3134L20.5002 99.2993ZM18.5308 97.8266C18.2517 97.7629 17.9819 97.664 17.7277 97.5323C17.4741 97.4394 17.3075 97.9377 16.9849 97.7715C16.6622 97.6053 16.6407 98.0129 16.5172 98.1754C16.3937 98.338 16.6544 98.6732 16.893 98.6328C17.4853 98.4823 18.0409 98.2128 18.5257 97.8407L18.5308 97.8266Z" fill="#5A189A"/>
</g>
<defs>
<clipPath id="clip0_685_1180">
<rect width="62.2133" height="130.369" fill="white" transform="translate(45.6304 -22.3152) rotate(20.1245)"/>
</clipPath>
</defs>
</svg>
