<svg width="47" height="46" viewBox="0 0 47 46" fill="none" xmlns="http://www.w3.org/2000/svg">
<circle cx="23.6223" cy="22.8123" r="22.6736" fill="#5A189A"/>
<path d="M34.9807 14.8776C35.1118 14.747 35.2429 14.4858 35.1118 14.2247C34.9807 14.0941 34.7186 13.8329 34.4564 13.3106C34.0632 13.18 33.8011 13.18 33.4078 13.4412C28.4271 16.5751 25.6745 20.2312 25.1502 24.4097C24.2327 30.9386 30.131 34.0725 33.1457 31.1998C36.1604 28.3271 34.3254 24.6709 32.2282 23.6263C30.131 22.5816 28.8203 22.9734 28.9513 21.6676C29.2135 20.3618 32.2282 16.7056 34.9807 14.8776ZM21.4802 13.4412C21.0869 13.18 20.6937 13.18 20.4316 13.4412C15.4508 16.5751 12.6982 20.2312 12.174 24.5403C11.2564 31.0692 17.1547 34.2031 20.1694 31.3303C23.1841 28.4576 21.3491 24.8015 19.2519 23.7568C17.0237 22.8428 15.7129 23.2345 15.9751 21.7982C16.2372 20.4924 19.2519 16.8362 22.0045 15.0081C22.1355 14.8776 22.2666 14.6164 22.1355 14.3552C22.0045 14.2247 21.7423 13.9635 21.4802 13.4412Z" fill="white"/>
</svg>
