<?xml version="1.0" standalone="no"?>
<!DOCTYPE svg PUBLIC "-//W3C//DTD SVG 20010904//EN"
 "http://www.w3.org/TR/2001/REC-SVG-20010904/DTD/svg10.dtd">
<svg version="1.0" xmlns="http://www.w3.org/2000/svg"
 width="512.000000pt" height="512.000000pt" viewBox="0 0 512.000000 512.000000"
 preserveAspectRatio="xMidYMid meet">
<metadata>
Created by potrace 1.14, written by Peter Selinger 2001-2017
</metadata>
<g transform="translate(0.000000,512.000000) scale(0.100000,-0.100000)"
fill="#000000" stroke="none">
<path d="M1262 3558 c-161 -61 -229 -249 -147 -408 16 -31 16 -31 -6 -20 -27
15 -39 0 -32 -40 5 -34 -9 -45 -38 -30 -33 18 -36 1 -5 -24 27 -21 29 -27 23
-67 -8 -61 -52 -153 -94 -196 -21 -23 -43 -15 -50 17 -3 17 -10 33 -14 36 -5
3 -9 14 -9 25 0 13 -10 24 -30 31 -18 6 -32 19 -36 33 -3 13 -14 31 -25 41
-25 22 -24 33 1 27 11 -3 20 -3 20 1 0 3 -15 9 -32 14 l-33 9 25 12 c23 11 23
11 -10 6 -19 -3 -44 -14 -55 -25 -12 -11 -27 -20 -34 -20 -22 0 -70 -40 -86
-70 -8 -16 -15 -49 -15 -75 0 -45 0 -45 -34 -45 -64 0 -86 -65 -42 -123 13
-18 31 -48 39 -67 14 -32 15 -33 17 -10 1 23 3 22 15 -10 l13 -35 11 29 c14
36 10 70 -17 123 -16 29 -18 43 -10 51 9 9 20 3 44 -23 28 -28 43 -35 91 -40
82 -9 82 -9 81 -57 0 -24 2 -56 6 -73 26 -114 36 -203 35 -289 -1 -87 -19
-192 -37 -221 -4 -5 -7 -16 -9 -24 -1 -8 -11 -27 -22 -42 -20 -27 -21 -29 -2
-38 17 -10 18 -15 7 -68 -7 -32 -14 -62 -16 -68 -1 -5 -4 -14 -5 -20 -2 -5 -8
-25 -14 -43 -9 -28 -7 -34 12 -47 12 -8 42 -21 67 -30 113 -40 213 1 116 47
-19 10 -38 29 -46 47 -7 17 -19 31 -26 31 -10 0 -13 13 -10 49 5 59 11 71 35
71 21 0 33 21 65 115 l25 70 0 -72 c1 -49 5 -75 15 -80 19 -11 24 -34 15 -61
-15 -39 -14 -112 2 -127 8 -7 39 -16 69 -20 30 -3 66 -8 80 -10 30 -5 72 16
62 31 -4 6 -35 27 -69 48 -34 21 -63 43 -65 49 -9 28 -2 82 9 80 22 -5 31 59
28 207 -2 92 -9 173 -19 220 -10 41 -20 86 -22 99 -3 13 -11 51 -19 85 -8 33
-13 61 -12 62 1 1 17 9 35 18 18 9 32 24 32 34 0 10 14 28 30 41 41 30 76 87
102 168 12 37 35 81 50 97 15 16 28 32 28 35 0 4 27 7 59 8 99 3 194 64 244
158 30 55 31 191 2 250 -25 51 -83 108 -137 136 -60 30 -157 34 -226 7z m-49
-510 c31 -21 35 -27 23 -37 -12 -10 -16 -8 -21 8 -3 12 -10 21 -15 21 -17 0
-19 -17 -5 -36 22 -29 18 -74 -12 -132 -27 -53 -119 -150 -130 -138 -3 3 0 12
6 20 7 8 14 27 17 43 3 15 12 47 20 71 7 23 14 48 14 54 0 6 11 35 25 65 25
52 28 82 11 113 -4 8 1 6 11 -5 10 -12 35 -32 56 -47z"/>
<path d="M3554 2779 c-60 -17 -61 -21 -124 -293 l-32 -139 -25 51 c-42 89
-140 152 -234 152 -81 0 -177 -55 -218 -125 -9 -16 -10 12 -5 122 l6 143 -30
30 c-41 40 -90 41 -131 3 -32 -30 -34 -41 -47 -198 -3 -44 -8 -82 -10 -84 -2
-2 -8 7 -13 20 -15 40 -56 71 -93 71 -39 0 -215 -79 -238 -106 -8 -10 -13 -36
-13 -58 3 -75 67 -113 138 -84 49 21 48 21 41 -15 -10 -53 -62 -89 -127 -89
-41 0 -52 5 -86 39 -60 58 -89 159 -63 225 5 14 27 37 49 52 37 24 46 26 122
22 79 -4 84 -3 113 23 58 51 33 141 -45 168 -16 6 -64 9 -107 7 -139 -5 -267
-86 -318 -203 -98 -222 65 -508 301 -527 106 -8 224 40 290 117 l35 42 -4 -40
c-6 -69 28 -112 92 -117 63 -5 99 33 106 110 5 55 10 60 26 22 19 -46 102
-116 154 -129 99 -25 192 -3 255 58 l37 37 29 -29 c24 -25 34 -28 74 -25 35 2
55 -3 84 -20 111 -70 264 -19 336 111 12 21 21 45 21 55 0 9 11 -6 24 -34 67
-144 205 -205 330 -145 25 13 46 26 46 30 0 4 29 6 65 5 53 -1 70 -6 89 -23
40 -38 112 -29 145 17 14 20 21 52 25 122 4 52 9 120 11 150 2 30 7 91 10 135
2 44 7 114 10 155 7 97 -12 140 -67 154 -49 12 -96 -8 -113 -48 -7 -17 -16
-71 -20 -121 -4 -49 -8 -108 -10 -130 -2 -22 -4 -67 -5 -100 -1 -75 -12 -59
-35 55 -29 135 -62 186 -117 176 -13 -3 -29 -5 -35 -5 -7 -1 -22 -10 -33 -21
-17 -17 -26 -19 -58 -11 -60 13 -145 -17 -193 -69 -22 -23 -42 -53 -45 -66 -9
-34 -17 -30 -38 15 -9 22 -32 53 -51 70 -39 34 -121 62 -160 55 -28 -5 -30 0
-14 66 15 63 16 81 6 113 -13 38 -71 67 -113 56z m-389 -425 c22 -9 45 -56 45
-93 0 -103 -97 -130 -128 -36 -28 85 16 154 83 129z m541 -19 c35 -54 -6 -165
-61 -165 -64 0 -82 113 -28 172 24 27 69 23 89 -7z m494 0 c17 -18 25 -40 28
-78 5 -62 -12 -87 -58 -87 -61 0 -100 112 -58 165 25 32 58 32 88 0z"/>
<path d="M1282 2729 c-18 -3 -41 -14 -52 -24 -19 -18 -37 -61 -34 -82 1 -7 2
-19 3 -26 0 -7 15 -28 32 -45 25 -26 28 -33 16 -38 -24 -9 -36 -62 -32 -139
10 -198 17 -298 20 -318 7 -34 48 -68 92 -74 34 -4 43 -1 71 27 20 20 32 26
32 17 0 -21 46 -48 83 -49 18 -1 75 2 127 6 52 4 123 9 157 11 95 6 125 28
126 94 2 70 -50 103 -145 91 -26 -4 -48 -4 -48 -1 0 2 23 37 50 78 93 133 115
213 85 302 -11 36 -30 62 -61 90 -126 111 -330 56 -393 -106 -15 -38 -17 -40
-35 -27 -19 14 -19 14 2 37 72 77 6 199 -96 176z m386 -249 c2 -15 -12 -49
-33 -85 -43 -70 -197 -276 -203 -270 -3 2 -6 46 -9 97 -2 51 -5 110 -7 131 -3
41 0 43 28 22 25 -19 85 -19 109 -1 10 8 27 41 38 75 19 57 23 62 48 59 19 -2
27 -9 29 -28z"/>
<path d="M1262 1815 c0 -84 3 -105 14 -105 15 0 15 -1 17 122 2 75 0 88 -14
88 -14 0 -17 -15 -17 -105z"/>
<path d="M1347 1913 c-2 -5 -3 -44 -1 -88 2 -68 5 -82 24 -97 24 -20 50 -24
50 -8 0 6 -6 10 -14 10 -24 0 -29 19 -29 107 0 61 -3 83 -13 83 -7 0 -15 -3
-17 -7z"/>
<path d="M1456 1833 c2 -76 5 -89 24 -105 24 -19 50 -24 50 -9 0 5 -9 13 -20
16 -11 3 -20 14 -21 23 0 9 -2 48 -2 87 -2 55 -5 70 -18 73 -13 2 -15 -10 -13
-85z"/>
<path d="M2057 1914 c-14 -14 -7 -35 11 -32 9 2 17 10 17 17 0 16 -18 25 -28
15z"/>
<path d="M2535 1900 c5 -28 -4 -50 -22 -50 -8 0 -11 -5 -8 -10 4 -6 11 -8 16
-5 11 7 11 6 13 -65 1 -41 5 -55 16 -55 12 0 15 13 14 58 -1 53 4 62 29 58 4
0 7 4 7 9 0 6 -7 10 -15 10 -15 0 -17 3 -19 42 0 13 -9 24 -18 26 -13 2 -16
-2 -13 -18z"/>
<path d="M2969 1918 c-1 -1 -2 -16 -3 -32 0 -19 -8 -32 -21 -37 -20 -8 -20 -8
1 -14 18 -6 21 -14 19 -66 -1 -50 2 -59 16 -59 15 0 17 9 16 59 -2 52 0 61 18
66 20 6 20 6 0 14 -12 5 -19 17 -20 36 0 16 -6 30 -12 32 -7 3 -13 3 -14 1z"/>
<path d="M3387 1913 c-2 -5 -3 -51 -3 -103 1 -79 4 -95 17 -98 14 -3 16 11 16
103 0 78 -4 105 -13 105 -7 0 -15 -3 -17 -7z"/>
<path d="M4389 1908 c-1 -7 -1 -23 -1 -35 1 -15 -6 -23 -21 -26 l-22 -4 21 -8
c19 -6 22 -14 20 -63 -1 -45 2 -57 15 -60 13 -2 16 7 14 57 -1 52 2 61 19 66
19 6 19 8 4 12 -18 4 -20 9 -22 47 -1 22 -25 35 -27 14z"/>
<path d="M1572 1794 c6 -68 25 -88 77 -80 42 7 55 26 58 89 2 41 -1 48 -15 45
-13 -2 -17 -14 -17 -48 0 -54 -9 -70 -39 -70 -27 0 -33 16 -31 78 1 35 -2 42
-18 42 -18 0 -19 -6 -15 -56z"/>
<path d="M1783 1830 c-18 -16 -23 -32 -23 -70 0 -38 4 -50 15 -50 11 0 15 12
15 48 0 58 10 75 41 70 22 -3 24 -9 27 -60 2 -43 7 -58 17 -58 8 0 16 6 16 13
1 6 2 26 3 42 5 65 5 65 36 65 17 0 31 -4 32 -10 0 -5 2 -28 4 -50 1 -22 3
-44 3 -50 1 -5 8 -10 16 -10 11 0 14 12 10 57 -5 69 -23 87 -75 79 -45 -8 -49
-8 -85 0 -22 4 -36 0 -52 -16z"/>
<path d="M2051 1780 c-2 -64 0 -71 16 -68 14 3 17 14 17 68 0 51 -3 65 -15 68
-13 2 -16 -10 -18 -68z"/>
<path d="M2162 1830 c-27 -26 -33 -120 -7 -120 11 0 15 12 15 48 0 50 12 72
41 72 25 0 32 -16 33 -69 1 -33 5 -47 17 -49 27 -5 17 97 -11 120 -29 24 -61
23 -88 -2z"/>
<path d="M2353 1838 c-60 -29 -9 -150 53 -123 17 7 15 9 -10 14 -56 11 -54
106 1 99 27 -3 28 -6 28 -55 1 -56 6 -68 28 -60 10 4 13 20 11 53 -3 72 -50
102 -111 72z"/>
<path d="M2663 1824 c-20 -20 -24 -31 -19 -57 3 -17 12 -35 19 -39 24 -16 59
-20 70 -8 9 9 7 11 -9 8 -21 -3 -54 17 -54 33 0 5 23 9 50 9 43 0 50 3 50 20
0 24 -37 60 -62 60 -11 0 -30 -12 -45 -26z m67 2 c0 -2 3 -11 6 -20 5 -13 -1
-16 -30 -16 -38 0 -44 8 -24 28 11 11 48 17 48 8z"/>
<path d="M3104 1842 c-16 -10 -34 -48 -34 -70 0 -26 41 -62 73 -62 33 0 67 35
67 70 0 50 -66 89 -106 62z m72 -37 c3 -14 3 -36 0 -50 -5 -19 -13 -25 -35
-25 -31 0 -44 24 -36 65 2 11 4 23 4 28 1 4 14 7 31 7 23 0 31 -5 36 -25z"/>
<path d="M3490 1830 c-25 -25 -29 -120 -5 -120 11 0 15 12 15 48 0 58 10 75
41 70 22 -3 24 -9 27 -60 2 -47 6 -58 20 -58 14 0 17 9 15 46 -2 61 -25 94
-63 94 -17 0 -39 -9 -50 -20z"/>
<path d="M3680 1832 c-31 -25 -40 -122 -12 -122 15 0 18 8 17 43 -1 23 2 50 7
60 10 19 57 23 59 5 1 -7 3 -31 5 -53 1 -22 3 -43 3 -47 1 -5 8 -8 16 -8 11 0
15 12 15 48 0 80 -56 117 -110 74z"/>
<path d="M3862 1830 c-24 -23 -28 -50 -11 -83 16 -29 28 -37 60 -37 39 0 73
42 65 81 -11 58 -72 78 -114 39z m75 -12 c13 -22 14 -59 2 -74 -20 -24 -58
-17 -65 11 -10 42 3 75 31 75 13 0 27 -6 32 -12z"/>
<path d="M4042 1783 c16 -38 32 -70 34 -72 3 -3 64 125 64 135 0 2 -4 4 -9 4
-5 0 -17 -21 -28 -46 l-20 -46 -18 46 c-12 31 -24 46 -36 46 -16 0 -15 -7 13
-67z"/>
<path d="M4201 1832 c-31 -24 -31 -79 -1 -104 25 -20 55 -24 65 -8 5 8 11 7
20 0 8 -7 18 -9 23 -6 15 9 6 95 -13 116 -22 25 -66 26 -94 2z m78 -24 c5 -13
4 -35 -2 -51 -7 -23 -15 -28 -36 -25 -21 2 -27 9 -29 36 -5 47 3 62 33 62 17
0 28 -7 34 -22z"/>
<path d="M4515 1827 c-23 -19 -26 -27 -20 -59 5 -24 14 -39 31 -47 32 -14 51
-14 60 1 5 7 2 9 -8 5 -17 -6 -58 18 -58 34 0 5 23 9 50 9 43 0 50 3 50 20 0
23 -37 60 -61 60 -10 0 -30 -10 -44 -23z m65 -1 c0 -2 3 -11 6 -20 5 -13 -1
-16 -30 -16 -38 0 -44 8 -24 28 11 11 48 17 48 8z"/>
</g>
</svg>
