<svg width="40" height="40" viewBox="0 0 40 40" fill="none" xmlns="http://www.w3.org/2000/svg">
<g id="winner_5537509 1" clip-path="url(#clip0_685_1203)">
<path id="Vector" d="M37.5781 28.7168H26.7969V21.9757C26.7969 21.028 26.0259 20.257 25.0781 20.257H14.9219C13.9741 20.257 13.2031 21.028 13.2031 21.9757V25.589H2.42188C1.47414 25.589 0.703125 26.36 0.703125 27.3077V38.75C0.703125 39.052 0.947969 39.2969 1.25 39.2969H38.75C39.052 39.2969 39.2969 39.052 39.2969 38.75V30.4355C39.2969 29.4878 38.5259 28.7168 37.5781 28.7168ZM14.2969 21.9757C14.2969 21.6311 14.5773 21.3507 14.9219 21.3507H25.0781C25.4227 21.3507 25.7031 21.6311 25.7031 21.9757V29.2637V38.2031H14.2969V26.1359V21.9757ZM1.79688 27.3077C1.79688 26.9631 2.07727 26.6827 2.42188 26.6827H13.2031V38.2031H1.79688V27.3077ZM38.2031 38.2031H26.7969V29.8105H37.5781C37.9227 29.8105 38.2031 30.0909 38.2031 30.4355V38.2031ZM14.7869 10.0322C15.3234 11.543 16.499 12.7527 17.987 13.3364V16.1313H16.0946C15.3035 16.1313 14.66 16.7749 14.66 17.5659C14.66 18.357 15.3035 19.0005 16.0946 19.0005H23.8584C24.6494 19.0005 25.2929 18.357 25.2929 17.5659C25.2929 16.7748 24.6494 16.1313 23.8584 16.1313H21.9659V13.355C23.4762 12.7786 24.6708 11.559 25.213 10.0322C26.5991 9.91547 27.6917 8.7507 27.6917 7.33484V4.16555C27.6917 3.66539 27.2848 3.25852 26.7848 3.25852H25.5309V2.0807C25.5309 1.32109 24.913 0.703125 24.1534 0.703125H15.8466C15.087 0.703125 14.469 1.32109 14.469 2.0807V3.25859H13.2152C12.715 3.25859 12.3081 3.66547 12.3081 4.16563V7.33484C12.3081 8.7507 13.4007 9.91547 14.7869 10.0322ZM24.1992 17.566C24.1992 17.7508 24.0431 17.9069 23.8584 17.9069H16.0947C15.9099 17.9069 15.7538 17.7508 15.7538 17.566C15.7538 17.3813 15.9099 17.2252 16.0947 17.2252H23.8584C24.0431 17.2251 24.1992 17.3812 24.1992 17.566ZM20.8722 16.1313H19.0808V13.6395C19.3799 13.6898 19.6867 13.7173 20 13.7173C20.2968 13.7173 20.588 13.6931 20.8722 13.6479V16.1313ZM26.598 4.35227V7.33477C26.598 8.04883 26.1315 8.65516 25.4876 8.86727C25.5152 8.64391 25.531 8.41695 25.531 8.18617V4.35227H26.598ZM15.5627 2.0807C15.5627 1.92687 15.6927 1.79688 15.8466 1.79688H24.1534C24.3073 1.79688 24.4373 1.92687 24.4373 2.0807V8.18625C24.4373 10.633 22.4467 12.6235 20 12.6235C17.5533 12.6235 15.5627 10.633 15.5627 8.18625V2.0807ZM13.4019 4.35227H14.469V8.18625C14.469 8.41695 14.4848 8.64391 14.5124 8.86734C13.8684 8.65523 13.4019 8.04891 13.4019 7.33484V4.35227ZM34.4827 32.3218V33.0551C34.4827 33.4162 34.3543 33.7478 34.1409 34.0068C34.3543 34.2658 34.4827 34.5974 34.4827 34.9585V35.6918C34.4827 36.5181 33.8105 37.1904 32.9841 37.1904H31.0642C30.7622 37.1904 30.5173 36.9455 30.5173 36.6435C30.5173 36.3415 30.7622 36.0966 31.0642 36.0966H32.9841C33.2073 36.0966 33.3889 35.915 33.3889 35.6918V34.9585C33.3889 34.7353 33.2073 34.5537 32.9841 34.5537H31.0642C30.7622 34.5537 30.5173 34.3088 30.5173 34.0068C30.5173 33.7048 30.7622 33.4599 31.0642 33.4599H32.9841C33.2073 33.4599 33.3889 33.2783 33.3889 33.0551V32.3218C33.3889 32.0986 33.2073 31.917 32.9841 31.917H31.0642C30.7622 31.917 30.5173 31.6721 30.5173 31.3701C30.5173 31.068 30.7622 30.8232 31.0642 30.8232H32.9841C33.8104 30.8233 34.4827 31.4955 34.4827 32.3218ZM9.54102 35.0495C9.54102 35.3515 9.29617 35.5963 8.99414 35.5963H6.00586C5.82297 35.5963 5.65219 35.5049 5.55078 35.3527C5.44938 35.2004 5.43078 35.0077 5.50117 34.8388C6.0643 33.4891 6.81711 32.8767 7.42195 32.3846C7.66898 32.1836 7.88242 32.0101 8.0407 31.818C8.25086 31.5631 8.57031 31.0859 8.34922 30.7539C8.14641 30.4495 7.58586 30.2983 7.14883 30.4304C6.82758 30.5276 6.67141 30.7423 6.67141 31.0866C6.67141 31.3887 6.42656 31.6335 6.12453 31.6335C5.8225 31.6335 5.57766 31.3887 5.57766 31.0866C5.57766 30.2578 6.04664 29.6211 6.83219 29.3835C7.72758 29.1127 8.79391 29.4483 9.25961 30.1476C9.47133 30.4655 9.85859 31.3324 8.88469 32.5137C8.65711 32.7898 8.39242 33.0051 8.11219 33.233C7.70016 33.5683 7.27766 33.9119 6.90148 34.5025H8.99414C9.29617 34.5026 9.54102 34.7474 9.54102 35.0495ZM17.6696 9.04523C17.5959 9.27078 17.6759 9.5182 17.868 9.65766C17.9638 9.72734 18.0766 9.76211 18.1894 9.76211C18.3025 9.76211 18.4156 9.72711 18.5116 9.65703L20 8.57133L21.4884 9.65703C21.6801 9.79688 21.9402 9.79711 22.1321 9.65766C22.3241 9.5182 22.4042 9.27078 22.3305 9.04523L21.7578 7.29414L23.2503 6.21414C23.4426 6.075 23.5231 5.82781 23.4498 5.60211C23.3766 5.37672 23.1666 5.22422 22.9298 5.22422C22.9295 5.22422 22.9291 5.22422 22.9287 5.22422L21.0864 5.22773L20.5205 3.47453C20.4476 3.24867 20.2373 3.09562 20.0001 3.09562C19.7628 3.09562 19.5525 3.24867 19.4797 3.47453L18.9137 5.22773L17.0715 5.22422C17.0711 5.22422 17.0708 5.22422 17.0704 5.22422C16.8335 5.22422 16.6235 5.3768 16.5503 5.60211C16.477 5.82781 16.5576 6.075 16.7498 6.21414L18.2423 7.29414L17.6696 9.04523ZM19.3105 6.32234H19.3116C19.5488 6.32234 19.7591 6.16937 19.832 5.94344L20 5.42289L20.168 5.94352C20.2409 6.16938 20.4512 6.32242 20.6884 6.32242H20.6895L21.2366 6.32133L20.7934 6.64203C20.6009 6.78141 20.5204 7.02914 20.5942 7.25508L20.7643 7.77508L20.3223 7.45266C20.2262 7.38266 20.1131 7.34758 20 7.34758C19.8869 7.34758 19.7738 7.38258 19.6777 7.45266L19.2358 7.775L19.4059 7.25508C19.4797 7.02914 19.3992 6.78141 19.2066 6.64203L18.7634 6.32133L19.3105 6.32234ZM18.3252 32.4137C18.3252 32.1116 18.5701 31.8668 18.8721 31.8668H19.4531V28.4605L19.4199 28.4937C19.2063 28.7072 18.8601 28.7072 18.6465 28.4937C18.433 28.2802 18.433 27.9338 18.6465 27.7203L19.6133 26.7535C19.7697 26.5971 20.0048 26.5503 20.2093 26.6349C20.4137 26.7195 20.5469 26.919 20.5469 27.1402V31.8667H21.128C21.43 31.8667 21.6748 32.1116 21.6748 32.4136C21.6748 32.7156 21.43 32.9605 21.128 32.9605H18.8721C18.57 32.9605 18.3252 32.7157 18.3252 32.4137Z" fill="url(#paint0_linear_685_1203)"/>
</g>
<defs>
<linearGradient id="paint0_linear_685_1203" x1="35.5734" y1="11.5534" x2="4.42664" y2="42.7001" gradientUnits="userSpaceOnUse">
<stop stop-color="#FF6D00"/>
<stop offset="1" stop-color="#5A189A"/>
</linearGradient>
<clipPath id="clip0_685_1203">
<rect width="40" height="40" fill="white"/>
</clipPath>
</defs>
</svg>
