<svg width="40" height="40" viewBox="0 0 40 40" fill="none" xmlns="http://www.w3.org/2000/svg">
<g id="motivation_8420349 1" clip-path="url(#clip0_685_1199)">
<path id="Vector" d="M14.364 5.51406L17.0857 7.75727L16.2022 11.1717C16.146 11.3892 16.2284 11.6191 16.4102 11.7511C16.592 11.883 16.836 11.8905 17.0255 11.7698L20 9.87461L22.9743 11.7699C23.0642 11.8271 23.1663 11.8556 23.2682 11.8556C23.3812 11.8556 23.4941 11.8206 23.5897 11.7512C23.7715 11.6191 23.8539 11.3893 23.7976 11.1718L22.9142 7.75734L25.6359 5.51414C25.8093 5.37125 25.8776 5.13687 25.8082 4.9232C25.7387 4.70953 25.5457 4.56008 25.3215 4.54633L21.8011 4.33133L20.5087 1.04969C20.4265 0.840547 20.2246 0.703125 20 0.703125C19.7754 0.703125 19.5735 0.840547 19.4911 1.04969L18.1989 4.33125L14.6785 4.54625C14.4542 4.56 14.2611 4.70945 14.1918 4.92312C14.1224 5.1368 14.1906 5.37117 14.364 5.51406ZM18.6133 5.40172C18.8255 5.38875 19.0109 5.25398 19.0888 5.05617L20 2.7425L20.9111 5.05625C20.989 5.25398 21.1745 5.38875 21.3866 5.40172L23.8687 5.55328L21.9497 7.13484C21.7857 7.27 21.7149 7.48805 21.7681 7.69375L22.391 10.1012L20.2939 8.76492C20.2043 8.70781 20.1021 8.67922 20 8.67922C19.8979 8.67922 19.7958 8.70773 19.7061 8.76492L17.609 10.1012L18.2318 7.69375C18.2851 7.48797 18.2143 7.27 18.0502 7.13484L16.1312 5.55328L18.6133 5.40172ZM9.45247 13.9616L12.1741 11.7184C12.3475 11.5755 12.4158 11.3411 12.3464 11.1274C12.2769 10.9137 12.0839 10.7643 11.8597 10.7505L8.33927 10.5356L7.047 7.25398C6.96466 7.04484 6.76286 6.90742 6.53817 6.90742C6.31349 6.90742 6.11169 7.04484 6.02935 7.25398L4.737 10.5356L1.21661 10.7505C0.992315 10.7643 0.799268 10.9137 0.729893 11.1274C0.660518 11.3411 0.7288 11.5755 0.902159 11.7184L3.62388 13.9616L2.74044 17.376C2.68419 17.5935 2.76661 17.8234 2.94841 17.9554C3.13021 18.0873 3.37419 18.0948 3.56372 17.9741L6.5381 16.0788L9.51247 17.9741C9.60231 18.0313 9.70442 18.0598 9.8063 18.0598C9.91935 18.0598 10.0322 18.0248 10.1278 17.9554C10.3096 17.8234 10.3921 17.5935 10.3358 17.376L9.45247 13.9616ZM6.83208 14.9692C6.65278 14.8549 6.42357 14.8549 6.24435 14.9692L4.14724 16.3055L4.77013 13.898C4.82341 13.6923 4.75255 13.4743 4.58849 13.3391L2.66958 11.7576L5.15169 11.6061C5.36388 11.5931 5.54927 11.4584 5.62716 11.2605L6.53833 8.94687L7.4495 11.2605C7.52739 11.4584 7.71286 11.5931 7.92497 11.6061L10.4071 11.7576L8.48817 13.3391C8.32411 13.4743 8.25333 13.6923 8.30653 13.898L8.92935 16.3055L6.83208 14.9692ZM39.2701 11.1274C39.2006 10.9137 39.0075 10.7643 38.7833 10.7505L35.2629 10.5356L33.9706 7.25398C33.8883 7.04484 33.6865 6.90742 33.4618 6.90742C33.2371 6.90742 33.0353 7.04484 32.9529 7.25398L31.6606 10.5356L28.1402 10.7505C27.9159 10.7643 27.7229 10.9137 27.6535 11.1274C27.5841 11.3411 27.6524 11.5755 27.8258 11.7184L30.5474 13.9616L29.664 17.376C29.6078 17.5935 29.6902 17.8234 29.8721 17.9554C29.9677 18.0248 30.0804 18.0598 30.1936 18.0598C30.2954 18.0598 30.3976 18.0314 30.4874 17.9741L33.4618 16.0788L36.4361 17.9741C36.6257 18.0948 36.8697 18.0874 37.0515 17.9554C37.2332 17.8234 37.3157 17.5935 37.2594 17.376L36.376 13.9616L39.0977 11.7184C39.2711 11.5755 39.3395 11.3411 39.2701 11.1274ZM35.4115 13.3391C35.2475 13.4743 35.1767 13.6923 35.2299 13.898L35.8528 16.3055L33.7557 14.9692C33.6661 14.9121 33.5639 14.8835 33.4618 14.8835C33.3597 14.8835 33.2575 14.912 33.1679 14.9692L31.0708 16.3055L31.6936 13.898C31.7468 13.6923 31.676 13.4743 31.5119 13.3391L29.593 11.7576L32.0751 11.6061C32.2873 11.5931 32.4727 11.4584 32.5506 11.2605L33.4618 8.94687L34.3729 11.2605C34.4508 11.4584 34.6363 11.5931 34.8484 11.6061L37.3305 11.7576L35.4115 13.3391ZM29.0183 23.7873C29.0183 22.4399 27.9222 21.3438 26.5749 21.3438C26.0168 21.3438 25.5022 21.5323 25.0904 21.8483C24.7587 20.8921 23.8494 20.2035 22.7818 20.2035C22.2237 20.2035 21.7091 20.392 21.2973 20.708C20.9656 19.7518 20.0562 19.0631 18.9886 19.0631C18.4305 19.0631 17.916 19.2516 17.5041 19.5676C17.1724 18.6114 16.2631 17.9228 15.1954 17.9228C13.848 17.9228 12.7519 19.0189 12.7519 20.3662V25.0014C11.7311 25.2945 10.9817 26.2359 10.9817 27.3498L10.9821 32.0487C10.9583 33.7716 11.9343 35.0752 13.7421 35.7548V38.75C13.7421 39.052 13.9869 39.2969 14.289 39.2969H25.4754C25.7775 39.2969 26.0223 39.052 26.0223 38.75V36.2306C27.7059 35.99 28.9982 34.6567 28.9982 33.0531M26.5748 22.4375C27.319 22.4375 27.9245 23.043 27.9245 23.7872V27.3498C27.9245 28.094 27.319 28.6995 26.5748 28.6995C25.8306 28.6995 25.225 28.094 25.225 27.3498V23.7872C25.2251 23.043 25.8306 22.4375 26.5748 22.4375ZM24.1314 26.2095C24.1314 26.6462 23.9267 27.0442 23.5699 27.3013C23.3503 27.4596 23.099 27.5463 22.8425 27.5582C22.8483 27.4895 22.852 27.42 22.852 27.3498C22.852 26.3678 22.2693 25.5198 21.4319 25.1318V22.6469C21.4319 21.9027 22.0374 21.2973 22.7816 21.2973C23.5258 21.2973 24.1313 21.9027 24.1313 22.6469M20.3383 24.9064H17.6389V21.5065C17.6389 20.7623 18.2443 20.1569 18.9886 20.1569C19.7328 20.1569 20.3383 20.7623 20.3383 21.5065M16.545 24.9064H13.8456V20.3662C13.8456 19.6221 14.4511 19.0166 15.1953 19.0166C15.9395 19.0166 16.545 19.6221 16.545 20.3662M27.9044 33.0531C27.9044 34.2234 26.8148 35.1755 25.4754 35.1755C25.1734 35.1755 24.9286 35.4204 24.9286 35.7224V38.2031H14.8358V35.3637C14.8358 35.1237 14.6793 34.9118 14.45 34.8411C12.8545 34.3492 12.0557 33.4137 12.0757 32.0605C12.0757 32.0578 12.0758 32.0551 12.0758 32.0523L12.0754 27.3498C12.0754 26.6057 12.6808 26.0002 13.425 26.0002H20.4086C21.1528 26.0002 21.7582 26.6057 21.7582 27.3498C21.7582 28.0941 21.1527 28.6995 20.4086 28.6995H15.6906C15.4197 28.6995 15.1896 28.8979 15.1497 29.1659C15.1098 29.4338 15.2721 29.6905 15.5312 29.7696C17.1364 30.2587 17.9401 31.1941 17.9199 32.5498C17.9154 32.8517 18.1565 33.1002 18.4586 33.1047C18.7618 33.1112 19.009 32.868 19.0135 32.5659C19.0304 31.4311 18.6361 30.4963 17.8569 29.7934H20.4086C21.2857 29.7934 22.056 29.3287 22.487 28.6327C22.5829 28.6442 22.6792 28.6519 22.7755 28.6519C23.2826 28.6519 23.7867 28.4935 24.2094 28.1888C24.2286 28.175 24.2466 28.1603 24.2653 28.1461C24.5963 29.1036 25.5063 29.7934 26.5749 29.7934C27.0719 29.7934 27.5345 29.6438 27.9208 29.3879" fill="url(#paint0_linear_685_1199)"/>
</g>
<defs>
<linearGradient id="paint0_linear_685_1199" x1="33.3065" y1="5.07945" x2="6.57568" y2="31.8102" gradientUnits="userSpaceOnUse">
<stop stop-color="#E93528"/>
<stop offset="1" stop-color="#5A189A"/>
</linearGradient>
<clipPath id="clip0_685_1199">
<rect width="40" height="40" fill="white"/>
</clipPath>
</defs>
</svg>
