<svg width="40" height="40" viewBox="0 0 40 40" fill="none" xmlns="http://www.w3.org/2000/svg">
<g id="project_8553434 1" clip-path="url(#clip0_685_1214)">
<path id="Vector" d="M28.7777 11.2927C30.798 11.2927 32.4417 9.64906 32.4417 7.62867C32.4417 5.60836 30.798 3.96469 28.7777 3.96469C26.7573 3.96469 25.1137 5.60836 25.1137 7.62867C25.1136 9.64906 26.7573 11.2927 28.7777 11.2927ZM28.7777 5.05844C30.1949 5.05844 31.348 6.21148 31.348 7.62867C31.348 9.04594 30.1949 10.199 28.7777 10.199C27.3604 10.199 26.2074 9.04594 26.2074 7.62867C26.2073 6.21148 27.3604 5.05844 28.7777 5.05844ZM8.72531 18.4209H5.0382C4.73617 18.4209 4.49133 18.6657 4.49133 18.9677V22.6548C4.49133 22.9569 4.73617 23.2017 5.0382 23.2017H8.72531C9.02734 23.2017 9.27219 22.9569 9.27219 22.6548V18.9677C9.27219 18.6657 9.02734 18.4209 8.72531 18.4209ZM8.17844 22.108H5.58508V19.5146H8.17844V22.108ZM8.72531 24.4911H5.0382C4.73617 24.4911 4.49133 24.7359 4.49133 25.038V28.7251C4.49133 29.0271 4.73617 29.272 5.0382 29.272H8.72531C9.02734 29.272 9.27219 29.0271 9.27219 28.7251V25.038C9.27219 24.736 9.02734 24.4911 8.72531 24.4911ZM8.17844 28.1782H5.58508V25.5848H8.17844V28.1782ZM39.1366 32.1885L31.7413 24.7932L37.0604 19.4741C37.623 18.9116 37.9328 18.161 37.9328 17.3608C37.9328 16.5605 37.623 15.81 37.0604 15.2474C35.8951 14.0821 33.999 14.0822 32.8337 15.2475L28.7861 19.2951V14.5542H29.4155C29.9481 14.5542 30.3814 14.1209 30.3814 13.5884C30.3814 13.2273 30.5812 12.929 30.9156 12.7904C31.2502 12.6518 31.6024 12.7215 31.8577 12.9769C32.0402 13.1593 32.2827 13.2598 32.5407 13.2598C32.7987 13.2598 33.0413 13.1593 33.2237 12.9769L34.1259 12.0748C34.5023 11.6982 34.5023 11.0855 34.1259 10.7088C33.8705 10.4534 33.8008 10.1013 33.9394 9.76672C34.0779 9.43219 34.3763 9.23242 34.7373 9.23242C35.2699 9.23242 35.7032 8.79914 35.7032 8.26656V6.99086C35.7032 6.45828 35.2699 6.025 34.7373 6.025C34.3763 6.025 34.078 5.82523 33.9394 5.4907C33.8008 5.15609 33.8705 4.80391 34.1259 4.54852C34.5023 4.17195 34.5023 3.55922 34.1259 3.1825L33.2238 2.28055C33.0414 2.09812 32.7988 1.99758 32.5407 1.99758C32.2827 1.99758 32.0402 2.09805 31.8577 2.28047C31.6024 2.53586 31.2502 2.60555 30.9156 2.46695C30.5811 2.32836 30.3813 2.03008 30.3813 1.66898C30.3813 1.13641 29.948 0.703125 29.4155 0.703125H28.1398C27.6072 0.703125 27.1739 1.13641 27.1739 1.66898C27.1739 2.03008 26.9741 2.32836 26.6396 2.46695C26.3049 2.60539 25.9528 2.53578 25.6975 2.28047C25.3209 1.90391 24.7081 1.90391 24.3316 2.28047L23.4294 3.18258C23.2001 3.41195 23.1113 3.72875 23.1613 4.02664H6.80711C6.66211 4.02664 6.52297 4.08422 6.42039 4.1868L0.863281 9.74391C0.760703 9.84641 0.703125 9.98555 0.703125 10.1306V38.75C0.703125 39.052 0.947969 39.2969 1.25 39.2969H28.2392C28.5413 39.2969 28.7861 39.052 28.7861 38.75V30.2657L34.9227 36.4023C35.0253 36.5048 35.1644 36.5625 35.3095 36.5625C35.4545 36.5625 35.5936 36.5048 35.6962 36.4023L39.1367 32.9618C39.3502 32.7483 39.3502 32.4021 39.1366 32.1885ZM33.607 16.0209C34.3459 15.282 35.5481 15.282 36.287 16.0208C36.643 16.3768 36.839 16.8527 36.839 17.3608C36.839 17.8689 36.6429 18.3447 36.2869 18.7007L35.2918 19.6958L32.612 17.0159L33.607 16.0209ZM24.2905 3.86836L25.0173 3.14156C25.5814 3.64016 26.3519 3.77016 27.0582 3.4775C27.7645 3.18492 28.2175 2.5482 28.2638 1.79688H29.2916C29.3378 2.5482 29.7909 3.18492 30.4971 3.4775C31.2034 3.77 31.9738 3.64023 32.538 3.14156L33.2648 3.86836C32.7662 4.43234 32.6363 5.20297 32.9289 5.9093C33.2215 6.61562 33.8581 7.06859 34.6095 7.11484V8.14258C33.8581 8.18883 33.2214 8.64187 32.9289 9.34812C32.6363 10.0545 32.7662 10.8251 33.2648 11.389L32.538 12.1158C31.974 11.6173 31.2034 11.4873 30.4971 11.7799C29.7909 12.0725 29.3379 12.7091 29.2916 13.4605H28.2638C28.2176 12.7084 27.7648 12.0713 27.0587 11.7789C26.3525 11.4865 25.5818 11.6166 25.0174 12.1159L24.2906 11.389C24.7891 10.825 24.9191 10.0544 24.6265 9.34812C24.3339 8.64187 23.6972 8.18883 22.9459 8.14258V7.11484C23.6973 7.06859 24.334 6.61555 24.6265 5.9093C24.919 5.20297 24.7891 4.43234 24.2905 3.86836ZM6.26023 5.89383V9.58383H2.57023L6.26023 5.89383ZM27.6923 38.2031H1.7968V10.6776H6.80703C7.10906 10.6776 7.35391 10.4327 7.35391 10.1307V5.12047H23.6852C23.6894 5.2425 23.6668 5.36781 23.6159 5.4907C23.4773 5.82523 23.179 6.025 22.818 6.025C22.2854 6.025 21.8521 6.45828 21.8521 6.99086V8.26656C21.8521 8.79914 22.2854 9.23242 22.818 9.23242C23.1791 9.23242 23.4773 9.43219 23.6159 9.76672C23.7545 10.1013 23.6848 10.4535 23.4294 10.7089C23.0529 11.0855 23.0529 11.6982 23.4294 12.0748L24.3315 12.977C24.708 13.3534 25.3209 13.3535 25.6975 12.977C25.9534 12.7211 26.3057 12.6509 26.64 12.7895C26.9743 12.928 27.1738 13.2266 27.1738 13.5885C27.1738 13.9596 27.3845 14.282 27.6922 14.4437V20.389L27.5145 20.5666L22.2359 15.288H24.4509C24.7529 15.288 24.9977 15.0432 24.9977 14.7412C24.9977 14.4391 24.7529 14.1943 24.4509 14.1943H21.1422L20.1192 13.1713C20.0166 13.0688 19.8776 13.0112 19.7325 13.0112C19.5874 13.0112 19.4484 13.0688 19.3458 13.1713L18.3228 14.1943H11.6944C11.3923 14.1943 11.1475 14.4391 11.1475 14.7412C11.1475 15.0432 11.3923 15.288 11.6944 15.288H17.2291L15.9052 16.6119C15.6917 16.8255 15.6917 17.1717 15.9052 17.3852L18.7845 20.2645H11.6943C11.3923 20.2645 11.1474 20.5094 11.1474 20.8114C11.1474 21.1134 11.3923 21.3583 11.6943 21.3583H19.8783L23.3005 24.7805L21.7462 26.3348H11.6945C11.3925 26.3348 11.1477 26.5796 11.1477 26.8816C11.1477 27.1837 11.3925 27.4285 11.6945 27.4285H20.6527L19.3309 28.7504C19.2734 28.8078 19.2295 28.8773 19.2023 28.954L17.2159 34.5438C17.1442 34.7456 17.197 34.9709 17.3509 35.1198C17.4548 35.2204 17.5919 35.2738 17.7313 35.2738C17.7985 35.2738 17.8663 35.2613 17.9312 35.2359L23.3708 33.0995C23.4408 33.072 23.5044 33.0303 23.5576 32.9771L27.5274 29.0072L27.6923 29.1721V38.2031ZM19.8941 17.9677C20.0009 18.0745 20.1409 18.1278 20.2809 18.1278C20.4208 18.1278 20.5608 18.0744 20.6676 17.9677L22.0184 16.617L22.6896 17.2882L22.0883 17.8895C21.8748 18.1031 21.8748 18.4494 22.0883 18.6629C22.1951 18.7697 22.335 18.823 22.475 18.823C22.615 18.823 22.7549 18.7696 22.8617 18.6629L23.463 18.0616L24.1343 18.7328L22.7836 20.0835C22.5701 20.2971 22.5701 20.6434 22.7836 20.8569C22.8904 20.9637 23.0303 21.017 23.1703 21.017C23.3103 21.017 23.4502 20.9636 23.557 20.8569L24.9077 19.5062L25.579 20.1774L24.9777 20.7787C24.7642 20.9923 24.7642 21.3386 24.9777 21.5521C25.0845 21.6589 25.2245 21.7123 25.3645 21.7123C25.5045 21.7123 25.6444 21.6588 25.7512 21.5521L26.3524 20.9508L26.7414 21.3398L24.0741 24.007L17.0655 16.9984L19.7327 14.3313L21.2449 15.8436L19.8941 17.1943C19.6805 17.4078 19.6805 17.7541 19.8941 17.9677ZM19.9579 30.0938L22.2346 32.3705L18.6484 33.7791L19.9579 30.0938ZM23.1994 31.7884L20.5195 29.1085L31.8386 17.7894L34.5184 20.4693L23.1994 31.7884ZM35.3094 35.2423L28.3008 28.2337L30.9679 25.5666L31.3574 25.9562L30.7562 26.5575C30.5427 26.7711 30.5427 27.1173 30.7562 27.3309C30.863 27.4377 31.0029 27.491 31.1429 27.491C31.2829 27.491 31.4228 27.4376 31.5296 27.3309L32.1309 26.7295L32.8021 27.4008L31.4514 28.7516C31.2379 28.9652 31.2379 29.3114 31.4514 29.5249C31.5582 29.6317 31.6981 29.6851 31.8381 29.6851C31.9781 29.6851 32.118 29.6316 32.2248 29.5249L33.5755 28.1741L34.2468 28.8454L33.6455 29.4466C33.432 29.6602 33.432 30.0065 33.6455 30.22C33.7523 30.3268 33.8922 30.3802 34.0322 30.3802C34.1721 30.3802 34.3121 30.3267 34.4189 30.22L35.0202 29.6187L35.6915 30.29L34.3407 31.6408C34.1272 31.8544 34.1272 32.2006 34.3407 32.4141C34.4475 32.5209 34.5874 32.5743 34.7274 32.5743C34.8674 32.5743 35.0073 32.5209 35.1141 32.4141L36.4649 31.0634L37.9766 32.5751L35.3094 35.2423ZM8.72531 12.3505H5.0382C4.73617 12.3505 4.49133 12.5954 4.49133 12.8974V16.5845C4.49133 16.8866 4.73617 17.1314 5.0382 17.1314H8.72531C9.02734 17.1314 9.27219 16.8866 9.27219 16.5845V12.8974C9.27219 12.5955 9.02734 12.3505 8.72531 12.3505ZM8.17844 16.0377H5.58508V13.4444H8.17844V16.0377Z" fill="url(#paint0_linear_685_1214)"/>
</g>
<defs>
<linearGradient id="paint0_linear_685_1214" x1="36.1481" y1="5.20485" x2="1.53969" y2="39.8132" gradientUnits="userSpaceOnUse">
<stop stop-color="#FF6D00"/>
<stop offset="0.9999" stop-color="#5A189A"/>
<stop offset="1" stop-color="#F8BC16"/>
</linearGradient>
<clipPath id="clip0_685_1214">
<rect width="40" height="40" fill="white"/>
</clipPath>
</defs>
</svg>
