<svg width="40" height="40" viewBox="0 0 40 40" fill="none" xmlns="http://www.w3.org/2000/svg">
<g id="science_11532720 1">
<path id="Vector" fill-rule="evenodd" clip-rule="evenodd" d="M25.0498 11.48C23.8061 11.48 22.7942 12.4919 22.7942 13.7356C22.7942 14.9794 23.8061 15.9912 25.0498 15.9912C26.2936 15.9912 27.3054 14.9794 27.3054 13.7356C27.3054 12.4919 26.2936 11.48 25.0498 11.48ZM25.0498 14.7412C24.4953 14.7412 24.0442 14.2901 24.0442 13.7356C24.0442 13.1811 24.4953 12.73 25.0498 12.73C25.6043 12.73 26.0554 13.1811 26.0554 13.7356C26.0554 14.2901 25.6043 14.7412 25.0498 14.7412ZM34.0418 10.7439C33.6856 10.6475 33.3118 10.5577 32.9232 10.4744C33.139 10.1407 33.3399 9.81288 33.5236 9.4928C34.9334 7.03741 35.2016 5.34577 34.3207 4.46491C33.4397 3.58405 31.7481 3.85218 29.2928 5.26187C28.9718 5.44616 28.643 5.64757 28.3083 5.86413C28.2252 5.47757 28.1357 5.10546 28.0397 4.75062C27.2991 2.01296 26.2932 0.624756 25.0499 0.624756C23.8065 0.624756 22.8007 2.01296 22.06 4.75062C21.964 5.10546 21.8746 5.47757 21.7914 5.86413C21.4568 5.64757 21.1279 5.44616 20.807 5.26187C18.3518 3.85218 16.66 3.58382 15.7791 4.46491C14.8982 5.34577 15.1664 7.03749 16.5761 9.49273C16.7599 9.8128 16.9607 10.1406 17.1765 10.4743C16.7879 10.5576 16.4141 10.6475 16.0578 10.7438C13.3247 11.4832 11.9389 12.4898 11.9389 13.7355C11.9389 14.9813 13.3247 15.9879 16.0578 16.7273C16.414 16.8237 16.7879 16.9134 17.1764 16.9968C16.9606 17.3305 16.7598 17.6584 16.576 17.9784C15.1662 20.4337 14.8981 22.1254 15.779 23.0062C16.1171 23.3444 16.5746 23.5131 17.1489 23.5131C18.071 23.5131 19.294 23.0779 20.8069 22.2093C21.1279 22.025 21.4567 21.8236 21.7914 21.607C21.8746 21.9936 21.964 22.3656 22.06 22.7205C22.8007 25.4581 23.8065 26.8463 25.0499 26.8463C26.2932 26.8463 27.299 25.4581 28.0397 22.7205C28.1357 22.3656 28.2252 21.9935 28.3083 21.6069C28.643 21.8235 28.9718 22.0249 29.2928 22.2092C30.8058 23.078 32.0288 23.5131 32.9508 23.5131C33.525 23.5131 33.9825 23.3443 34.3206 23.0062C35.2015 22.1254 34.9335 20.4337 33.5237 17.9784C33.34 17.6583 33.1391 17.3305 32.9232 16.9967C33.3118 16.9134 33.6856 16.8236 34.0418 16.7272C36.7749 15.9878 38.1607 14.9812 38.1607 13.7355C38.1607 12.4897 36.7749 11.4833 34.0418 10.7439ZM29.9151 6.34593C31.4467 5.46655 32.4118 5.21741 32.947 5.21741C33.2053 5.21741 33.3635 5.27546 33.4368 5.34874C33.662 5.57397 33.7434 6.59983 32.4396 8.87046C32.1889 9.30726 31.9032 9.76023 31.5896 10.2237C30.7389 10.0847 29.8341 9.97405 28.8913 9.89319C28.81 8.95187 28.699 8.04788 28.5596 7.19749C29.0239 6.88335 29.4775 6.5971 29.9151 6.34593ZM27.8025 13.7356C27.8025 14.1167 27.7977 14.4949 27.7885 14.8698C27.5298 15.1414 27.266 15.4125 26.9963 15.6821C26.7266 15.9518 26.4555 16.2156 26.1839 16.4743C25.8092 16.4834 25.431 16.4883 25.0499 16.4883C24.6688 16.4883 24.2907 16.4834 23.916 16.4743C23.6443 16.2156 23.3732 15.9517 23.1035 15.682C22.8338 15.4123 22.57 15.1412 22.3113 14.8697C22.3021 14.4949 22.2971 14.1167 22.2971 13.7356C22.2971 13.3545 22.302 12.9764 22.3113 12.6016C22.57 12.3299 22.8338 12.0588 23.1035 11.7892C23.3732 11.5195 23.6443 11.2556 23.916 10.9969C24.2907 10.9878 24.6688 10.983 25.0499 10.983C25.431 10.983 25.8091 10.9878 26.1838 10.9969C26.4554 11.2556 26.7266 11.5195 26.9963 11.7892C27.266 12.0589 27.5298 12.33 27.7885 12.6016C27.7976 12.9764 27.8025 13.3546 27.8025 13.7356ZM26.6959 9.76171C26.4661 9.54749 26.2361 9.33741 26.006 9.13163C26.4822 8.73468 26.955 8.35929 27.4202 8.01022C27.5029 8.58663 27.5725 9.18624 27.6289 9.80398C27.3209 9.78679 27.0097 9.77265 26.6959 9.76171ZM23.4038 9.76171C23.09 9.77273 22.7788 9.78679 22.4707 9.80398C22.5271 9.18624 22.5968 8.58663 22.6795 8.01022C23.1447 8.35929 23.6175 8.73468 24.0937 9.13163C23.8636 9.33741 23.6335 9.54749 23.4038 9.76171ZM21.0761 12.0893C20.8618 12.3191 20.6517 12.5493 20.4458 12.7794C20.0483 12.3026 19.6725 11.8292 19.323 11.3634C19.8999 11.281 20.5 11.2116 21.1187 11.1554C21.1014 11.4638 21.0872 11.7752 21.0761 12.0893ZM21.0761 15.3819C21.0872 15.6959 21.1014 16.0074 21.1187 16.3159C20.5 16.2597 19.8998 16.1902 19.323 16.1079C19.6725 15.642 20.0483 15.1687 20.4458 14.6918C20.6517 14.9219 20.8618 15.1521 21.0761 15.3819ZM23.4037 17.7095C23.6335 17.9237 23.8636 18.1339 24.0937 18.3396C23.6175 18.7366 23.1447 19.1119 22.6794 19.461C22.5968 18.8845 22.5271 18.2849 22.4707 17.6672C22.7788 17.6844 23.09 17.6986 23.4037 17.7095ZM26.696 17.7095C27.0098 17.6985 27.3209 17.6844 27.6289 17.6673C27.5725 18.285 27.5029 18.8846 27.4202 19.461C26.955 19.1119 26.4822 18.7366 26.006 18.3396C26.2361 18.1339 26.4662 17.9237 26.696 17.7095ZM29.0236 15.382C29.2379 15.1522 29.448 14.922 29.6539 14.6919C30.0514 15.1687 30.4272 15.6421 30.7767 16.1079C30.1998 16.1902 29.5996 16.2597 28.981 16.3159C28.9982 16.0075 29.0125 15.696 29.0236 15.382ZM29.0236 12.0893C29.0125 11.7752 28.9982 11.4637 28.9809 11.1554C29.5996 11.2116 30.1998 11.2811 30.7767 11.3634C30.4272 11.8293 30.0514 12.3026 29.6539 12.7795C29.448 12.5494 29.2379 12.3191 29.0236 12.0893ZM23.2667 5.0771C23.9519 2.54405 24.7327 1.87483 25.0498 1.87483C25.3669 1.87483 26.1478 2.54405 26.8329 5.0771C26.9643 5.56249 27.083 6.08187 27.1889 6.62937C26.49 7.13218 25.7728 7.69304 25.0498 8.30171C24.3268 7.69304 23.6096 7.1321 22.9107 6.62937C23.0167 6.08187 23.1354 5.56241 23.2667 5.0771ZM17.66 8.87038C16.3564 6.59983 16.4378 5.57397 16.6629 5.34882C16.7362 5.27554 16.8943 5.21741 17.1528 5.21741C17.688 5.21741 18.6532 5.46663 20.1846 6.34585C20.6221 6.5971 21.0758 6.88327 21.5401 7.19741C21.4007 8.0478 21.2897 8.95179 21.2085 9.89312C20.2657 9.97405 19.3609 10.0847 18.5102 10.2236C18.1966 9.76015 17.9109 9.30718 17.66 8.87038ZM16.3842 15.5207C13.8568 14.837 13.1889 14.0541 13.1889 13.7356C13.1889 13.4171 13.8568 12.6342 16.3842 11.9505C16.8707 11.8189 17.3918 11.6999 17.9417 11.5938C18.445 12.2936 19.0065 13.0117 19.6159 13.7355C19.0064 14.4594 18.4449 15.1775 17.9417 15.8773C17.3918 15.7712 16.8707 15.6523 16.3842 15.5207ZM20.1846 21.1255C17.9141 22.4291 16.8882 22.3477 16.6629 22.1225C16.4378 21.8973 16.3564 20.8716 17.66 18.6009C17.9108 18.1641 18.1965 17.7112 18.5101 17.2476C19.3608 17.3866 20.2657 17.4973 21.2084 17.5781C21.2896 18.5195 21.4007 19.4235 21.54 20.2739C21.0758 20.588 20.6221 20.8742 20.1846 21.1255ZM26.8329 22.3941C26.1477 24.9272 25.3669 25.5964 25.0498 25.5964C24.7327 25.5964 23.9518 24.9272 23.2667 22.3941C23.1354 21.9088 23.0167 21.3894 22.9107 20.8419C23.6097 20.3391 24.3269 19.7782 25.0499 19.1695C25.7729 19.7782 26.49 20.3391 27.1889 20.8419C27.083 21.3894 26.9643 21.9088 26.8329 22.3941ZM32.4396 18.6009C33.7433 20.8715 33.6619 21.8973 33.4368 22.1224C33.4368 22.1224 33.4368 22.1224 33.4367 22.1224C33.2117 22.3476 32.1856 22.4289 29.9151 21.1253C29.4775 20.8741 29.0239 20.5879 28.5596 20.2737C28.6989 19.4234 28.81 18.5194 28.8912 17.578C29.8339 17.4971 30.7388 17.3865 31.5896 17.2476C31.9031 17.7111 32.1888 18.1641 32.4396 18.6009ZM33.7154 15.5207C33.2289 15.6523 32.7078 15.7713 32.158 15.8773C31.6547 15.1776 31.0932 14.4595 30.4838 13.7356C31.0932 13.0117 31.6548 12.2937 32.158 11.5938C32.7078 11.6999 33.2289 11.8189 33.7154 11.9505C36.2429 12.6341 36.9106 13.417 36.9106 13.7355C36.9106 14.0541 36.2429 14.837 33.7154 15.5207ZM30.0794 25.9223L23.9638 29.4844C23.7238 29.6241 23.4805 29.7309 23.2296 29.8056C23.3083 29.6509 23.3725 29.4829 23.4208 29.3025C23.7447 28.0932 23.0275 26.8312 21.7878 26.4294C21.761 26.4208 21.7337 26.414 21.706 26.4089C19.955 26.0931 18.2237 25.4672 16.8326 24.9642C16.3478 24.789 15.89 24.6234 15.4998 24.4969C13.9034 23.9789 12.4677 24.6158 11.2739 25.307L6.79597 27.8996L6.40793 27.214C5.99355 26.4819 5.0609 26.2234 4.3291 26.6378L2.61308 27.6089C1.88113 28.0233 1.62269 28.9559 2.03691 29.6878L7.08168 38.6015C7.36199 39.0968 7.87957 39.3752 8.41183 39.3752C8.66613 39.3752 8.92387 39.3116 9.16058 39.1777L10.8764 38.2066C11.2302 38.0064 11.4851 37.6794 11.5941 37.2862C11.7032 36.8928 11.6529 36.4814 11.4527 36.1276L10.9728 35.2796L11.9096 34.7387L19.7096 36.8287C20.1489 36.9464 20.5862 37.0049 21.0162 37.0049C21.8861 37.0049 22.7265 36.7655 23.4948 36.2925L34.5932 29.4585C35.6412 28.8133 35.9753 27.1899 35.2941 26.0525C34.9642 25.5016 33.6131 23.8643 30.0794 25.9223ZM10.3894 36.9522C10.3779 36.9937 10.3459 37.0704 10.2607 37.1187L8.5448 38.0898C8.41472 38.1634 8.24293 38.1156 8.16941 37.9858L3.12472 29.0721C3.05121 28.9422 3.09886 28.7702 3.22871 28.6966L4.94465 27.7255C4.98621 27.702 5.03207 27.6909 5.07762 27.6909C5.17449 27.6909 5.26996 27.7413 5.32004 27.8296L10.3648 36.7433C10.413 36.8285 10.4009 36.9108 10.3894 36.9522ZM33.9378 28.3941L22.8393 35.228C21.9793 35.7575 21.0351 35.8898 20.0331 35.6212L11.983 33.4643C11.8229 33.4214 11.6524 33.4438 11.5088 33.5267L10.3569 34.1917L7.41152 28.9875L11.9001 26.3887C12.9036 25.8077 13.9873 25.3204 15.114 25.6859C15.4844 25.8061 15.9121 25.9608 16.4075 26.1398C17.831 26.6545 19.5998 27.294 21.4382 27.6308C22.0324 27.8414 22.3645 28.4147 22.2133 28.9791C22.0141 29.7223 21.3897 29.8149 20.8914 29.758C19.9959 29.5736 19.1432 29.3303 18.241 29.0726C17.8109 28.9498 17.3661 28.8228 16.9086 28.7002C16.575 28.6109 16.2325 28.8088 16.1432 29.1422C16.0539 29.4755 16.2518 29.8183 16.5851 29.9076C17.0327 30.0275 17.4725 30.1532 17.8977 30.2745C18.8324 30.5415 19.7153 30.7937 20.6675 30.9884C20.6716 30.9892 20.6757 30.9894 20.6797 30.9902C20.684 30.991 20.6881 30.9923 20.6924 30.993L21.4531 31.1166C22.61 31.3019 23.637 31.1212 24.5927 30.5647L30.7084 27.0026C32.4247 26.0028 33.7382 25.8879 34.2215 26.6949C34.5521 27.2464 34.4088 28.1041 33.9378 28.3941ZM5.40199 29.3755C5.4509 29.7102 5.21918 30.0213 4.88441 30.0702C4.54957 30.1192 4.23855 29.8875 4.18957 29.5526C4.14066 29.2179 4.37238 28.9068 4.70715 28.8578C5.04199 28.809 5.35308 29.0407 5.40199 29.3755Z" fill="url(#paint0_linear_685_1195)"/>
</g>
<defs>
<linearGradient id="paint0_linear_685_1195" x1="5.29316" y1="36.8916" x2="36.0203" y2="6.16452" gradientUnits="userSpaceOnUse">
<stop stop-color="#5A189A"/>
<stop offset="1" stop-color="#FF6D00"/>
</linearGradient>
</defs>
</svg>
