<svg width="40" height="40" viewBox="0 0 40 40" fill="none" xmlns="http://www.w3.org/2000/svg">
<g id="effective_7959205 1" clip-path="url(#clip0_685_1207)">
<path id="Vector" d="M30.5076 18.2816C35.354 18.2816 39.2969 14.3387 39.2969 9.49234C39.2969 4.64594 35.354 0.703125 30.5076 0.703125C25.6612 0.703125 21.7184 4.64594 21.7184 9.49234C21.7184 10.6499 21.9438 11.7558 22.3523 12.7688C21.6554 12.9091 20.915 12.767 20.2886 12.3557C19.5158 11.8483 19.0726 11.0199 19.0726 10.083C19.0726 9.24469 18.3905 8.56266 17.5522 8.56266H14.5883C13.75 8.56266 13.068 9.24469 13.068 10.083C13.068 11.4273 12.1959 12.2676 11.3798 12.6056C10.5636 12.9438 9.35297 12.9662 8.40227 12.0155C8.11508 11.7284 7.73336 11.5702 7.32711 11.5702C6.92086 11.5702 6.53914 11.7284 6.25195 12.0155L4.15617 14.1114C3.86898 14.3985 3.71086 14.7803 3.71086 15.1865C3.71086 15.5927 3.86898 15.9745 4.15609 16.2616C5.1068 17.2122 5.0843 18.423 4.74625 19.2391C4.4082 20.0552 3.56797 20.9273 2.22359 20.9273C1.38516 20.9274 0.703125 21.6095 0.703125 22.4479V25.4118C0.703125 26.2502 1.38516 26.9322 2.22352 26.9322C3.56789 26.9322 4.40812 27.8043 4.74617 28.6204C5.08422 29.4365 5.10672 30.6473 4.15609 31.5979C3.86891 31.8851 3.71078 32.2669 3.71078 32.673C3.71078 33.0792 3.86891 33.461 4.15602 33.7481L6.25187 35.8441C6.53906 36.1312 6.92078 36.2894 7.32703 36.2894C7.73328 36.2894 8.115 36.1312 8.40219 35.8441C9.35437 34.892 10.5653 34.9138 11.3807 35.2516C12.1963 35.5895 13.068 36.4302 13.068 37.7766C13.068 38.6149 13.7499 39.297 14.5883 39.297H17.5522C18.3905 39.297 19.0726 38.6149 19.0726 37.7766C19.0726 36.4323 19.9446 35.592 20.7607 35.254C21.5767 34.9158 22.7876 34.8934 23.7382 35.8441C24.0254 36.1312 24.4071 36.2894 24.8134 36.2894C25.2195 36.2894 25.6012 36.1312 25.8885 35.8441L27.9842 33.7483C28.2715 33.4612 28.4297 33.0793 28.4297 32.6731C28.4297 32.267 28.2716 31.8851 27.9844 31.598C27.2078 30.8214 26.9734 29.7438 27.3571 28.7151C27.6927 27.8159 28.433 27.1812 29.3363 26.9921L29.3457 27.0127C29.4345 27.208 29.6291 27.3335 29.8437 27.3335H36.0686C36.2566 27.3335 36.4315 27.237 36.5316 27.0777C36.6316 26.9186 36.643 26.7191 36.5615 26.5497L35.3021 23.9298L36.5615 21.3101C36.643 21.1406 36.6316 20.9412 36.5316 20.782C36.4315 20.6228 36.2566 20.5262 36.0686 20.5262H29.8437C29.6291 20.5262 29.4345 20.6516 29.3457 20.847L29.3363 20.8677C28.6096 20.7162 27.9859 20.2776 27.5906 19.6263C27.2228 19.02 27.1002 18.3114 27.232 17.6481C28.2448 18.0563 29.3504 18.2816 30.5076 18.2816ZM30.5076 1.79688C34.7509 1.79688 38.2031 5.24906 38.2031 9.49234C38.2031 13.7356 34.7509 17.1878 30.5076 17.1878C26.2642 17.1878 22.8121 13.7356 22.8121 9.49234C22.8121 5.24906 26.2643 1.79688 30.5076 1.79688ZM30.196 26.2396L29.3955 24.4766H34.3514L35.1989 26.2396H30.196ZM34.3514 23.3829H29.3955L30.196 21.6199H35.1989L34.3514 23.3829ZM26.6555 20.1936C27.168 21.0381 27.9546 21.6279 28.8761 21.8812L28.1943 23.3829H25.0908C24.807 18.6533 20.8698 14.8922 16.0702 14.8922C11.0868 14.8922 7.0325 18.9465 7.0325 23.9298C7.0325 28.9132 11.0868 32.9675 16.0702 32.9675C20.8699 32.9675 24.807 29.2064 25.0908 24.4767H28.1943L28.8759 25.978C27.7138 26.2981 26.7726 27.1529 26.3323 28.3327C25.8027 29.7522 26.1393 31.2998 27.2109 32.3713C27.2915 32.4519 27.3359 32.559 27.3359 32.673C27.3359 32.7869 27.2916 32.8941 27.2109 32.9746L25.1151 35.0705C25.0345 35.151 24.9273 35.1955 24.8134 35.1955C24.6994 35.1955 24.5922 35.1511 24.5117 35.0705C23.3977 33.9565 21.7999 33.6395 20.3422 34.2434C18.8845 34.8472 17.9788 36.201 17.9788 37.7765C17.9788 38.0117 17.7874 38.203 17.5522 38.203H14.5883C14.353 38.203 14.1617 38.0116 14.1617 37.7765C14.1617 36.1993 13.2565 34.8446 11.7994 34.241C10.342 33.6373 8.74406 33.9553 7.62875 35.0705C7.54828 35.1511 7.44109 35.1955 7.32711 35.1955C7.21313 35.1955 7.10594 35.1511 7.02547 35.0705L4.92953 32.9745C4.84898 32.8941 4.80461 32.787 4.80461 32.673C4.80461 32.559 4.84891 32.4518 4.92953 32.3713C6.04367 31.2572 6.36055 29.6595 5.75672 28.2017C5.15289 26.744 3.79906 25.8384 2.22359 25.8384C1.98836 25.8384 1.79695 25.647 1.79695 25.4117V22.4478C1.79695 22.2126 1.98836 22.0212 2.22359 22.0212C3.79906 22.0212 5.15289 21.1156 5.75672 19.6579C6.36055 18.2001 6.04367 16.6024 4.92953 15.4883C4.84898 15.4077 4.80461 15.3006 4.80461 15.1866C4.80461 15.0727 4.84891 14.9655 4.92961 14.885L7.02539 12.7891C7.10586 12.7085 7.21305 12.6641 7.32703 12.6641C7.44102 12.6641 7.5482 12.7085 7.62867 12.7891C8.74281 13.9031 10.3405 14.2201 11.7983 13.6162C13.256 13.0124 14.1616 11.6586 14.1616 10.083C14.1616 9.84781 14.353 9.65648 14.5882 9.65648H17.5521C17.7873 9.65648 17.9788 9.84789 17.9788 10.083C17.9788 11.3951 18.6019 12.5567 19.6883 13.2701C20.6388 13.8941 21.7834 14.0715 22.8359 13.7772C23.6306 15.1944 24.8064 16.37 26.2237 17.1645C25.9448 18.1692 26.0948 19.2693 26.6555 20.1936ZM21.8798 23.3829C21.603 20.4205 19.1038 18.0938 16.0703 18.0938C12.8523 18.0938 10.2343 20.7119 10.2343 23.9298C10.2343 27.1478 12.8523 29.7659 16.0703 29.7659C19.1038 29.7659 21.6031 27.4391 21.8798 24.4767H23.995C23.7131 28.6028 20.2667 31.8738 16.0703 31.8738C11.6901 31.8738 8.12641 28.3102 8.12641 23.9298C8.12641 19.5495 11.69 15.9859 16.0702 15.9859C20.2666 15.9859 23.713 19.2568 23.9949 23.3829H21.8798ZM18.6471 23.3829C18.3946 22.192 17.3352 21.2955 16.0702 21.2955C14.6177 21.2955 13.4359 22.4772 13.4359 23.9298C13.4359 25.3825 14.6177 26.5642 16.0702 26.5642C17.3353 26.5642 18.3946 25.6677 18.6471 24.4767H20.7799C20.5078 26.8348 18.5 28.6721 16.0702 28.6721C13.4553 28.6721 11.328 26.5448 11.328 23.9298C11.328 21.3149 13.4553 19.1876 16.0702 19.1876C18.5 19.1876 20.5077 21.0248 20.7799 23.3829H18.6471ZM16.0702 24.4766H17.5088C17.2874 25.0566 16.727 25.4704 16.0702 25.4704C15.2208 25.4704 14.5296 24.7793 14.5296 23.9298C14.5296 23.0802 15.2208 22.3891 16.0702 22.3891C16.7269 22.3891 17.2874 22.8029 17.5088 23.3828H16.0702C15.7682 23.3828 15.5234 23.6277 15.5234 23.9297C15.5234 24.2317 15.7682 24.4766 16.0702 24.4766ZM30.5076 16.2527C34.2353 16.2527 37.268 13.2201 37.268 9.49242C37.268 5.76477 34.2353 2.73203 30.5076 2.73203C26.7799 2.73203 23.7473 5.76469 23.7473 9.49242C23.7473 13.22 26.7799 16.2527 30.5076 16.2527ZM30.5076 3.82578C33.6322 3.82578 36.1742 6.36781 36.1742 9.49242C36.1742 12.617 33.6322 15.159 30.5076 15.159C27.383 15.159 24.841 12.617 24.841 9.49242C24.841 6.36789 27.383 3.82578 30.5076 3.82578ZM29.7295 9.49234C29.7295 9.27586 29.818 9.08016 29.9607 8.93906V6.79688C29.9607 6.49484 30.2055 6.25 30.5076 6.25C30.8096 6.25 31.0545 6.49484 31.0545 6.79688V8.93906C31.1521 9.03562 31.2237 9.15812 31.2595 9.29508L32.4591 9.98758C32.7206 10.1386 32.8102 10.473 32.6592 10.7346C32.5579 10.9101 32.3741 11.0081 32.1851 11.0081C32.0923 11.0081 31.9983 10.9845 31.9122 10.9348L30.7127 10.2423C30.6473 10.2602 30.5787 10.2705 30.5077 10.2705C30.0779 10.2705 29.7295 9.92211 29.7295 9.49234ZM29.9607 5.02266V4.71312C29.9607 4.41109 30.2055 4.16625 30.5076 4.16625C30.8096 4.16625 31.0545 4.41109 31.0545 4.71312V5.02266C31.0545 5.32469 30.8096 5.56953 30.5076 5.56953C30.2055 5.56953 29.9607 5.32469 29.9607 5.02266ZM33.2814 6.71852C33.0679 6.505 33.0679 6.15867 33.2814 5.94516L33.5003 5.72625C33.7139 5.51273 34.0602 5.51273 34.2738 5.72625C34.4873 5.93977 34.4873 6.28609 34.2738 6.49961L34.0548 6.71852C33.948 6.82531 33.808 6.87867 33.6681 6.87867C33.5282 6.87867 33.3882 6.82523 33.2814 6.71852ZM34.4304 9.49234C34.4304 9.19031 34.6752 8.94547 34.9773 8.94547H35.2869C35.5889 8.94547 35.8337 9.19031 35.8337 9.49234C35.8337 9.79437 35.5889 10.0392 35.2869 10.0392H34.9773C34.6752 10.0392 34.4304 9.79445 34.4304 9.49234ZM33.2814 13.0396C33.0679 12.8261 33.0679 12.4798 33.2814 12.2662C33.495 12.0527 33.8413 12.0527 34.0548 12.2662L34.2738 12.4852C34.4873 12.6987 34.4873 13.045 34.2738 13.2585C34.167 13.3653 34.027 13.4187 33.887 13.4187C33.7471 13.4187 33.6071 13.3652 33.5003 13.2585L33.2814 13.0396ZM31.0545 13.962V14.2716C31.0545 14.5736 30.8096 14.8184 30.5076 14.8184C30.2055 14.8184 29.9607 14.5736 29.9607 14.2716V13.962C29.9607 13.66 30.2055 13.4152 30.5076 13.4152C30.8096 13.4152 31.0545 13.66 31.0545 13.962ZM27.7337 12.2662C27.9473 12.4797 27.9473 12.826 27.7337 13.0395L27.5148 13.2584C27.408 13.3652 27.268 13.4186 27.1281 13.4186C26.9882 13.4186 26.8482 13.3652 26.7414 13.2584C26.5279 13.0449 26.5279 12.6986 26.7414 12.4851L26.9603 12.2662C27.1739 12.0527 27.5202 12.0527 27.7337 12.2662ZM26.5848 9.49234C26.5848 9.79437 26.3399 10.0392 26.0379 10.0392H25.7284C25.4263 10.0392 25.1815 9.79437 25.1815 9.49234C25.1815 9.19031 25.4263 8.94547 25.7284 8.94547H26.0379C26.3399 8.94547 26.5848 9.19031 26.5848 9.49234ZM26.7414 6.49961C26.5279 6.28609 26.5279 5.93977 26.7414 5.72625C26.955 5.51273 27.3013 5.51273 27.5148 5.72625L27.7337 5.94516C27.9473 6.15867 27.9473 6.505 27.7337 6.71852C27.627 6.82531 27.487 6.87867 27.347 6.87867C27.2071 6.87867 27.0671 6.82523 26.9603 6.71852L26.7414 6.49961Z" fill="url(#paint0_linear_685_1207)"/>
</g>
<defs>
<linearGradient id="paint0_linear_685_1207" x1="37.1937" y1="3.75438" x2="5.67797" y2="35.2701" gradientUnits="userSpaceOnUse">
<stop stop-color="#E93528"/>
<stop offset="1" stop-color="#5A189A"/>
</linearGradient>
<clipPath id="clip0_685_1207">
<rect width="40" height="40" fill="white"/>
</clipPath>
</defs>
</svg>
