<svg width="39" height="39" viewBox="0 0 39 39" fill="none" xmlns="http://www.w3.org/2000/svg">
<path id="Vector" d="M37.0499 17.1609C36.5812 16.9848 34.9541 16.6395 33.702 19.5946L31.8535 23.9582C31.315 23.872 30.7438 23.9898 30.2668 24.3323L27.4907 26.3263C24.6189 27.141 24.102 28.5078 23.5976 30.6496C23.333 31.7731 23.057 32.8855 22.7744 34.0138H22.4459C21.7215 34.0138 21.1315 34.6033 21.1308 35.3278L21.1289 37.2771C21.1286 37.63 21.2649 37.9609 21.5127 38.209C21.7606 38.457 22.0913 38.5936 22.4448 38.5936L30.3738 38.593C31.0983 38.593 31.6883 38.0036 31.6889 37.2791L31.6908 35.3298C31.6911 34.9769 31.5549 34.6459 31.307 34.3979C31.0592 34.1499 30.7285 34.0134 30.3757 34.0134C30.3756 34.0134 30.3756 34.0134 30.3755 34.0134H30.3045C30.4244 33.7558 30.6049 33.5467 30.8595 33.3716L34.073 31.1631C35.1754 30.4055 35.6544 28.9352 36.0393 27.7538C36.0649 27.6752 36.09 27.598 36.1149 27.5227L38.4716 20.3695C38.8819 19.1241 38.2043 17.5947 37.0499 17.1609ZM30.3756 35.1072C30.4531 35.1072 30.5041 35.1419 30.5332 35.171C30.5624 35.2002 30.597 35.2512 30.597 35.3288L30.5951 37.2782C30.595 37.4002 30.4956 37.4994 30.3737 37.4994L22.4442 37.4999C22.3665 37.4999 22.3155 37.4652 22.2863 37.436C22.2572 37.4069 22.2225 37.3559 22.2226 37.2782L22.2245 35.329C22.2245 35.207 22.3239 35.1077 22.4459 35.1077L30.3756 35.1072ZM37.4327 20.0273L35.076 27.1805C35.0509 27.257 35.0253 27.3353 34.9993 27.4152C34.6656 28.4395 34.2502 29.7143 33.4534 30.2619L30.24 32.4704C29.6858 32.8512 29.3181 33.3703 29.145 34.0135L23.9019 34.0138C24.1623 32.9723 24.4169 31.942 24.6622 30.9004C25.1152 28.977 25.441 28.0228 27.8758 27.3545C27.9384 27.3373 27.9974 27.3091 28.0501 27.2713L30.9049 25.2207C31.3738 24.8839 32.0289 24.9914 32.3655 25.4601C32.7022 25.9288 32.5948 26.584 32.126 26.9206L28.3321 29.6459C28.0868 29.8221 28.0308 30.1638 28.207 30.4091C28.3832 30.6544 28.7249 30.7104 28.9702 30.5343L32.7642 27.8091C33.7227 27.1205 33.9423 25.7805 33.2538 24.822C33.1375 24.6602 33.0026 24.5193 32.8541 24.4004L34.7092 20.0214C35.2977 18.6323 36.0292 17.9459 36.6652 18.1848C37.2158 18.3916 37.6781 19.2826 37.4327 20.0273ZM16.1463 34.0139H15.8178C15.5353 32.8856 15.2592 31.7733 14.9945 30.6497C14.4902 28.5079 13.9733 27.1411 11.1014 26.3264L8.32525 24.3323C7.84837 23.9898 7.2772 23.8722 6.73868 23.9583L4.89009 19.5947C3.63814 16.6395 2.01111 16.9847 1.5422 17.1609C0.387825 17.5948 -0.289831 19.1242 0.120559 20.3697L2.47728 27.5229C2.50212 27.5982 2.52728 27.6754 2.55283 27.7541C2.93775 28.9355 3.41673 30.4057 4.51915 31.1634L7.73259 33.3719C7.98728 33.5469 8.16767 33.756 8.28767 34.0136H8.21673C8.21665 34.0136 8.21657 34.0136 8.2165 34.0136C7.86368 34.0136 7.5329 34.1502 7.28517 34.3982C7.03743 34.6462 6.90103 34.9772 6.90142 35.3302L6.90322 37.2794C6.90392 38.0038 7.49392 38.5933 8.21837 38.5933L16.1481 38.5937C16.5009 38.5937 16.8317 38.4571 17.0795 38.2091C17.3274 37.961 17.4637 37.6301 17.4633 37.2771L17.4614 35.328C17.4608 34.6034 16.8709 34.0139 16.1463 34.0139ZM8.3522 32.4704L5.13876 30.2619C4.34197 29.7142 3.92658 28.4395 3.5929 27.4152C3.56689 27.3354 3.54134 27.257 3.51618 27.1805L1.15947 20.0273C0.914075 19.2826 1.37642 18.3916 1.92712 18.1846C2.56337 17.9459 3.29454 18.6321 3.88314 20.0212L5.73822 24.4002C5.5897 24.5191 5.45478 24.66 5.33845 24.8219C4.65001 25.7804 4.8697 27.1204 5.82814 27.8089L9.62204 30.5341C9.86743 30.7103 10.2091 30.6542 10.3852 30.409C10.5615 30.1637 10.5055 29.822 10.2602 29.6457L6.46626 26.9205C5.99759 26.5837 5.89017 25.9286 6.22689 25.4599C6.56353 24.9912 7.21876 24.8837 7.68736 25.2205L10.5422 27.2712C10.5949 27.309 10.6539 27.3372 10.7165 27.3543C13.1513 28.0227 13.4771 28.9769 13.93 30.9002C14.1754 31.9421 14.43 32.9723 14.6904 34.0137L9.44728 34.0134C9.27415 33.3702 8.9065 32.8512 8.3522 32.4704ZM16.3059 37.4359C16.2767 37.4651 16.2257 37.4998 16.1479 37.4998L8.21861 37.4993C8.09657 37.4993 7.99728 37.4 7.9972 37.278L7.9954 35.3288C7.9954 35.3288 7.9954 35.3288 7.9954 35.3287C7.99532 35.2512 8.03001 35.2001 8.05915 35.1709C8.08829 35.1418 8.13923 35.1071 8.21681 35.1071L16.1464 35.1076C16.2684 35.1076 16.3677 35.2069 16.3678 35.3289L16.3697 37.2781C16.3697 37.3558 16.3349 37.4068 16.3059 37.4359ZM4.33868 15.6159H8.03657C8.33861 15.6159 8.58345 15.371 8.58345 15.069V14.4055C8.58345 13.932 8.97329 13.5466 9.45251 13.5466C9.92611 13.5466 10.3114 13.932 10.3114 14.4055V15.069C10.3114 15.371 10.5563 15.6159 10.8583 15.6159H14.5563C14.8583 15.6159 15.1031 15.371 15.1031 15.069V11.371C15.1031 11.069 14.8583 10.8241 14.5563 10.8241H13.8927C13.4192 10.8241 13.0339 10.4343 13.0339 9.95508C13.0339 9.48148 13.4192 9.09625 13.8927 9.09625H14.5563C14.8583 9.09625 15.1031 8.85141 15.1031 8.54937V4.85141C15.1031 4.54938 14.8583 4.30453 14.5563 4.30453H11.4052V4.18789C11.4052 3.11125 10.5246 2.23531 9.44236 2.23531C8.36564 2.23531 7.4897 3.11125 7.4897 4.18789V4.30453H4.33868C4.03665 4.30453 3.79181 4.54938 3.79181 4.85141V8.54937C3.79181 8.85141 4.03665 9.09625 4.33868 9.09625H5.00212C5.47572 9.09625 5.86103 9.48156 5.86103 9.95516C5.86103 10.4343 5.47572 10.8241 5.00212 10.8241H4.33868C4.03665 10.8241 3.79181 11.069 3.79181 11.371V15.069C3.79181 15.371 4.03665 15.6159 4.33868 15.6159ZM4.88556 11.9179H5.00212C6.07884 11.9179 6.95478 11.0374 6.95478 9.95516C6.95478 8.87844 6.07884 8.0025 5.00212 8.0025H4.88556V5.39828H8.03657C8.33861 5.39828 8.58345 5.15344 8.58345 4.85141V4.18789C8.58345 3.7143 8.96876 3.32906 9.44236 3.32906C9.9215 3.32906 10.3114 3.71438 10.3114 4.18789V4.85141C10.3114 5.15344 10.5563 5.39828 10.8583 5.39828H14.0094V8.0025H13.8927C12.8161 8.0025 11.9402 8.87844 11.9402 9.95508C11.9402 11.0373 12.8161 11.9179 13.8927 11.9179H14.0094V14.5221H11.4052V14.4055C11.4052 13.3288 10.5292 12.4529 9.45251 12.4529C8.37025 12.4529 7.4897 13.3288 7.4897 14.4055V14.5221H4.88556V11.9179ZM26.0745 11.906C25.5932 12.1157 25.2556 12.5955 25.2556 13.1532V14.9085C25.2556 15.6585 25.8658 16.2686 26.6158 16.2686H26.9049V16.5372C26.9049 17.2617 27.4945 17.8512 28.2191 17.8512H30.4492C31.1738 17.8512 31.7634 17.2617 31.7634 16.5372V16.2686H32.0525C32.8025 16.2686 33.4127 15.6584 33.4127 14.9085V13.1532C33.4127 12.5955 33.0751 12.1158 32.5938 11.9061C32.8021 10.0848 33.3167 9.28719 33.8158 8.51477C34.3222 7.73102 34.8006 6.9907 34.8006 5.46641C34.8006 2.45219 32.3484 0 29.3342 0C26.3199 0 23.8677 2.45219 23.8677 5.46641C23.8677 6.99078 24.3461 7.73102 24.8525 8.51484C25.3516 9.28719 25.8661 10.0848 26.0745 11.906ZM32.3188 14.9084C32.3188 15.0528 32.1967 15.1748 32.0524 15.1748H31.2164C30.9144 15.1748 30.6695 15.4197 30.6695 15.7217V16.5372C30.6695 16.6566 30.5686 16.7575 30.4492 16.7575H28.219C28.0995 16.7575 27.9986 16.6566 27.9986 16.5372V15.7217C27.9986 15.4197 27.7538 15.1748 27.4517 15.1748H26.6157C26.4713 15.1748 26.3493 15.0528 26.3493 14.9084V13.1531C26.3493 13.0087 26.4713 12.8867 26.6157 12.8867H32.0524C32.1967 12.8867 32.3188 13.0087 32.3188 13.1531V14.9084ZM29.3341 1.09367C31.7452 1.09367 33.7067 3.05523 33.7067 5.46633C33.7067 6.66805 33.3671 7.19359 32.897 7.92109C32.38 8.72117 31.746 9.70367 31.506 11.793H29.881V6.69758L31.7171 5.6375C31.9787 5.48648 32.0683 5.15203 31.9173 4.89047C31.7663 4.62891 31.4319 4.53922 31.1702 4.69031L29.3341 5.75039L27.4979 4.69031C27.2364 4.5393 26.9019 4.62883 26.7509 4.89047C26.5999 5.15203 26.6895 5.48648 26.951 5.6375L28.7872 6.69758V11.793H27.1621C26.9222 9.70367 26.2881 8.72117 25.7711 7.92109C25.301 7.19359 24.9614 6.66797 24.9614 5.46633C24.9614 3.05523 26.923 1.09367 29.3341 1.09367Z" fill="url(#paint0_linear_685_1211)"/>
<defs>
<linearGradient id="paint0_linear_685_1211" x1="35.2792" y1="3.68445" x2="4.02267" y2="34.9409" gradientUnits="userSpaceOnUse">
<stop stop-color="#E93528"/>
<stop offset="1" stop-color="#5A189A"/>
</linearGradient>
</defs>
</svg>
