<svg width="50" height="50" viewBox="0 0 50 50" fill="none" xmlns="http://www.w3.org/2000/svg">
<path d="M48.4374 41.0437H47.1978V18.1241H47.2551C47.8242 18.1241 48.37 17.869 48.7724 17.415C49.1749 16.9609 49.4009 16.345 49.4009 15.7029V2.42125C49.4009 1.77909 49.1749 1.16324 48.7724 0.709168C48.37 0.255095 47.8242 0 47.2551 0H29.3177C28.749 0.00155183 28.204 0.257145 27.8019 0.710882C27.3997 1.16462 27.1732 1.77957 27.1718 2.42125V8.10414H6.51045C5.52598 8.10569 4.58223 8.54766 3.88611 9.33313C3.18999 10.1186 2.7983 11.1835 2.79692 12.2943V41.0437H1.56255C1.14815 41.0437 0.750722 41.2295 0.457698 41.5601C0.164673 41.8907 5.34216e-05 42.3392 5.34216e-05 42.8068C-0.0033775 43.7505 0.158483 44.6857 0.476337 45.5586C0.79419 46.4316 1.26177 47.225 1.85222 47.8935C2.44267 48.5619 3.14434 49.0921 3.91694 49.4536C4.68953 49.8151 5.51781 50.0008 6.3542 50H43.6458C44.483 50.0008 45.3122 49.8147 46.0854 49.4525C46.8587 49.0902 47.5609 48.559 48.1514 47.8893C48.742 47.2197 49.2094 46.4248 49.5266 45.5505C49.8439 44.6762 50.0047 43.7397 49.9999 42.795C49.9971 42.3295 49.8313 41.884 49.5386 41.556C49.2459 41.2279 48.85 41.0437 48.4374 41.0437ZM28.2135 13.4932V2.42125C28.2149 2.0913 28.3316 1.7753 28.5384 1.54198C28.7452 1.30867 29.0253 1.17691 29.3177 1.17536H47.2551C47.548 1.17536 47.8288 1.30663 48.0359 1.54028C48.2429 1.77392 48.3593 2.09082 48.3593 2.42125V15.6794C48.3593 16.0098 48.2429 16.3267 48.0359 16.5603C47.8288 16.794 47.548 16.9252 47.2551 16.9252H35.2291C35.0925 16.9259 34.9615 16.9871 34.8645 17.0957L30.7552 21.7325C30.7319 21.761 30.7011 21.7803 30.6674 21.7877C30.6337 21.7951 30.5987 21.7902 30.5677 21.7736C30.5348 21.7601 30.5065 21.7352 30.4869 21.7025C30.4673 21.6698 30.4573 21.6309 30.4583 21.5914V17.5129C30.4583 17.3571 30.4034 17.2076 30.3057 17.0974C30.2081 16.9872 30.0756 16.9252 29.9375 16.9252H29.3177C29.0253 16.9237 28.7452 16.7919 28.5384 16.5586C28.3316 16.3253 28.2149 16.0093 28.2135 15.6794V13.4932ZM29.3177 18.1006H29.4166V21.5914C29.4164 21.8638 29.4881 22.13 29.6226 22.3561C29.7571 22.5823 29.9483 22.758 30.1718 22.8608C30.2726 22.9039 30.3775 22.9335 30.4843 22.949H30.5625H30.6354C30.715 22.958 30.7953 22.958 30.875 22.949C30.9703 22.9232 31.0629 22.8858 31.151 22.8373L31.2239 22.7903C31.3175 22.7339 31.4035 22.6627 31.4791 22.5788L35.4322 18.1182H41.901V36.2365H26.9948C27.0341 36.0896 27.0551 35.9373 27.0573 35.784V33.3216C27.0614 32.423 26.8188 31.545 26.3627 30.8084C25.9067 30.0717 25.2596 29.5126 24.5104 29.2078L22.0156 28.197C21.9297 28.1581 21.8361 28.1458 21.7446 28.1613C21.653 28.1768 21.5668 28.2196 21.4948 28.2851C20.798 28.9474 19.9162 29.3105 19.0052 29.3105C18.0942 29.3105 17.2124 28.9474 16.5156 28.2851C16.4464 28.2247 16.3647 28.1849 16.2782 28.1695C16.1918 28.1541 16.1032 28.1636 16.0208 28.197L13.5417 29.2313C12.7925 29.5361 12.1454 30.0952 11.6893 30.8319C11.2333 31.5685 10.9907 32.4465 10.9948 33.3451V35.8075C10.997 35.9608 11.018 36.1131 11.0573 36.26H8.09378V14.0809H27.1718V15.6794C27.1732 16.321 27.3997 16.936 27.8019 17.3897C28.204 17.8435 28.749 18.0991 29.3177 18.1006ZM26.0416 33.3216V35.784C26.0417 35.901 26.0016 36.0135 25.9298 36.0979C25.8579 36.1822 25.7599 36.2319 25.6562 36.2365H12.4323C12.3287 36.2319 12.2306 36.1822 12.1588 36.0979C12.0869 36.0135 12.0468 35.901 12.0469 35.784V33.3216C12.0462 32.6684 12.2245 32.0309 12.5573 31.4964C12.8902 30.962 13.3613 30.5567 13.9063 30.3362L16.1458 29.437C16.9856 30.1286 17.9968 30.5048 19.0365 30.5125C20.0786 30.5002 21.0919 30.1246 21.9375 29.437L24.1666 30.3362C24.7145 30.5538 25.189 30.9578 25.5248 31.4925C25.8606 32.0272 26.0412 32.6662 26.0416 33.3216ZM3.83858 12.2943C3.83996 11.4952 4.1219 10.7293 4.62268 10.1642C5.12345 9.59918 5.80225 9.28105 6.51045 9.2795H27.1718V12.9055H7.57295C7.43481 12.9055 7.30234 12.9674 7.20466 13.0776C7.10699 13.1878 7.05212 13.3373 7.05212 13.4932V36.8242C7.05212 36.98 7.10699 37.1295 7.20466 37.2397C7.30234 37.3499 7.43481 37.4118 7.57295 37.4118H42.4218C42.5599 37.4118 42.6924 37.3499 42.7901 37.2397C42.8878 37.1295 42.9426 36.98 42.9426 36.8242V18.1006H46.1562V41.0202H33.6562C33.54 41.0114 33.4234 41.0114 33.3072 41.0202C32.6372 41.1191 32.0195 41.4812 31.5625 42.0428C31.4843 42.1309 31.4114 42.225 31.3385 42.3249C31.0791 42.7079 30.7116 42.9795 30.2968 43.0947C30.1549 43.1304 30.0099 43.1481 29.8645 43.1476H20.1406C19.997 43.1478 19.8537 43.13 19.7135 43.0947C19.3001 42.9793 18.9332 42.7102 18.6719 42.3307C18.5993 42.2292 18.521 42.133 18.4375 42.0428C17.978 41.5067 17.3695 41.1644 16.7135 41.0731C16.5939 41.0643 16.4738 41.0643 16.3542 41.0731H3.85421L3.83858 12.2943ZM47.3957 47.0616C46.9031 47.6226 46.3164 48.0674 45.6699 48.3701C45.0235 48.6728 44.3301 48.8273 43.6301 48.8246H6.3542C5.65416 48.8254 4.9609 48.6699 4.31435 48.3671C3.66779 48.0643 3.08071 47.6202 2.58693 47.0603C2.09314 46.5004 1.70239 45.8358 1.4372 45.1048C1.172 44.3738 1.03759 43.5908 1.04172 42.8009C1.04172 42.645 1.09659 42.4956 1.19427 42.3853C1.29194 42.2751 1.42442 42.2132 1.56255 42.2132H16.349C16.4823 42.2127 16.6152 42.2304 16.7448 42.2661C17.0574 42.3445 17.3475 42.5102 17.5885 42.748C17.6779 42.8351 17.7599 42.9316 17.8333 43.036C18.2801 43.6829 18.9244 44.1187 19.6406 44.2583C19.8123 44.2949 19.9867 44.3126 20.1614 44.3112H29.8593C30.3037 44.3051 30.7413 44.1875 31.1403 43.967C31.5394 43.7464 31.89 43.4284 32.1666 43.036C32.2324 42.9461 32.3037 42.8617 32.3802 42.7833C32.631 42.5234 32.9382 42.343 33.2708 42.2602C33.394 42.2301 33.5197 42.2143 33.6458 42.2132H48.4374C48.5755 42.2132 48.708 42.2751 48.8057 42.3853C48.9034 42.4956 48.9582 42.645 48.9582 42.8009C48.9611 43.5925 48.8244 44.3768 48.5562 45.1083C48.288 45.8398 47.8935 46.5037 47.3957 47.0616ZM6.08858 43.5355C5.73731 43.5355 5.39393 43.653 5.10186 43.8732C4.8098 44.0934 4.58216 44.4064 4.44773 44.7726C4.31331 45.1388 4.27814 45.5417 4.34667 45.9305C4.41519 46.3192 4.58435 46.6763 4.83273 46.9565C5.08111 47.2368 5.39757 47.4277 5.74209 47.505C6.08661 47.5823 6.44371 47.5426 6.76824 47.3909C7.09276 47.2393 7.37014 46.9824 7.5653 46.6529C7.76045 46.3233 7.86461 45.9358 7.86461 45.5395C7.86667 45.2763 7.82277 45.0153 7.73542 44.7712C7.64806 44.5272 7.51896 44.305 7.35549 44.1173C7.19202 43.9295 6.99738 43.78 6.78268 43.6771C6.56799 43.5743 6.33744 43.5202 6.1042 43.5179L6.08858 43.5355ZM6.08858 46.3622C5.94311 46.3622 5.80092 46.3135 5.68004 46.2222C5.55917 46.1309 5.46505 46.0011 5.40962 45.8493C5.35419 45.6976 5.33996 45.5307 5.36872 45.3698C5.39748 45.2089 5.46794 45.0613 5.57117 44.9456C5.67439 44.83 5.80573 44.7515 5.94853 44.7202C6.09132 44.6889 6.23914 44.7061 6.37324 44.7698C6.50733 44.8334 6.62166 44.9405 6.70172 45.0775C6.78179 45.2146 6.82398 45.3754 6.82295 45.5395C6.81892 45.7526 6.74174 45.9556 6.60767 46.1058C6.4736 46.256 6.2931 46.3416 6.1042 46.3446L6.08858 46.3622ZM10.1875 43.5355C9.83627 43.539 9.49384 43.6599 9.20351 43.883C8.91318 44.1061 8.688 44.4214 8.55644 44.7889C8.42489 45.1564 8.39287 45.5596 8.46442 45.9477C8.53598 46.3357 8.70791 46.6911 8.95846 46.9689C9.20902 47.2466 9.52695 47.4344 9.87205 47.5083C10.2171 47.5822 10.5739 47.5389 10.8973 47.3841C11.2206 47.2292 11.4959 46.9696 11.6885 46.6381C11.8811 46.3067 11.9823 45.9182 11.9792 45.5219C11.9792 44.9904 11.7921 44.4806 11.459 44.1048C11.1259 43.729 10.6742 43.5179 10.2031 43.5179L10.1875 43.5355ZM10.1875 46.3622C10.0418 46.3634 9.89914 46.3157 9.77758 46.2251C9.65602 46.1344 9.56108 46.0051 9.50486 45.8534C9.44863 45.7018 9.43365 45.5347 9.46182 45.3734C9.48999 45.2121 9.56004 45.0639 9.66305 44.9477C9.76607 44.8315 9.8974 44.7524 10.0403 44.7206C10.1833 44.6889 10.3314 44.7058 10.4658 44.7692C10.6002 44.8327 10.7148 44.9398 10.7951 45.0769C10.8754 45.2141 10.9177 45.3751 10.9167 45.5395C10.9114 45.7512 10.8346 45.9525 10.7019 46.1022C10.5692 46.252 10.3907 46.3387 10.2031 46.3446L10.1875 46.3622ZM14.2813 43.5355C13.93 43.5355 13.5866 43.653 13.2945 43.8732C13.0025 44.0934 12.7748 44.4064 12.6404 44.7726C12.506 45.1388 12.4708 45.5417 12.5393 45.9305C12.6079 46.3192 12.777 46.6763 13.0254 46.9565C13.2738 47.2368 13.5903 47.4277 13.9348 47.505C14.2793 47.5823 14.6364 47.5426 14.9609 47.3909C15.2854 47.2393 15.5628 46.9824 15.758 46.6529C15.9531 46.3233 16.0573 45.9358 16.0573 45.5395C16.0594 45.2763 16.0155 45.0153 15.9281 44.7712C15.8407 44.5272 15.7116 44.305 15.5482 44.1173C15.3847 43.9295 15.1901 43.78 14.9754 43.6771C14.7607 43.5743 14.5301 43.5202 14.2969 43.5179L14.2813 43.5355ZM14.2813 46.3622C14.1358 46.3622 13.9936 46.3135 13.8727 46.2222C13.7519 46.1309 13.6577 46.0011 13.6023 45.8493C13.5469 45.6976 13.5326 45.5307 13.5614 45.3698C13.5902 45.2089 13.6606 45.0613 13.7638 44.9456C13.8671 44.83 13.9984 44.7515 14.1412 44.7202C14.284 44.6889 14.4318 44.7061 14.5659 44.7698C14.7 44.8334 14.8143 44.9405 14.8944 45.0775C14.9745 45.2146 15.0167 45.3754 15.0156 45.5395C15.0116 45.7526 14.9344 45.9556 14.8004 46.1058C14.6663 46.256 14.4858 46.3416 14.2969 46.3446L14.2813 46.3622ZM19.0156 16.5433C17.8461 16.5448 16.7248 17.0697 15.8978 18.0029C15.0708 18.9361 14.6056 20.2012 14.6042 21.5209C14.6042 24.1655 16.4948 28.2499 19.0156 28.2499C21.5364 28.2499 23.4375 24.1479 23.4375 21.5033C23.4361 20.1846 22.9716 18.9203 22.1457 17.9873C21.3198 17.0543 20.1999 16.5287 19.0312 16.5256L19.0156 16.5433ZM19.0156 27.0745C17.2187 27.0745 15.6458 23.6131 15.6458 21.5209C15.6458 20.5125 16.0009 19.5454 16.6328 18.8323C17.2648 18.1192 18.1219 17.7186 19.0156 17.7186C19.9093 17.7186 20.7665 18.1192 21.3984 18.8323C22.0304 19.5454 22.3854 20.5125 22.3854 21.5209C22.3958 23.5954 20.8333 27.0569 19.0312 27.0569L19.0156 27.0745ZM32.2916 11.2482C32.7037 11.2482 33.1065 11.1104 33.4491 10.8521C33.7917 10.5938 34.0587 10.2266 34.2164 9.79709C34.374 9.36755 34.4153 8.8949 34.3349 8.4389C34.2545 7.98291 34.0561 7.56405 33.7648 7.23529C33.4734 6.90654 33.1022 6.68265 32.6981 6.59195C32.2939 6.50124 31.875 6.5478 31.4944 6.72572C31.1137 6.90364 30.7883 7.20494 30.5594 7.59151C30.3305 7.97809 30.2083 8.43258 30.2083 8.89751C30.2083 9.52096 30.4278 10.1189 30.8185 10.5597C31.2092 11.0006 31.7391 11.2482 32.2916 11.2482ZM32.2916 7.72214C32.4976 7.72214 32.699 7.79108 32.8703 7.92023C33.0416 8.04938 33.1751 8.23295 33.254 8.44772C33.3328 8.66249 33.3535 8.89881 33.3133 9.12681C33.2731 9.35481 33.1739 9.56424 33.0282 9.72862C32.8825 9.89299 32.6969 10.0049 32.4948 10.0503C32.2928 10.0956 32.0833 10.0724 31.893 9.9834C31.7027 9.89444 31.54 9.74379 31.4255 9.55051C31.311 9.35722 31.25 9.12997 31.25 8.89751C31.25 8.58578 31.3597 8.28682 31.5551 8.0664C31.7504 7.84598 32.0154 7.72214 32.2916 7.72214ZM38.2968 11.2482C38.7089 11.2482 39.1116 11.1104 39.4542 10.8521C39.7968 10.5938 40.0639 10.2266 40.2215 9.79709C40.3792 9.36755 40.4205 8.8949 40.3401 8.4389C40.2597 7.98291 40.0613 7.56405 39.7699 7.23529C39.4786 6.90654 39.1074 6.68265 38.7032 6.59195C38.2991 6.50124 37.8802 6.5478 37.4996 6.72572C37.1189 6.90364 36.7935 7.20494 36.5646 7.59151C36.3357 7.97809 36.2135 8.43258 36.2135 8.89751C36.2135 9.51893 36.4315 10.1151 36.82 10.5556C37.2084 10.9961 37.7357 11.2451 38.2864 11.2482H38.2968ZM38.2968 7.72214C38.5028 7.72214 38.7042 7.79108 38.8755 7.92023C39.0468 8.04938 39.1803 8.23295 39.2592 8.44772C39.338 8.66249 39.3586 8.89881 39.3185 9.12681C39.2783 9.35481 39.1791 9.56424 39.0334 9.72862C38.8877 9.89299 38.7021 10.0049 38.5 10.0503C38.298 10.0956 38.0885 10.0724 37.8982 9.9834C37.7078 9.89444 37.5452 9.74379 37.4307 9.55051C37.3162 9.35722 37.2551 9.12997 37.2551 8.89751C37.2551 8.58781 37.3634 8.29062 37.5565 8.07053C37.7496 7.85044 38.0119 7.72524 38.2864 7.72214H38.2968ZM44.3072 11.2482C44.7192 11.2482 45.122 11.1104 45.4646 10.8521C45.8072 10.5938 46.0743 10.2266 46.2319 9.79709C46.3896 9.36755 46.4309 8.8949 46.3505 8.4389C46.2701 7.98291 46.0717 7.56405 45.7803 7.23529C45.489 6.90654 45.1178 6.68265 44.7136 6.59195C44.3095 6.50124 43.8906 6.5478 43.51 6.72572C43.1293 6.90364 42.8039 7.20494 42.575 7.59151C42.3461 7.97809 42.2239 8.43258 42.2239 8.89751C42.2239 9.51893 42.4419 10.1151 42.8304 10.5556C43.2188 10.9961 43.7461 11.2451 44.2968 11.2482H44.3072ZM44.3072 7.72214C44.5132 7.72214 44.7146 7.79108 44.8859 7.92023C45.0572 8.04938 45.1907 8.23295 45.2696 8.44772C45.3484 8.66249 45.369 8.89881 45.3289 9.12681C45.2887 9.35481 45.1895 9.56424 45.0438 9.72862C44.8981 9.89299 44.7125 10.0049 44.5104 10.0503C44.3084 10.0956 44.0989 10.0724 43.9086 9.9834C43.7182 9.89444 43.5556 9.74379 43.4411 9.55051C43.3266 9.35722 43.2655 9.12997 43.2655 8.89751C43.2655 8.58781 43.3738 8.29062 43.5669 8.07053C43.76 7.85044 44.0223 7.72524 44.2968 7.72214H44.3072Z" fill="url(#paint0_linear_685_686)"/>
<defs>
<linearGradient id="paint0_linear_685_686" x1="25" y1="0" x2="25" y2="50" gradientUnits="userSpaceOnUse">
<stop stop-color="white"/>
<stop offset="1" stop-color="white"/>
</linearGradient>
</defs>
</svg>
