<svg width="50" height="50" viewBox="0 0 50 50" fill="none" xmlns="http://www.w3.org/2000/svg">
<path d="M18.8909 39.5629L17.953 44.557C17.784 45.4575 17.2472 46.5279 16.195 46.5279H9.83457C8.80625 46.5279 8.08086 45.5982 8.08086 44.611V39.0968C10.3069 37.2611 12.7977 34.1958 14.0141 31.5254C14.5508 31.5923 14.9999 31.7259 15.2654 32.2636C15.589 32.919 15.4236 33.8137 15.2081 34.477C14.8896 35.4572 14.323 36.4153 13.6979 37.2301C13.5503 37.4225 13.6878 37.701 13.9303 37.701H17.1325C18.0718 37.7009 19.0802 38.555 18.8909 39.5629ZM11.1822 6.87546L10.9388 8.55515L12.461 7.80427C12.5423 7.76423 12.6387 7.76423 12.7199 7.80427L14.2422 8.55515L13.9987 6.87546C13.9856 6.78572 14.0155 6.69412 14.0788 6.62917L15.2628 5.41355L13.5906 5.12615C13.501 5.11072 13.4229 5.05447 13.3806 4.9739L12.5904 3.47205L11.8003 4.9739C11.758 5.05437 11.6804 5.11072 11.5907 5.12615L9.91816 5.41345L11.1016 6.62908C11.1649 6.69421 11.1952 6.78552 11.1822 6.87546ZM6.6708 37.3689H4.14434C3.68975 37.3689 3.31982 37.7383 3.31982 38.1929V45.7025C3.31982 46.1577 3.68896 46.5279 4.14434 46.5279H6.6707C7.12588 46.5279 7.49473 46.1574 7.49473 45.7025V38.1929C7.49482 37.7385 7.1251 37.3689 6.6708 37.3689ZM18.9606 6.87546L18.7171 8.55544L20.2382 7.80427C20.3184 7.76462 20.4181 7.76472 20.4982 7.80427L22.0198 8.55544L21.7758 6.87546C21.7627 6.78552 21.793 6.69421 21.8563 6.62917L23.0404 5.41355L21.3678 5.12625C21.2781 5.11082 21.2015 5.05427 21.1591 4.9739L20.368 3.47244L19.5779 4.974C19.5356 5.05427 19.4588 5.11091 19.3693 5.12625L17.6955 5.41355L18.8802 6.62927C18.9431 6.69382 18.9736 6.78611 18.9606 6.87546ZM42.2937 6.87546L42.0496 8.55544L43.5712 7.80427C43.6535 7.76365 43.7504 7.76365 43.8327 7.80427L45.3551 8.55554L45.1092 6.87517C45.0961 6.78582 45.1251 6.69402 45.1882 6.62937L46.3765 5.41355L44.702 5.12615C44.6101 5.11033 44.533 5.0533 44.4885 4.97146L43.6996 3.47205L42.9095 4.9739C42.8672 5.05671 42.7906 5.11091 42.7018 5.12615L41.0297 5.41345L42.2131 6.62908C42.2765 6.69421 42.3068 6.78542 42.2937 6.87546ZM26.7383 6.87546L26.4941 8.55535L28.0166 7.80437C28.097 7.76472 28.1955 7.76472 28.2759 7.80437L29.7982 8.55535L29.5542 6.87546C29.5412 6.78591 29.5706 6.69412 29.6338 6.62927L30.8184 5.41365L29.146 5.12625C29.0563 5.11082 28.9784 5.05457 28.936 4.974L28.1458 3.47205L27.3562 4.9741C27.3137 5.05486 27.236 5.11082 27.1462 5.12634L25.4735 5.41365L26.6576 6.62927C26.721 6.69421 26.7514 6.78552 26.7383 6.87546ZM34.5152 6.87566L34.2729 8.55525L35.7941 7.80427C35.8761 7.76384 35.9719 7.76384 36.0538 7.80427L37.5753 8.55544L37.3312 6.87546C37.3183 6.78601 37.3488 6.69382 37.4118 6.62917L38.5959 5.41355L36.9231 5.12625C36.8333 5.11082 36.7561 5.05476 36.7136 4.974L35.9234 3.47214L35.1333 4.974C35.0907 5.05496 35.0134 5.11072 34.9232 5.12625L33.2509 5.41365L34.436 6.62927C34.4991 6.69392 34.5281 6.7865 34.5152 6.87566ZM35.1229 29.1932H38.0846V16.8105H35.1229V29.1932ZM29.4839 29.1932H32.4457V19.7237H29.4839V29.1932ZM36.706 40.524H29.2905C29.1285 40.524 28.9976 40.3929 28.9976 40.2309V35.0835H27.2946V40.2309C27.2946 40.3927 27.1634 40.524 27.0016 40.524H19.5866L19.2988 40.5662L19.0244 42.0256C19.2101 42.1424 19.3428 42.2269 19.5866 42.2269H36.7061C37.1751 42.2269 37.5575 41.8445 37.5575 41.3755C37.5573 40.906 37.1754 40.524 36.706 40.524ZM46.6797 11.5067V34.4974H15.8177C16.0189 33.694 16.1818 32.7955 15.7913 32.004C15.4126 31.2363 14.6435 30.9372 13.82 30.9372C13.7005 30.9372 13.5947 31.0086 13.5493 31.119C13.0729 32.2756 12.2747 33.489 11.5383 34.4974H9.61269V11.5067H46.6797ZM21.7553 24.13C21.7553 23.9682 21.6245 23.8369 21.4627 23.8369H17.9147C17.7522 23.8369 17.6217 23.9676 17.6217 24.13V29.4863C17.6217 29.6484 17.7525 29.7794 17.9147 29.7794H21.4627C21.6243 29.7794 21.7553 29.6477 21.7553 29.4863V24.13ZM27.3933 22.0622C27.3933 21.8998 27.2627 21.7691 27.1002 21.7691H23.5522C23.3905 21.7691 23.2593 21.9004 23.2593 22.0622V29.4863C23.2593 29.6478 23.3908 29.7794 23.5522 29.7794H27.1002C27.2624 29.7794 27.3933 29.6484 27.3933 29.4863V22.0622ZM33.0317 19.4306C33.0317 19.2689 32.9005 19.1376 32.7388 19.1376H29.1908C29.0292 19.1376 28.8982 19.2691 28.8982 19.4306V29.4863C28.8982 29.6477 29.0292 29.7794 29.1908 29.7794H32.7388C32.9006 29.7794 33.0317 29.648 33.0317 29.4863V19.4306ZM38.6707 16.5175C38.6707 16.3559 38.5392 16.2244 38.3776 16.2244H34.8297C34.6682 16.2244 34.5366 16.3559 34.5366 16.5175V29.4863C34.5366 29.6478 34.6682 29.7794 34.8297 29.7794H38.3776C38.5392 29.7794 38.6707 29.6478 38.6707 29.4863V16.5175ZM23.8454 29.1932H26.8071V22.3552H23.8454V29.1932ZM18.2078 29.1932H21.1696V24.423H18.2078V29.1932Z" fill="url(#paint0_linear_685_693)"/>
<defs>
<linearGradient id="paint0_linear_685_693" x1="2.76494" y1="45.4895" x2="44.6087" y2="3.64578" gradientUnits="userSpaceOnUse">
<stop stop-color="white"/>
<stop offset="1" stop-color="white"/>
</linearGradient>
</defs>
</svg>
